<ttFont>
    <TTGlyph name="A" xMin="-54" yMin="-8" xMax="592" yMax="683">
      <contour>
        <pt x="479" y="607" on="0"/>
        <pt x="469" y="459" on="0"/>
        <pt x="469" y="131" on="0"/>
        <pt x="482" y="35" on="1"/>
        <pt x="535" y="30" on="0"/>
        <pt x="592" y="16" on="1"/>
        <pt x="589" y="-8" on="1"/>
        <pt x="515" y="0" on="0"/>
        <pt x="342" y="0" on="0"/>
        <pt x="289" y="-8" on="1"/>
        <pt x="285" y="17" on="1"/>
        <pt x="330" y="31" on="0"/>
        <pt x="381" y="38" on="1"/>
        <pt x="389" y="104" on="0"/>
        <pt x="392" y="251" on="1"/>
        <pt x="340" y="257" on="0"/>
        <pt x="215" y="257" on="0"/>
        <pt x="172" y="251" on="1"/>
        <pt x="148" y="153" on="0"/>
        <pt x="148" y="35" on="0"/>
        <pt x="191" y="10" on="1"/>
        <pt x="187" y="-4" on="1"/>
        <pt x="156" y="0" on="0"/>
        <pt x="9" y="0" on="0"/>
        <pt x="-50" y="-8" on="1"/>
        <pt x="-54" y="17" on="1"/>
        <pt x="-9" y="31" on="0"/>
        <pt x="42" y="38" on="1"/>
        <pt x="200" y="598" on="1"/>
        <pt x="82" y="598" on="0"/>
        <pt x="49" y="566" on="1"/>
        <pt x="42" y="552" on="0"/>
        <pt x="42" y="492" on="0"/>
        <pt x="52" y="481" on="1"/>
        <pt x="51" y="474" on="1"/>
        <pt x="26" y="459" on="0"/>
        <pt x="1" y="432" on="1"/>
        <pt x="-11" y="433" on="0"/>
        <pt x="-26" y="451" on="0"/>
        <pt x="-26" y="463" on="1"/>
        <pt x="-26" y="512" on="0"/>
        <pt x="92" y="648" on="0"/>
        <pt x="143" y="666" on="1"/>
        <pt x="294" y="649" on="0"/>
        <pt x="449" y="637" on="1"/>
        <pt x="463" y="655" on="0"/>
        <pt x="472" y="683" on="1"/>
        <pt x="493" y="677" on="1"/>
      </contour>
      <contour>
        <pt x="183" y="301" on="1"/>
        <pt x="228" y="294" on="0"/>
        <pt x="351" y="294" on="0"/>
        <pt x="392" y="301" on="1"/>
        <pt x="392" y="478" on="0"/>
        <pt x="387" y="590" on="1"/>
        <pt x="384" y="593" on="1"/>
        <pt x="332" y="598" on="0"/>
        <pt x="255" y="598" on="1"/>
      </contour>
    </TTGlyph>
    <TTGlyph name="AE" xMin="-54" yMin="-15" xMax="737" yMax="682">
      <contour>
        <pt x="193" y="682" on="1"/>
        <pt x="331" y="651" on="0"/>
        <pt x="603" y="651" on="0"/>
        <pt x="733" y="662" on="1"/>
        <pt x="737" y="642" on="1"/>
        <pt x="685" y="589" on="0"/>
        <pt x="678" y="484" on="1"/>
        <pt x="653" y="484" on="1"/>
        <pt x="644" y="527" on="0"/>
        <pt x="644" y="593" on="1"/>
        <pt x="601" y="614" on="0"/>
        <pt x="488" y="614" on="0"/>
        <pt x="460" y="609" on="1"/>
        <pt x="443" y="557" on="0"/>
        <pt x="435" y="365" on="1"/>
        <pt x="466" y="358" on="0"/>
        <pt x="512" y="358" on="1"/>
        <pt x="601" y="358" on="0"/>
        <pt x="621" y="401" on="1"/>
        <pt x="641" y="397" on="1"/>
        <pt x="632" y="365" on="0"/>
        <pt x="632" y="276" on="0"/>
        <pt x="638" y="233" on="1"/>
        <pt x="615" y="229" on="1"/>
        <pt x="600" y="267" on="0"/>
        <pt x="595" y="318" on="1"/>
        <pt x="558" y="321" on="0"/>
        <pt x="468" y="321" on="0"/>
        <pt x="434" y="316" on="1"/>
        <pt x="434" y="273" on="1"/>
        <pt x="434" y="178" on="0"/>
        <pt x="458" y="124" on="1"/>
        <pt x="484" y="64" on="0"/>
        <pt x="570" y="64" on="1"/>
        <pt x="642" y="64" on="0"/>
        <pt x="718" y="142" on="1"/>
        <pt x="732" y="129" on="1"/>
        <pt x="649" y="19" on="0"/>
        <pt x="549" y="-15" on="1"/>
        <pt x="438" y="-15" on="0"/>
        <pt x="352" y="121" on="0"/>
        <pt x="352" y="241" on="1"/>
        <pt x="352" y="246" on="0"/>
        <pt x="352" y="252" on="1"/>
        <pt x="353" y="315" on="1"/>
        <pt x="322" y="321" on="0"/>
        <pt x="230" y="321" on="0"/>
        <pt x="205" y="315" on="1"/>
        <pt x="191" y="269" on="1"/>
        <pt x="153" y="143" on="0"/>
        <pt x="153" y="32" on="0"/>
        <pt x="191" y="10" on="1"/>
        <pt x="187" y="-4" on="1"/>
        <pt x="156" y="0" on="0"/>
        <pt x="9" y="0" on="0"/>
        <pt x="-50" y="-8" on="1"/>
        <pt x="-54" y="17" on="1"/>
        <pt x="-9" y="31" on="0"/>
        <pt x="42" y="38" on="1"/>
        <pt x="250" y="614" on="1"/>
        <pt x="132" y="614" on="0"/>
        <pt x="99" y="582" on="1"/>
        <pt x="92" y="568" on="0"/>
        <pt x="92" y="508" on="0"/>
        <pt x="102" y="497" on="1"/>
        <pt x="101" y="490" on="1"/>
        <pt x="76" y="475" on="0"/>
        <pt x="51" y="448" on="1"/>
        <pt x="39" y="449" on="0"/>
        <pt x="24" y="467" on="0"/>
        <pt x="24" y="479" on="1"/>
        <pt x="24" y="528" on="0"/>
        <pt x="142" y="664" on="0"/>
      </contour>
      <contour>
        <pt x="223" y="364" on="1"/>
        <pt x="246" y="358" on="0"/>
        <pt x="330" y="358" on="0"/>
        <pt x="355" y="365" on="1"/>
        <pt x="361" y="475" on="0"/>
        <pt x="366" y="547" on="0"/>
        <pt x="366" y="595" on="0"/>
        <pt x="363" y="611" on="1"/>
        <pt x="349" y="614" on="0"/>
        <pt x="312" y="614" on="0"/>
        <pt x="295" y="611" on="1"/>
      </contour>
    </TTGlyph>
    <TTGlyph name="Aacute" xMin="-54" yMin="-8" xMax="592" yMax="868">
      <contour>
        <pt x="529" y="797" on="1"/>
        <pt x="323" y="722" on="1"/>
        <pt x="315" y="742" on="1"/>
        <pt x="397" y="778" on="0"/>
        <pt x="472" y="868" on="1"/>
        <pt x="494" y="866" on="0"/>
        <pt x="514" y="859" on="1"/>
        <pt x="519" y="850" on="0"/>
        <pt x="530" y="807" on="0"/>
      </contour>
      <contour>
        <pt x="479" y="607" on="0"/>
        <pt x="469" y="459" on="0"/>
        <pt x="469" y="131" on="0"/>
        <pt x="482" y="35" on="1"/>
        <pt x="535" y="30" on="0"/>
        <pt x="592" y="16" on="1"/>
        <pt x="589" y="-8" on="1"/>
        <pt x="515" y="0" on="0"/>
        <pt x="342" y="0" on="0"/>
        <pt x="289" y="-8" on="1"/>
        <pt x="285" y="17" on="1"/>
        <pt x="330" y="31" on="0"/>
        <pt x="381" y="38" on="1"/>
        <pt x="389" y="104" on="0"/>
        <pt x="392" y="251" on="1"/>
        <pt x="340" y="257" on="0"/>
        <pt x="215" y="257" on="0"/>
        <pt x="172" y="251" on="1"/>
        <pt x="148" y="153" on="0"/>
        <pt x="148" y="35" on="0"/>
        <pt x="191" y="10" on="1"/>
        <pt x="187" y="-4" on="1"/>
        <pt x="156" y="0" on="0"/>
        <pt x="9" y="0" on="0"/>
        <pt x="-50" y="-8" on="1"/>
        <pt x="-54" y="17" on="1"/>
        <pt x="-9" y="31" on="0"/>
        <pt x="42" y="38" on="1"/>
        <pt x="200" y="598" on="1"/>
        <pt x="82" y="598" on="0"/>
        <pt x="49" y="566" on="1"/>
        <pt x="42" y="552" on="0"/>
        <pt x="42" y="492" on="0"/>
        <pt x="52" y="481" on="1"/>
        <pt x="51" y="474" on="1"/>
        <pt x="26" y="459" on="0"/>
        <pt x="1" y="432" on="1"/>
        <pt x="-11" y="433" on="0"/>
        <pt x="-26" y="451" on="0"/>
        <pt x="-26" y="463" on="1"/>
        <pt x="-26" y="512" on="0"/>
        <pt x="92" y="648" on="0"/>
        <pt x="143" y="666" on="1"/>
        <pt x="294" y="649" on="0"/>
        <pt x="449" y="637" on="1"/>
        <pt x="463" y="655" on="0"/>
        <pt x="472" y="683" on="1"/>
        <pt x="493" y="677" on="1"/>
      </contour>
      <contour>
        <pt x="183" y="301" on="1"/>
        <pt x="228" y="294" on="0"/>
        <pt x="351" y="294" on="0"/>
        <pt x="392" y="301" on="1"/>
        <pt x="392" y="478" on="0"/>
        <pt x="387" y="590" on="1"/>
        <pt x="384" y="593" on="1"/>
        <pt x="332" y="598" on="0"/>
        <pt x="255" y="598" on="1"/>
      </contour>
    </TTGlyph>
    <TTGlyph name="Acircumflex" xMin="-54" yMin="-8" xMax="592" yMax="885">
      <contour>
        <pt x="509" y="715" on="1"/>
        <pt x="348" y="790" on="1"/>
        <pt x="187" y="715" on="1"/>
        <pt x="177" y="734" on="1"/>
        <pt x="269" y="792" on="0"/>
        <pt x="338" y="885" on="1"/>
        <pt x="358" y="885" on="1"/>
        <pt x="427" y="792" on="0"/>
        <pt x="519" y="734" on="1"/>
      </contour>
      <contour>
        <pt x="479" y="607" on="0"/>
        <pt x="469" y="459" on="0"/>
        <pt x="469" y="131" on="0"/>
        <pt x="482" y="35" on="1"/>
        <pt x="535" y="30" on="0"/>
        <pt x="592" y="16" on="1"/>
        <pt x="589" y="-8" on="1"/>
        <pt x="515" y="0" on="0"/>
        <pt x="342" y="0" on="0"/>
        <pt x="289" y="-8" on="1"/>
        <pt x="285" y="17" on="1"/>
        <pt x="330" y="31" on="0"/>
        <pt x="381" y="38" on="1"/>
        <pt x="389" y="104" on="0"/>
        <pt x="392" y="251" on="1"/>
        <pt x="340" y="257" on="0"/>
        <pt x="215" y="257" on="0"/>
        <pt x="172" y="251" on="1"/>
        <pt x="148" y="153" on="0"/>
        <pt x="148" y="35" on="0"/>
        <pt x="191" y="10" on="1"/>
        <pt x="187" y="-4" on="1"/>
        <pt x="156" y="0" on="0"/>
        <pt x="9" y="0" on="0"/>
        <pt x="-50" y="-8" on="1"/>
        <pt x="-54" y="17" on="1"/>
        <pt x="-9" y="31" on="0"/>
        <pt x="42" y="38" on="1"/>
        <pt x="200" y="598" on="1"/>
        <pt x="82" y="598" on="0"/>
        <pt x="49" y="566" on="1"/>
        <pt x="42" y="552" on="0"/>
        <pt x="42" y="492" on="0"/>
        <pt x="52" y="481" on="1"/>
        <pt x="51" y="474" on="1"/>
        <pt x="26" y="459" on="0"/>
        <pt x="1" y="432" on="1"/>
        <pt x="-11" y="433" on="0"/>
        <pt x="-26" y="451" on="0"/>
        <pt x="-26" y="463" on="1"/>
        <pt x="-26" y="512" on="0"/>
        <pt x="92" y="648" on="0"/>
        <pt x="143" y="666" on="1"/>
        <pt x="294" y="649" on="0"/>
        <pt x="449" y="637" on="1"/>
        <pt x="463" y="655" on="0"/>
        <pt x="472" y="683" on="1"/>
        <pt x="493" y="677" on="1"/>
      </contour>
      <contour>
        <pt x="183" y="301" on="1"/>
        <pt x="228" y="294" on="0"/>
        <pt x="351" y="294" on="0"/>
        <pt x="392" y="301" on="1"/>
        <pt x="392" y="478" on="0"/>
        <pt x="387" y="590" on="1"/>
        <pt x="384" y="593" on="1"/>
        <pt x="332" y="598" on="0"/>
        <pt x="255" y="598" on="1"/>
      </contour>
    </TTGlyph>
    <TTGlyph name="Adieresis" xMin="-54" yMin="-8" xMax="592" yMax="853">
      <contour>
        <pt x="310" y="803" on="1"/>
        <pt x="303" y="790" on="0"/>
        <pt x="268" y="750" on="0"/>
        <pt x="256" y="742" on="1"/>
        <pt x="244" y="750" on="0"/>
        <pt x="209" y="790" on="0"/>
        <pt x="202" y="803" on="1"/>
        <pt x="208" y="815" on="0"/>
        <pt x="242" y="846" on="0"/>
        <pt x="256" y="853" on="1"/>
        <pt x="269" y="845" on="0"/>
        <pt x="303" y="814" on="0"/>
      </contour>
      <contour>
        <pt x="495" y="803" on="1"/>
        <pt x="488" y="790" on="0"/>
        <pt x="453" y="750" on="0"/>
        <pt x="441" y="742" on="1"/>
        <pt x="429" y="750" on="0"/>
        <pt x="394" y="790" on="0"/>
        <pt x="387" y="803" on="1"/>
        <pt x="393" y="815" on="0"/>
        <pt x="427" y="846" on="0"/>
        <pt x="441" y="853" on="1"/>
        <pt x="454" y="845" on="0"/>
        <pt x="488" y="814" on="0"/>
      </contour>
      <contour>
        <pt x="479" y="607" on="0"/>
        <pt x="469" y="459" on="0"/>
        <pt x="469" y="131" on="0"/>
        <pt x="482" y="35" on="1"/>
        <pt x="535" y="30" on="0"/>
        <pt x="592" y="16" on="1"/>
        <pt x="589" y="-8" on="1"/>
        <pt x="515" y="0" on="0"/>
        <pt x="342" y="0" on="0"/>
        <pt x="289" y="-8" on="1"/>
        <pt x="285" y="17" on="1"/>
        <pt x="330" y="31" on="0"/>
        <pt x="381" y="38" on="1"/>
        <pt x="389" y="104" on="0"/>
        <pt x="392" y="251" on="1"/>
        <pt x="340" y="257" on="0"/>
        <pt x="215" y="257" on="0"/>
        <pt x="172" y="251" on="1"/>
        <pt x="148" y="153" on="0"/>
        <pt x="148" y="35" on="0"/>
        <pt x="191" y="10" on="1"/>
        <pt x="187" y="-4" on="1"/>
        <pt x="156" y="0" on="0"/>
        <pt x="9" y="0" on="0"/>
        <pt x="-50" y="-8" on="1"/>
        <pt x="-54" y="17" on="1"/>
        <pt x="-9" y="31" on="0"/>
        <pt x="42" y="38" on="1"/>
        <pt x="200" y="598" on="1"/>
        <pt x="82" y="598" on="0"/>
        <pt x="49" y="566" on="1"/>
        <pt x="42" y="552" on="0"/>
        <pt x="42" y="492" on="0"/>
        <pt x="52" y="481" on="1"/>
        <pt x="51" y="474" on="1"/>
        <pt x="26" y="459" on="0"/>
        <pt x="1" y="432" on="1"/>
        <pt x="-11" y="433" on="0"/>
        <pt x="-26" y="451" on="0"/>
        <pt x="-26" y="463" on="1"/>
        <pt x="-26" y="512" on="0"/>
        <pt x="92" y="648" on="0"/>
        <pt x="143" y="666" on="1"/>
        <pt x="294" y="649" on="0"/>
        <pt x="449" y="637" on="1"/>
        <pt x="463" y="655" on="0"/>
        <pt x="472" y="683" on="1"/>
        <pt x="493" y="677" on="1"/>
      </contour>
      <contour>
        <pt x="183" y="301" on="1"/>
        <pt x="228" y="294" on="0"/>
        <pt x="351" y="294" on="0"/>
        <pt x="392" y="301" on="1"/>
        <pt x="392" y="478" on="0"/>
        <pt x="387" y="590" on="1"/>
        <pt x="384" y="593" on="1"/>
        <pt x="332" y="598" on="0"/>
        <pt x="255" y="598" on="1"/>
      </contour>
    </TTGlyph>
    <TTGlyph name="Agrave" xMin="-54" yMin="-8" xMax="592" yMax="877">
      <contour>
        <pt x="370" y="731" on="1"/>
        <pt x="164" y="806" on="1"/>
        <pt x="163" y="816" on="0"/>
        <pt x="174" y="859" on="0"/>
        <pt x="179" y="868" on="1"/>
        <pt x="199" y="875" on="0"/>
        <pt x="221" y="877" on="1"/>
        <pt x="296" y="787" on="0"/>
        <pt x="378" y="751" on="1"/>
      </contour>
      <contour>
        <pt x="479" y="607" on="0"/>
        <pt x="469" y="459" on="0"/>
        <pt x="469" y="131" on="0"/>
        <pt x="482" y="35" on="1"/>
        <pt x="535" y="30" on="0"/>
        <pt x="592" y="16" on="1"/>
        <pt x="589" y="-8" on="1"/>
        <pt x="515" y="0" on="0"/>
        <pt x="342" y="0" on="0"/>
        <pt x="289" y="-8" on="1"/>
        <pt x="285" y="17" on="1"/>
        <pt x="330" y="31" on="0"/>
        <pt x="381" y="38" on="1"/>
        <pt x="389" y="104" on="0"/>
        <pt x="392" y="251" on="1"/>
        <pt x="340" y="257" on="0"/>
        <pt x="215" y="257" on="0"/>
        <pt x="172" y="251" on="1"/>
        <pt x="148" y="153" on="0"/>
        <pt x="148" y="35" on="0"/>
        <pt x="191" y="10" on="1"/>
        <pt x="187" y="-4" on="1"/>
        <pt x="156" y="0" on="0"/>
        <pt x="9" y="0" on="0"/>
        <pt x="-50" y="-8" on="1"/>
        <pt x="-54" y="17" on="1"/>
        <pt x="-9" y="31" on="0"/>
        <pt x="42" y="38" on="1"/>
        <pt x="200" y="598" on="1"/>
        <pt x="82" y="598" on="0"/>
        <pt x="49" y="566" on="1"/>
        <pt x="42" y="552" on="0"/>
        <pt x="42" y="492" on="0"/>
        <pt x="52" y="481" on="1"/>
        <pt x="51" y="474" on="1"/>
        <pt x="26" y="459" on="0"/>
        <pt x="1" y="432" on="1"/>
        <pt x="-11" y="433" on="0"/>
        <pt x="-26" y="451" on="0"/>
        <pt x="-26" y="463" on="1"/>
        <pt x="-26" y="512" on="0"/>
        <pt x="92" y="648" on="0"/>
        <pt x="143" y="666" on="1"/>
        <pt x="294" y="649" on="0"/>
        <pt x="449" y="637" on="1"/>
        <pt x="463" y="655" on="0"/>
        <pt x="472" y="683" on="1"/>
        <pt x="493" y="677" on="1"/>
      </contour>
      <contour>
        <pt x="183" y="301" on="1"/>
        <pt x="228" y="294" on="0"/>
        <pt x="351" y="294" on="0"/>
        <pt x="392" y="301" on="1"/>
        <pt x="392" y="478" on="0"/>
        <pt x="387" y="590" on="1"/>
        <pt x="384" y="593" on="1"/>
        <pt x="332" y="598" on="0"/>
        <pt x="255" y="598" on="1"/>
      </contour>
    </TTGlyph>
    <TTGlyph name="Aring" xMin="-54" yMin="-8" xMax="592" yMax="885">
      <contour>
        <pt x="479" y="607" on="0"/>
        <pt x="469" y="459" on="0"/>
        <pt x="469" y="131" on="0"/>
        <pt x="482" y="35" on="1"/>
        <pt x="535" y="30" on="0"/>
        <pt x="592" y="16" on="1"/>
        <pt x="589" y="-8" on="1"/>
        <pt x="515" y="0" on="0"/>
        <pt x="342" y="0" on="0"/>
        <pt x="289" y="-8" on="1"/>
        <pt x="285" y="17" on="1"/>
        <pt x="330" y="31" on="0"/>
        <pt x="381" y="38" on="1"/>
        <pt x="389" y="104" on="0"/>
        <pt x="392" y="251" on="1"/>
        <pt x="340" y="257" on="0"/>
        <pt x="215" y="257" on="0"/>
        <pt x="172" y="251" on="1"/>
        <pt x="148" y="153" on="0"/>
        <pt x="148" y="35" on="0"/>
        <pt x="191" y="10" on="1"/>
        <pt x="187" y="-4" on="1"/>
        <pt x="156" y="0" on="0"/>
        <pt x="9" y="0" on="0"/>
        <pt x="-50" y="-8" on="1"/>
        <pt x="-54" y="17" on="1"/>
        <pt x="-9" y="31" on="0"/>
        <pt x="42" y="38" on="1"/>
        <pt x="200" y="598" on="1"/>
        <pt x="82" y="598" on="0"/>
        <pt x="49" y="566" on="1"/>
        <pt x="42" y="552" on="0"/>
        <pt x="42" y="492" on="0"/>
        <pt x="52" y="481" on="1"/>
        <pt x="51" y="474" on="1"/>
        <pt x="26" y="459" on="0"/>
        <pt x="1" y="432" on="1"/>
        <pt x="-11" y="433" on="0"/>
        <pt x="-26" y="451" on="0"/>
        <pt x="-26" y="463" on="1"/>
        <pt x="-26" y="512" on="0"/>
        <pt x="92" y="648" on="0"/>
        <pt x="143" y="666" on="1"/>
        <pt x="294" y="649" on="0"/>
        <pt x="449" y="637" on="1"/>
        <pt x="463" y="655" on="0"/>
        <pt x="472" y="683" on="1"/>
        <pt x="493" y="677" on="1"/>
      </contour>
      <contour>
        <pt x="183" y="301" on="1"/>
        <pt x="228" y="294" on="0"/>
        <pt x="351" y="294" on="0"/>
        <pt x="392" y="301" on="1"/>
        <pt x="392" y="478" on="0"/>
        <pt x="387" y="590" on="1"/>
        <pt x="384" y="593" on="1"/>
        <pt x="332" y="598" on="0"/>
        <pt x="255" y="598" on="1"/>
      </contour>
      <contour>
        <pt x="299" y="704" on="0"/>
        <pt x="243" y="742" on="0"/>
        <pt x="243" y="817" on="0"/>
        <pt x="302" y="876" on="0"/>
        <pt x="345" y="885" on="1"/>
        <pt x="436" y="885" on="0"/>
        <pt x="436" y="811" on="1"/>
        <pt x="436" y="772" on="0"/>
        <pt x="383" y="717" on="0"/>
        <pt x="340" y="704" on="1"/>
      </contour>
      <contour>
        <pt x="389" y="818" on="0"/>
        <pt x="358" y="850" on="0"/>
        <pt x="312" y="850" on="0"/>
        <pt x="301" y="841" on="1"/>
        <pt x="290" y="824" on="0"/>
        <pt x="290" y="772" on="0"/>
        <pt x="322" y="739" on="0"/>
        <pt x="368" y="739" on="0"/>
        <pt x="378" y="748" on="1"/>
        <pt x="389" y="764" on="0"/>
      </contour>
    </TTGlyph>
    <TTGlyph name="Atilde" xMin="-54" yMin="-8" xMax="592" yMax="837">
      <contour>
        <pt x="311" y="837" on="1"/>
        <pt x="370" y="806" on="0"/>
        <pt x="475" y="806" on="0"/>
        <pt x="495" y="830" on="1"/>
        <pt x="513" y="819" on="1"/>
        <pt x="457" y="758" on="0"/>
        <pt x="409" y="737" on="1"/>
        <pt x="388" y="737" on="0"/>
        <pt x="285" y="768" on="0"/>
        <pt x="264" y="768" on="1"/>
        <pt x="221" y="768" on="0"/>
        <pt x="201" y="744" on="1"/>
        <pt x="183" y="755" on="1"/>
        <pt x="239" y="816" on="0"/>
      </contour>
      <contour>
        <pt x="479" y="607" on="0"/>
        <pt x="469" y="459" on="0"/>
        <pt x="469" y="131" on="0"/>
        <pt x="482" y="35" on="1"/>
        <pt x="535" y="30" on="0"/>
        <pt x="592" y="16" on="1"/>
        <pt x="589" y="-8" on="1"/>
        <pt x="515" y="0" on="0"/>
        <pt x="342" y="0" on="0"/>
        <pt x="289" y="-8" on="1"/>
        <pt x="285" y="17" on="1"/>
        <pt x="330" y="31" on="0"/>
        <pt x="381" y="38" on="1"/>
        <pt x="389" y="104" on="0"/>
        <pt x="392" y="251" on="1"/>
        <pt x="340" y="257" on="0"/>
        <pt x="215" y="257" on="0"/>
        <pt x="172" y="251" on="1"/>
        <pt x="148" y="153" on="0"/>
        <pt x="148" y="35" on="0"/>
        <pt x="191" y="10" on="1"/>
        <pt x="187" y="-4" on="1"/>
        <pt x="156" y="0" on="0"/>
        <pt x="9" y="0" on="0"/>
        <pt x="-50" y="-8" on="1"/>
        <pt x="-54" y="17" on="1"/>
        <pt x="-9" y="31" on="0"/>
        <pt x="42" y="38" on="1"/>
        <pt x="200" y="598" on="1"/>
        <pt x="82" y="598" on="0"/>
        <pt x="49" y="566" on="1"/>
        <pt x="42" y="552" on="0"/>
        <pt x="42" y="492" on="0"/>
        <pt x="52" y="481" on="1"/>
        <pt x="51" y="474" on="1"/>
        <pt x="26" y="459" on="0"/>
        <pt x="1" y="432" on="1"/>
        <pt x="-11" y="433" on="0"/>
        <pt x="-26" y="451" on="0"/>
        <pt x="-26" y="463" on="1"/>
        <pt x="-26" y="512" on="0"/>
        <pt x="92" y="648" on="0"/>
        <pt x="143" y="666" on="1"/>
        <pt x="294" y="649" on="0"/>
        <pt x="449" y="637" on="1"/>
        <pt x="463" y="655" on="0"/>
        <pt x="472" y="683" on="1"/>
        <pt x="493" y="677" on="1"/>
      </contour>
      <contour>
        <pt x="183" y="301" on="1"/>
        <pt x="228" y="294" on="0"/>
        <pt x="351" y="294" on="0"/>
        <pt x="392" y="301" on="1"/>
        <pt x="392" y="478" on="0"/>
        <pt x="387" y="590" on="1"/>
        <pt x="384" y="593" on="1"/>
        <pt x="332" y="598" on="0"/>
        <pt x="255" y="598" on="1"/>
      </contour>
    </TTGlyph>
    <TTGlyph name="B" xMin="-100" yMin="-22" xMax="528" yMax="659">
      <contour>
        <pt x="53" y="659" on="1"/>
        <pt x="138" y="651" on="0"/>
        <pt x="337" y="651" on="0"/>
        <pt x="386" y="648" on="0"/>
        <pt x="444" y="636" on="0"/>
        <pt x="460" y="624" on="1"/>
        <pt x="500" y="597" on="0"/>
        <pt x="500" y="486" on="0"/>
        <pt x="422" y="395" on="0"/>
        <pt x="366" y="372" on="1"/>
        <pt x="366" y="368" on="1"/>
        <pt x="438" y="368" on="0"/>
        <pt x="528" y="301" on="0"/>
        <pt x="528" y="236" on="1"/>
        <pt x="528" y="156" on="0"/>
        <pt x="378" y="8" on="0"/>
        <pt x="291" y="-15" on="1"/>
        <pt x="229" y="-15" on="0"/>
        <pt x="145" y="23" on="1"/>
        <pt x="128" y="-3" on="0"/>
        <pt x="122" y="-22" on="1"/>
        <pt x="101" y="-17" on="1"/>
        <pt x="125" y="92" on="0"/>
        <pt x="125" y="325" on="1"/>
        <pt x="125" y="414" on="0"/>
        <pt x="117" y="598" on="1"/>
        <pt x="6" y="596" on="0"/>
        <pt x="-25" y="566" on="1"/>
        <pt x="-32" y="552" on="0"/>
        <pt x="-32" y="492" on="0"/>
        <pt x="-22" y="481" on="1"/>
        <pt x="-23" y="474" on="1"/>
        <pt x="-48" y="459" on="0"/>
        <pt x="-73" y="432" on="1"/>
        <pt x="-85" y="433" on="0"/>
        <pt x="-100" y="451" on="0"/>
        <pt x="-100" y="463" on="1"/>
        <pt x="-100" y="509" on="0"/>
        <pt x="5" y="635" on="0"/>
      </contour>
      <contour>
        <pt x="263" y="382" on="1"/>
        <pt x="337" y="382" on="0"/>
        <pt x="370" y="403" on="1"/>
        <pt x="406" y="443" on="0"/>
        <pt x="406" y="566" on="0"/>
        <pt x="339" y="601" on="0"/>
        <pt x="232" y="601" on="0"/>
        <pt x="210" y="598" on="1"/>
        <pt x="202" y="497" on="0"/>
        <pt x="202" y="173" on="0"/>
        <pt x="207" y="85" on="1"/>
        <pt x="259" y="57" on="0"/>
        <pt x="378" y="57" on="0"/>
        <pt x="413" y="81" on="1"/>
        <pt x="436" y="130" on="0"/>
        <pt x="436" y="191" on="1"/>
        <pt x="436" y="345" on="0"/>
        <pt x="246" y="345" on="1"/>
        <pt x="251" y="382" on="1"/>
      </contour>
    </TTGlyph>
    <TTGlyph name="C" xMin="42" yMin="-115" xMax="519" yMax="666">
      <contour>
        <pt x="196" y="5" on="0"/>
        <pt x="261" y="-34" on="0"/>
        <pt x="348" y="-34" on="0"/>
        <pt x="437" y="17" on="0"/>
        <pt x="467" y="55" on="1"/>
        <pt x="481" y="41" on="1"/>
        <pt x="408" y="-73" on="0"/>
        <pt x="283" y="-115" on="1"/>
        <pt x="197" y="-115" on="0"/>
        <pt x="87" y="-27" on="0"/>
        <pt x="42" y="111" on="0"/>
        <pt x="42" y="313" on="0"/>
        <pt x="93" y="494" on="0"/>
        <pt x="219" y="639" on="0"/>
        <pt x="313" y="666" on="1"/>
        <pt x="414" y="666" on="0"/>
        <pt x="519" y="647" on="1"/>
        <pt x="518" y="625" on="1"/>
        <pt x="492" y="625" on="0"/>
        <pt x="470" y="616" on="1"/>
        <pt x="445" y="557" on="0"/>
        <pt x="437" y="475" on="1"/>
        <pt x="412" y="475" on="1"/>
        <pt x="403" y="522" on="0"/>
        <pt x="403" y="565" on="1"/>
        <pt x="350" y="594" on="0"/>
        <pt x="223" y="594" on="0"/>
        <pt x="182" y="556" on="1"/>
        <pt x="131" y="453" on="0"/>
        <pt x="131" y="291" on="1"/>
        <pt x="131" y="110" on="0"/>
        <pt x="178" y="35" on="1"/>
      </contour>
    </TTGlyph>
    <TTGlyph name="Ccedilla" xMin="42" yMin="-215" xMax="519" yMax="666">
      <contour>
        <pt x="238" y="-11" on="1"/>
        <pt x="42" y="17" on="0"/>
        <pt x="42" y="276" on="1"/>
        <pt x="42" y="403" on="0"/>
        <pt x="189" y="632" on="0"/>
        <pt x="313" y="666" on="1"/>
        <pt x="414" y="666" on="0"/>
        <pt x="519" y="647" on="1"/>
        <pt x="518" y="625" on="1"/>
        <pt x="492" y="625" on="0"/>
        <pt x="470" y="616" on="1"/>
        <pt x="445" y="557" on="0"/>
        <pt x="437" y="478" on="1"/>
        <pt x="412" y="478" on="1"/>
        <pt x="403" y="518" on="0"/>
        <pt x="403" y="571" on="1"/>
        <pt x="356" y="596" on="0"/>
        <pt x="225" y="596" on="0"/>
        <pt x="182" y="560" on="1"/>
        <pt x="131" y="473" on="0"/>
        <pt x="131" y="339" on="1"/>
        <pt x="131" y="139" on="0"/>
        <pt x="217" y="86" on="1"/>
        <pt x="253" y="64" on="0"/>
        <pt x="304" y="64" on="1"/>
        <pt x="385" y="64" on="0"/>
        <pt x="467" y="142" on="1"/>
        <pt x="481" y="129" on="1"/>
        <pt x="398" y="23" on="0"/>
        <pt x="283" y="-15" on="1"/>
        <pt x="270" y="-15" on="0"/>
        <pt x="264" y="-14" on="1"/>
        <pt x="252" y="-46" on="1"/>
        <pt x="256" y="-49" on="1"/>
        <pt x="302" y="-49" on="0"/>
        <pt x="359" y="-91" on="0"/>
        <pt x="359" y="-133" on="1"/>
        <pt x="345" y="-160" on="0"/>
        <pt x="292" y="-205" on="0"/>
        <pt x="263" y="-215" on="1"/>
        <pt x="219" y="-215" on="0"/>
        <pt x="175" y="-194" on="1"/>
        <pt x="185" y="-175" on="0"/>
        <pt x="191" y="-155" on="1"/>
        <pt x="195" y="-153" on="1"/>
        <pt x="227" y="-178" on="0"/>
        <pt x="263" y="-178" on="1"/>
        <pt x="281" y="-178" on="0"/>
        <pt x="289" y="-173" on="1"/>
        <pt x="298" y="-160" on="0"/>
        <pt x="298" y="-142" on="1"/>
        <pt x="298" y="-97" on="0"/>
        <pt x="215" y="-97" on="1"/>
        <pt x="209" y="-93" on="1"/>
      </contour>
    </TTGlyph>
    <TTGlyph name="D" xMin="-100" yMin="-22" xMax="578" yMax="659">
      <contour>
        <pt x="102" y="-17" on="1"/>
        <pt x="126" y="92" on="0"/>
        <pt x="126" y="501" on="0"/>
        <pt x="117" y="598" on="1"/>
        <pt x="6" y="596" on="0"/>
        <pt x="-25" y="566" on="1"/>
        <pt x="-32" y="552" on="0"/>
        <pt x="-32" y="492" on="0"/>
        <pt x="-22" y="481" on="1"/>
        <pt x="-23" y="474" on="1"/>
        <pt x="-48" y="459" on="0"/>
        <pt x="-73" y="432" on="1"/>
        <pt x="-85" y="433" on="0"/>
        <pt x="-100" y="451" on="0"/>
        <pt x="-100" y="463" on="1"/>
        <pt x="-100" y="509" on="0"/>
        <pt x="5" y="635" on="0"/>
        <pt x="53" y="659" on="1"/>
        <pt x="138" y="651" on="0"/>
        <pt x="305" y="651" on="1"/>
        <pt x="578" y="651" on="0"/>
        <pt x="578" y="386" on="1"/>
        <pt x="578" y="247" on="0"/>
        <pt x="432" y="21" on="0"/>
        <pt x="307" y="-15" on="1"/>
        <pt x="235" y="-15" on="0"/>
        <pt x="146" y="23" on="1"/>
        <pt x="129" y="-3" on="0"/>
        <pt x="123" y="-22" on="1"/>
      </contour>
      <contour>
        <pt x="289" y="604" on="1"/>
        <pt x="243" y="604" on="0"/>
        <pt x="212" y="599" on="1"/>
        <pt x="203" y="505" on="0"/>
        <pt x="203" y="173" on="0"/>
        <pt x="208" y="85" on="1"/>
        <pt x="262" y="57" on="0"/>
        <pt x="400" y="57" on="0"/>
        <pt x="438" y="91" on="1"/>
        <pt x="489" y="184" on="0"/>
        <pt x="489" y="458" on="0"/>
        <pt x="404" y="604" on="0"/>
      </contour>
    </TTGlyph>
    <TTGlyph name="E" xMin="50" yMin="-15" xMax="506" yMax="678">
      <contour>
        <pt x="394" y="566" on="1"/>
        <pt x="346" y="594" on="0"/>
        <pt x="214" y="594" on="0"/>
        <pt x="173" y="560" on="1"/>
        <pt x="172" y="546" on="0"/>
        <pt x="172" y="533" on="1"/>
        <pt x="172" y="373" on="0"/>
        <pt x="343" y="373" on="1"/>
        <pt x="338" y="336" on="1"/>
        <pt x="326" y="336" on="1"/>
        <pt x="247" y="336" on="0"/>
        <pt x="144" y="273" on="0"/>
        <pt x="144" y="133" on="0"/>
        <pt x="240" y="56" on="0"/>
        <pt x="370" y="56" on="0"/>
        <pt x="407" y="80" on="1"/>
        <pt x="414" y="94" on="0"/>
        <pt x="414" y="154" on="0"/>
        <pt x="404" y="165" on="1"/>
        <pt x="405" y="172" on="1"/>
        <pt x="430" y="187" on="0"/>
        <pt x="455" y="214" on="1"/>
        <pt x="467" y="213" on="0"/>
        <pt x="482" y="195" on="0"/>
        <pt x="482" y="183" on="1"/>
        <pt x="482" y="122" on="0"/>
        <pt x="367" y="7" on="0"/>
        <pt x="299" y="-15" on="1"/>
        <pt x="192" y="-15" on="0"/>
        <pt x="50" y="89" on="0"/>
        <pt x="50" y="185" on="1"/>
        <pt x="50" y="254" on="0"/>
        <pt x="166" y="346" on="0"/>
        <pt x="240" y="346" on="1"/>
        <pt x="240" y="350" on="1"/>
        <pt x="172" y="354" on="0"/>
        <pt x="81" y="422" on="0"/>
        <pt x="81" y="482" on="1"/>
        <pt x="117" y="546" on="0"/>
        <pt x="236" y="648" on="0"/>
        <pt x="304" y="666" on="1"/>
        <pt x="375" y="666" on="0"/>
        <pt x="444" y="647" on="1"/>
        <pt x="460" y="655" on="0"/>
        <pt x="485" y="678" on="1"/>
        <pt x="506" y="664" on="1"/>
        <pt x="440" y="584" on="0"/>
        <pt x="425" y="473" on="1"/>
        <pt x="399" y="473" on="1"/>
        <pt x="399" y="528" on="0"/>
      </contour>
    </TTGlyph>
    <TTGlyph name="Eacute" xMin="50" yMin="-15" xMax="506" yMax="868">
      <contour>
        <pt x="477" y="797" on="1"/>
        <pt x="271" y="722" on="1"/>
        <pt x="263" y="742" on="1"/>
        <pt x="345" y="778" on="0"/>
        <pt x="420" y="868" on="1"/>
        <pt x="442" y="866" on="0"/>
        <pt x="462" y="859" on="1"/>
        <pt x="467" y="850" on="0"/>
        <pt x="478" y="807" on="0"/>
      </contour>
      <contour>
        <pt x="394" y="566" on="1"/>
        <pt x="346" y="594" on="0"/>
        <pt x="214" y="594" on="0"/>
        <pt x="173" y="560" on="1"/>
        <pt x="172" y="546" on="0"/>
        <pt x="172" y="533" on="1"/>
        <pt x="172" y="373" on="0"/>
        <pt x="343" y="373" on="1"/>
        <pt x="338" y="336" on="1"/>
        <pt x="326" y="336" on="1"/>
        <pt x="247" y="336" on="0"/>
        <pt x="144" y="273" on="0"/>
        <pt x="144" y="133" on="0"/>
        <pt x="240" y="56" on="0"/>
        <pt x="370" y="56" on="0"/>
        <pt x="407" y="80" on="1"/>
        <pt x="414" y="94" on="0"/>
        <pt x="414" y="154" on="0"/>
        <pt x="404" y="165" on="1"/>
        <pt x="405" y="172" on="1"/>
        <pt x="430" y="187" on="0"/>
        <pt x="455" y="214" on="1"/>
        <pt x="467" y="213" on="0"/>
        <pt x="482" y="195" on="0"/>
        <pt x="482" y="183" on="1"/>
        <pt x="482" y="122" on="0"/>
        <pt x="367" y="7" on="0"/>
        <pt x="299" y="-15" on="1"/>
        <pt x="192" y="-15" on="0"/>
        <pt x="50" y="89" on="0"/>
        <pt x="50" y="185" on="1"/>
        <pt x="50" y="254" on="0"/>
        <pt x="166" y="346" on="0"/>
        <pt x="240" y="346" on="1"/>
        <pt x="240" y="350" on="1"/>
        <pt x="172" y="354" on="0"/>
        <pt x="81" y="422" on="0"/>
        <pt x="81" y="482" on="1"/>
        <pt x="117" y="546" on="0"/>
        <pt x="236" y="648" on="0"/>
        <pt x="304" y="666" on="1"/>
        <pt x="375" y="666" on="0"/>
        <pt x="444" y="647" on="1"/>
        <pt x="460" y="655" on="0"/>
        <pt x="485" y="678" on="1"/>
        <pt x="506" y="664" on="1"/>
        <pt x="440" y="584" on="0"/>
        <pt x="425" y="473" on="1"/>
        <pt x="399" y="473" on="1"/>
        <pt x="399" y="528" on="0"/>
      </contour>
    </TTGlyph>
    <TTGlyph name="Ecircumflex" xMin="50" yMin="-15" xMax="506" yMax="885">
      <contour>
        <pt x="464" y="715" on="1"/>
        <pt x="303" y="790" on="1"/>
        <pt x="142" y="715" on="1"/>
        <pt x="132" y="734" on="1"/>
        <pt x="224" y="792" on="0"/>
        <pt x="293" y="885" on="1"/>
        <pt x="313" y="885" on="1"/>
        <pt x="382" y="792" on="0"/>
        <pt x="474" y="734" on="1"/>
      </contour>
      <contour>
        <pt x="394" y="566" on="1"/>
        <pt x="346" y="594" on="0"/>
        <pt x="214" y="594" on="0"/>
        <pt x="173" y="560" on="1"/>
        <pt x="172" y="546" on="0"/>
        <pt x="172" y="533" on="1"/>
        <pt x="172" y="373" on="0"/>
        <pt x="343" y="373" on="1"/>
        <pt x="338" y="336" on="1"/>
        <pt x="326" y="336" on="1"/>
        <pt x="247" y="336" on="0"/>
        <pt x="144" y="273" on="0"/>
        <pt x="144" y="133" on="0"/>
        <pt x="240" y="56" on="0"/>
        <pt x="370" y="56" on="0"/>
        <pt x="407" y="80" on="1"/>
        <pt x="414" y="94" on="0"/>
        <pt x="414" y="154" on="0"/>
        <pt x="404" y="165" on="1"/>
        <pt x="405" y="172" on="1"/>
        <pt x="430" y="187" on="0"/>
        <pt x="455" y="214" on="1"/>
        <pt x="467" y="213" on="0"/>
        <pt x="482" y="195" on="0"/>
        <pt x="482" y="183" on="1"/>
        <pt x="482" y="122" on="0"/>
        <pt x="367" y="7" on="0"/>
        <pt x="299" y="-15" on="1"/>
        <pt x="192" y="-15" on="0"/>
        <pt x="50" y="89" on="0"/>
        <pt x="50" y="185" on="1"/>
        <pt x="50" y="254" on="0"/>
        <pt x="166" y="346" on="0"/>
        <pt x="240" y="346" on="1"/>
        <pt x="240" y="350" on="1"/>
        <pt x="172" y="354" on="0"/>
        <pt x="81" y="422" on="0"/>
        <pt x="81" y="482" on="1"/>
        <pt x="117" y="546" on="0"/>
        <pt x="236" y="648" on="0"/>
        <pt x="304" y="666" on="1"/>
        <pt x="375" y="666" on="0"/>
        <pt x="444" y="647" on="1"/>
        <pt x="460" y="655" on="0"/>
        <pt x="485" y="678" on="1"/>
        <pt x="506" y="664" on="1"/>
        <pt x="440" y="584" on="0"/>
        <pt x="425" y="473" on="1"/>
        <pt x="399" y="473" on="1"/>
        <pt x="399" y="528" on="0"/>
      </contour>
    </TTGlyph>
    <TTGlyph name="Edieresis" xMin="50" yMin="-15" xMax="506" yMax="853">
      <contour>
        <pt x="266" y="803" on="1"/>
        <pt x="259" y="790" on="0"/>
        <pt x="224" y="750" on="0"/>
        <pt x="212" y="742" on="1"/>
        <pt x="200" y="750" on="0"/>
        <pt x="165" y="790" on="0"/>
        <pt x="158" y="803" on="1"/>
        <pt x="164" y="815" on="0"/>
        <pt x="198" y="846" on="0"/>
        <pt x="212" y="853" on="1"/>
        <pt x="225" y="845" on="0"/>
        <pt x="259" y="814" on="0"/>
      </contour>
      <contour>
        <pt x="451" y="803" on="1"/>
        <pt x="444" y="790" on="0"/>
        <pt x="409" y="750" on="0"/>
        <pt x="397" y="742" on="1"/>
        <pt x="385" y="750" on="0"/>
        <pt x="350" y="790" on="0"/>
        <pt x="343" y="803" on="1"/>
        <pt x="349" y="815" on="0"/>
        <pt x="383" y="846" on="0"/>
        <pt x="397" y="853" on="1"/>
        <pt x="410" y="845" on="0"/>
        <pt x="444" y="814" on="0"/>
      </contour>
      <contour>
        <pt x="394" y="566" on="1"/>
        <pt x="346" y="594" on="0"/>
        <pt x="214" y="594" on="0"/>
        <pt x="173" y="560" on="1"/>
        <pt x="172" y="546" on="0"/>
        <pt x="172" y="533" on="1"/>
        <pt x="172" y="373" on="0"/>
        <pt x="343" y="373" on="1"/>
        <pt x="338" y="336" on="1"/>
        <pt x="326" y="336" on="1"/>
        <pt x="247" y="336" on="0"/>
        <pt x="144" y="273" on="0"/>
        <pt x="144" y="133" on="0"/>
        <pt x="240" y="56" on="0"/>
        <pt x="370" y="56" on="0"/>
        <pt x="407" y="80" on="1"/>
        <pt x="414" y="94" on="0"/>
        <pt x="414" y="154" on="0"/>
        <pt x="404" y="165" on="1"/>
        <pt x="405" y="172" on="1"/>
        <pt x="430" y="187" on="0"/>
        <pt x="455" y="214" on="1"/>
        <pt x="467" y="213" on="0"/>
        <pt x="482" y="195" on="0"/>
        <pt x="482" y="183" on="1"/>
        <pt x="482" y="122" on="0"/>
        <pt x="367" y="7" on="0"/>
        <pt x="299" y="-15" on="1"/>
        <pt x="192" y="-15" on="0"/>
        <pt x="50" y="89" on="0"/>
        <pt x="50" y="185" on="1"/>
        <pt x="50" y="254" on="0"/>
        <pt x="166" y="346" on="0"/>
        <pt x="240" y="346" on="1"/>
        <pt x="240" y="350" on="1"/>
        <pt x="172" y="354" on="0"/>
        <pt x="81" y="422" on="0"/>
        <pt x="81" y="482" on="1"/>
        <pt x="117" y="546" on="0"/>
        <pt x="236" y="648" on="0"/>
        <pt x="304" y="666" on="1"/>
        <pt x="375" y="666" on="0"/>
        <pt x="444" y="647" on="1"/>
        <pt x="460" y="655" on="0"/>
        <pt x="485" y="678" on="1"/>
        <pt x="506" y="664" on="1"/>
        <pt x="440" y="584" on="0"/>
        <pt x="425" y="473" on="1"/>
        <pt x="399" y="473" on="1"/>
        <pt x="399" y="528" on="0"/>
      </contour>
    </TTGlyph>
    <TTGlyph name="Egrave" xMin="51" yMin="-15" xMax="507" yMax="877">
      <contour>
        <pt x="335" y="731" on="1"/>
        <pt x="129" y="806" on="1"/>
        <pt x="128" y="816" on="0"/>
        <pt x="139" y="859" on="0"/>
        <pt x="144" y="868" on="1"/>
        <pt x="164" y="875" on="0"/>
        <pt x="186" y="877" on="1"/>
        <pt x="261" y="787" on="0"/>
        <pt x="343" y="751" on="1"/>
      </contour>
      <contour>
        <pt x="395" y="566" on="1"/>
        <pt x="347" y="594" on="0"/>
        <pt x="215" y="594" on="0"/>
        <pt x="174" y="560" on="1"/>
        <pt x="173" y="546" on="0"/>
        <pt x="173" y="533" on="1"/>
        <pt x="173" y="373" on="0"/>
        <pt x="344" y="373" on="1"/>
        <pt x="339" y="336" on="1"/>
        <pt x="327" y="336" on="1"/>
        <pt x="248" y="336" on="0"/>
        <pt x="145" y="273" on="0"/>
        <pt x="145" y="133" on="0"/>
        <pt x="241" y="56" on="0"/>
        <pt x="371" y="56" on="0"/>
        <pt x="408" y="80" on="1"/>
        <pt x="415" y="94" on="0"/>
        <pt x="415" y="154" on="0"/>
        <pt x="405" y="165" on="1"/>
        <pt x="406" y="172" on="1"/>
        <pt x="431" y="187" on="0"/>
        <pt x="456" y="214" on="1"/>
        <pt x="468" y="213" on="0"/>
        <pt x="483" y="195" on="0"/>
        <pt x="483" y="183" on="1"/>
        <pt x="483" y="122" on="0"/>
        <pt x="368" y="7" on="0"/>
        <pt x="300" y="-15" on="1"/>
        <pt x="193" y="-15" on="0"/>
        <pt x="51" y="89" on="0"/>
        <pt x="51" y="185" on="1"/>
        <pt x="51" y="254" on="0"/>
        <pt x="167" y="346" on="0"/>
        <pt x="241" y="346" on="1"/>
        <pt x="241" y="350" on="1"/>
        <pt x="173" y="354" on="0"/>
        <pt x="82" y="422" on="0"/>
        <pt x="82" y="482" on="1"/>
        <pt x="118" y="546" on="0"/>
        <pt x="237" y="648" on="0"/>
        <pt x="305" y="666" on="1"/>
        <pt x="376" y="666" on="0"/>
        <pt x="445" y="647" on="1"/>
        <pt x="461" y="655" on="0"/>
        <pt x="486" y="678" on="1"/>
        <pt x="507" y="664" on="1"/>
        <pt x="441" y="584" on="0"/>
        <pt x="426" y="473" on="1"/>
        <pt x="400" y="473" on="1"/>
        <pt x="400" y="528" on="0"/>
      </contour>
    </TTGlyph>
    <TTGlyph name="Eth" xMin="-100" yMin="-22" xMax="578" yMax="659">
      <contour>
        <pt x="-25" y="566" on="1"/>
        <pt x="-32" y="552" on="0"/>
        <pt x="-32" y="492" on="0"/>
        <pt x="-22" y="481" on="1"/>
        <pt x="-23" y="474" on="1"/>
        <pt x="-48" y="459" on="0"/>
        <pt x="-73" y="432" on="1"/>
        <pt x="-85" y="433" on="0"/>
        <pt x="-100" y="451" on="0"/>
        <pt x="-100" y="463" on="1"/>
        <pt x="-100" y="509" on="0"/>
        <pt x="5" y="635" on="0"/>
        <pt x="53" y="659" on="1"/>
        <pt x="138" y="651" on="0"/>
        <pt x="305" y="651" on="1"/>
        <pt x="578" y="651" on="0"/>
        <pt x="578" y="386" on="1"/>
        <pt x="578" y="247" on="0"/>
        <pt x="432" y="21" on="0"/>
        <pt x="307" y="-15" on="1"/>
        <pt x="235" y="-15" on="0"/>
        <pt x="146" y="23" on="1"/>
        <pt x="129" y="-3" on="0"/>
        <pt x="123" y="-22" on="1"/>
        <pt x="102" y="-17" on="1"/>
        <pt x="126" y="91" on="0"/>
        <pt x="126" y="324" on="1"/>
        <pt x="65" y="321" on="0"/>
        <pt x="19" y="315" on="1"/>
        <pt x="16" y="319" on="1"/>
        <pt x="22" y="339" on="0"/>
        <pt x="23" y="351" on="1"/>
        <pt x="126" y="354" on="1"/>
        <pt x="125" y="495" on="0"/>
        <pt x="117" y="598" on="1"/>
        <pt x="6" y="596" on="0"/>
      </contour>
      <contour>
        <pt x="208" y="85" on="1"/>
        <pt x="262" y="57" on="0"/>
        <pt x="400" y="57" on="0"/>
        <pt x="438" y="91" on="1"/>
        <pt x="489" y="184" on="0"/>
        <pt x="489" y="458" on="0"/>
        <pt x="404" y="604" on="0"/>
        <pt x="289" y="604" on="1"/>
        <pt x="243" y="604" on="0"/>
        <pt x="212" y="599" on="1"/>
        <pt x="203" y="512" on="0"/>
        <pt x="203" y="357" on="1"/>
        <pt x="264" y="359" on="1"/>
        <pt x="328" y="362" on="0"/>
        <pt x="348" y="364" on="1"/>
        <pt x="352" y="344" on="0"/>
        <pt x="357" y="333" on="1"/>
        <pt x="357" y="328" on="1"/>
        <pt x="235" y="326" on="1"/>
        <pt x="203" y="325" on="1"/>
        <pt x="203" y="173" on="0"/>
      </contour>
    </TTGlyph>
    <TTGlyph name="Euro" xMin="29" yMin="-16" xMax="422" yMax="538">
      <contour>
        <pt x="161" y="136" on="0"/>
        <pt x="213" y="57" on="0"/>
        <pt x="334" y="57" on="0"/>
        <pt x="403" y="120" on="1"/>
        <pt x="413" y="110" on="1"/>
        <pt x="353" y="23" on="0"/>
        <pt x="257" y="-16" on="1"/>
        <pt x="166" y="-16" on="0"/>
        <pt x="77" y="104" on="0"/>
        <pt x="75" y="204" on="1"/>
        <pt x="32" y="199" on="1"/>
        <pt x="29" y="203" on="1"/>
        <pt x="35" y="223" on="0"/>
        <pt x="36" y="235" on="1"/>
        <pt x="75" y="236" on="1"/>
        <pt x="76" y="252" on="0"/>
        <pt x="82" y="284" on="1"/>
        <pt x="53" y="283" on="0"/>
        <pt x="32" y="279" on="1"/>
        <pt x="29" y="283" on="1"/>
        <pt x="35" y="303" on="0"/>
        <pt x="36" y="315" on="1"/>
        <pt x="89" y="317" on="1"/>
        <pt x="112" y="397" on="0"/>
        <pt x="217" y="516" on="0"/>
        <pt x="291" y="538" on="1"/>
        <pt x="362" y="538" on="0"/>
        <pt x="422" y="522" on="1"/>
        <pt x="422" y="508" on="1"/>
        <pt x="385" y="460" on="0"/>
        <pt x="379" y="395" on="1"/>
        <pt x="357" y="395" on="1"/>
        <pt x="357" y="435" on="0"/>
        <pt x="354" y="459" on="1"/>
        <pt x="312" y="473" on="0"/>
        <pt x="224" y="473" on="0"/>
        <pt x="193" y="446" on="1"/>
        <pt x="167" y="390" on="0"/>
        <pt x="157" y="319" on="1"/>
        <pt x="285" y="324" on="1"/>
        <pt x="349" y="327" on="0"/>
        <pt x="369" y="329" on="1"/>
        <pt x="373" y="309" on="0"/>
        <pt x="378" y="298" on="1"/>
        <pt x="378" y="293" on="1"/>
        <pt x="256" y="291" on="1"/>
        <pt x="154" y="288" on="1"/>
        <pt x="154" y="271" on="1"/>
        <pt x="154" y="255" on="1"/>
        <pt x="153" y="239" on="0"/>
        <pt x="154" y="239" on="1"/>
        <pt x="285" y="244" on="1"/>
        <pt x="348" y="247" on="0"/>
        <pt x="369" y="249" on="1"/>
        <pt x="373" y="229" on="0"/>
        <pt x="378" y="218" on="1"/>
        <pt x="378" y="213" on="1"/>
        <pt x="256" y="211" on="1"/>
        <pt x="156" y="208" on="1"/>
      </contour>
    </TTGlyph>
    <TTGlyph name="F" xMin="-110" yMin="-8" xMax="493" yMax="676">
      <contour>
        <pt x="365" y="645" on="1"/>
        <pt x="444" y="645" on="0"/>
        <pt x="474" y="676" on="1"/>
        <pt x="493" y="666" on="1"/>
        <pt x="450" y="588" on="0"/>
        <pt x="443" y="484" on="1"/>
        <pt x="418" y="484" on="1"/>
        <pt x="409" y="527" on="0"/>
        <pt x="409" y="593" on="1"/>
        <pt x="383" y="585" on="0"/>
        <pt x="305" y="585" on="0"/>
        <pt x="215" y="593" on="1"/>
        <pt x="207" y="519" on="0"/>
        <pt x="207" y="366" on="1"/>
        <pt x="250" y="358" on="0"/>
        <pt x="291" y="358" on="1"/>
        <pt x="369" y="358" on="0"/>
        <pt x="390" y="401" on="1"/>
        <pt x="410" y="397" on="1"/>
        <pt x="401" y="365" on="0"/>
        <pt x="401" y="276" on="0"/>
        <pt x="407" y="233" on="1"/>
        <pt x="384" y="229" on="1"/>
        <pt x="369" y="267" on="0"/>
        <pt x="364" y="318" on="1"/>
        <pt x="327" y="321" on="0"/>
        <pt x="247" y="321" on="0"/>
        <pt x="207" y="316" on="1"/>
        <pt x="208" y="112" on="0"/>
        <pt x="220" y="35" on="1"/>
        <pt x="270" y="30" on="0"/>
        <pt x="330" y="16" on="1"/>
        <pt x="327" y="-8" on="1"/>
        <pt x="253" y="0" on="0"/>
        <pt x="80" y="0" on="0"/>
        <pt x="27" y="-8" on="1"/>
        <pt x="23" y="17" on="1"/>
        <pt x="68" y="31" on="0"/>
        <pt x="119" y="38" on="1"/>
        <pt x="130" y="120" on="0"/>
        <pt x="130" y="296" on="1"/>
        <pt x="130" y="355" on="1"/>
        <pt x="130" y="454" on="0"/>
        <pt x="118" y="598" on="1"/>
        <pt x="116" y="598" on="1"/>
        <pt x="-2" y="598" on="0"/>
        <pt x="-35" y="566" on="1"/>
        <pt x="-42" y="552" on="0"/>
        <pt x="-42" y="492" on="0"/>
        <pt x="-32" y="481" on="1"/>
        <pt x="-33" y="474" on="1"/>
        <pt x="-58" y="459" on="0"/>
        <pt x="-83" y="432" on="1"/>
        <pt x="-95" y="433" on="0"/>
        <pt x="-110" y="451" on="0"/>
        <pt x="-110" y="463" on="1"/>
        <pt x="-110" y="512" on="0"/>
        <pt x="8" y="648" on="0"/>
        <pt x="59" y="666" on="1"/>
        <pt x="129" y="663" on="0"/>
        <pt x="316" y="645" on="0"/>
      </contour>
    </TTGlyph>
    <TTGlyph name="G" xMin="42" yMin="-200" xMax="525" yMax="666">
      <contour>
        <pt x="305" y="66" on="1"/>
        <pt x="352" y="66" on="0"/>
        <pt x="403" y="94" on="1"/>
        <pt x="403" y="176" on="1"/>
        <pt x="403" y="199" on="0"/>
        <pt x="399" y="243" on="1"/>
        <pt x="364" y="253" on="0"/>
        <pt x="308" y="263" on="1"/>
        <pt x="311" y="284" on="1"/>
        <pt x="334" y="281" on="0"/>
        <pt x="355" y="281" on="1"/>
        <pt x="443" y="281" on="0"/>
        <pt x="516" y="330" on="1"/>
        <pt x="525" y="312" on="1"/>
        <pt x="502" y="294" on="0"/>
        <pt x="489" y="276" on="1"/>
        <pt x="470" y="102" on="0"/>
        <pt x="469" y="-49" on="1"/>
        <pt x="440" y="-102" on="0"/>
        <pt x="307" y="-200" on="0"/>
        <pt x="252" y="-200" on="1"/>
        <pt x="237" y="-200" on="0"/>
        <pt x="217" y="-184" on="0"/>
        <pt x="217" y="-170" on="1"/>
        <pt x="246" y="-148" on="0"/>
        <pt x="266" y="-119" on="1"/>
        <pt x="273" y="-118" on="1"/>
        <pt x="295" y="-135" on="0"/>
        <pt x="353" y="-135" on="0"/>
        <pt x="364" y="-129" on="1"/>
        <pt x="405" y="-74" on="0"/>
        <pt x="405" y="51" on="1"/>
        <pt x="350" y="8" on="0"/>
        <pt x="283" y="-15" on="1"/>
        <pt x="163" y="-15" on="0"/>
        <pt x="42" y="136" on="0"/>
        <pt x="42" y="403" on="0"/>
        <pt x="189" y="632" on="0"/>
        <pt x="313" y="666" on="1"/>
        <pt x="417" y="666" on="0"/>
        <pt x="522" y="647" on="1"/>
        <pt x="521" y="625" on="1"/>
        <pt x="496" y="625" on="0"/>
        <pt x="473" y="616" on="1"/>
        <pt x="446" y="553" on="0"/>
        <pt x="440" y="475" on="1"/>
        <pt x="415" y="475" on="1"/>
        <pt x="406" y="516" on="0"/>
        <pt x="406" y="568" on="1"/>
        <pt x="359" y="594" on="0"/>
        <pt x="223" y="594" on="0"/>
        <pt x="182" y="560" on="1"/>
        <pt x="131" y="473" on="0"/>
        <pt x="131" y="339" on="1"/>
        <pt x="131" y="66" on="0"/>
      </contour>
    </TTGlyph>
    <TTGlyph name="H" xMin="-108" yMin="-8" xMax="744" yMax="858">
      <contour>
        <pt x="578" y="652" on="1"/>
        <pt x="578" y="296" on="1"/>
        <pt x="578" y="109" on="0"/>
        <pt x="591" y="35" on="1"/>
        <pt x="644" y="30" on="0"/>
        <pt x="701" y="16" on="1"/>
        <pt x="698" y="-8" on="1"/>
        <pt x="634" y="0" on="0"/>
        <pt x="459" y="0" on="0"/>
        <pt x="398" y="-8" on="1"/>
        <pt x="394" y="17" on="1"/>
        <pt x="439" y="31" on="0"/>
        <pt x="490" y="38" on="1"/>
        <pt x="500" y="139" on="0"/>
        <pt x="501" y="328" on="1"/>
        <pt x="427" y="335" on="0"/>
        <pt x="281" y="335" on="0"/>
        <pt x="207" y="328" on="1"/>
        <pt x="208" y="114" on="0"/>
        <pt x="220" y="35" on="1"/>
        <pt x="273" y="30" on="0"/>
        <pt x="330" y="16" on="1"/>
        <pt x="327" y="-8" on="1"/>
        <pt x="253" y="0" on="0"/>
        <pt x="80" y="0" on="0"/>
        <pt x="27" y="-8" on="1"/>
        <pt x="23" y="17" on="1"/>
        <pt x="68" y="31" on="0"/>
        <pt x="119" y="38" on="1"/>
        <pt x="130" y="120" on="0"/>
        <pt x="130" y="296" on="1"/>
        <pt x="130" y="355" on="1"/>
        <pt x="130" y="486" on="0"/>
        <pt x="119" y="596" on="1"/>
        <pt x="118" y="596" on="1"/>
        <pt x="0" y="596" on="0"/>
        <pt x="-33" y="564" on="1"/>
        <pt x="-40" y="550" on="0"/>
        <pt x="-40" y="490" on="0"/>
        <pt x="-30" y="479" on="1"/>
        <pt x="-31" y="472" on="1"/>
        <pt x="-56" y="457" on="0"/>
        <pt x="-81" y="430" on="1"/>
        <pt x="-93" y="431" on="0"/>
        <pt x="-108" y="449" on="0"/>
        <pt x="-108" y="461" on="1"/>
        <pt x="-108" y="510" on="0"/>
        <pt x="10" y="646" on="0"/>
        <pt x="61" y="664" on="1"/>
        <pt x="69" y="664" on="0"/>
        <pt x="197" y="651" on="0"/>
        <pt x="270" y="651" on="0"/>
        <pt x="301" y="657" on="1"/>
        <pt x="305" y="632" on="1"/>
        <pt x="266" y="617" on="0"/>
        <pt x="216" y="605" on="1"/>
        <pt x="209" y="530" on="0"/>
        <pt x="207" y="382" on="1"/>
        <pt x="283" y="372" on="0"/>
        <pt x="433" y="372" on="0"/>
        <pt x="501" y="381" on="1"/>
        <pt x="500" y="560" on="0"/>
        <pt x="492" y="653" on="1"/>
        <pt x="511" y="714" on="0"/>
        <pt x="658" y="858" on="0"/>
        <pt x="713" y="858" on="1"/>
        <pt x="725" y="858" on="0"/>
        <pt x="744" y="843" on="0"/>
        <pt x="744" y="831" on="1"/>
        <pt x="717" y="806" on="0"/>
        <pt x="702" y="781" on="1"/>
        <pt x="695" y="780" on="1"/>
        <pt x="684" y="790" on="0"/>
        <pt x="624" y="790" on="0"/>
        <pt x="610" y="783" on="1"/>
        <pt x="578" y="746" on="0"/>
      </contour>
    </TTGlyph>
    <TTGlyph name="I" xMin="21" yMin="-8" xMax="330" yMax="659">
      <contour>
        <pt x="218" y="616" on="1"/>
        <pt x="207" y="541" on="0"/>
        <pt x="207" y="131" on="0"/>
        <pt x="220" y="35" on="1"/>
        <pt x="273" y="30" on="0"/>
        <pt x="330" y="16" on="1"/>
        <pt x="327" y="-8" on="1"/>
        <pt x="253" y="0" on="0"/>
        <pt x="80" y="0" on="0"/>
        <pt x="27" y="-8" on="1"/>
        <pt x="23" y="17" on="1"/>
        <pt x="68" y="31" on="0"/>
        <pt x="119" y="38" on="1"/>
        <pt x="130" y="120" on="0"/>
        <pt x="130" y="296" on="1"/>
        <pt x="130" y="355" on="1"/>
        <pt x="130" y="517" on="0"/>
        <pt x="117" y="613" on="1"/>
        <pt x="66" y="620" on="0"/>
        <pt x="21" y="634" on="1"/>
        <pt x="25" y="659" on="1"/>
        <pt x="78" y="651" on="0"/>
        <pt x="251" y="651" on="0"/>
        <pt x="325" y="659" on="1"/>
        <pt x="328" y="635" on="1"/>
        <pt x="271" y="621" on="0"/>
      </contour>
    </TTGlyph>
    <TTGlyph name="IJ" xMin="21" yMin="-180" xMax="653" yMax="659">
      <contour>
        <pt x="349" y="659" on="1"/>
        <pt x="423" y="651" on="0"/>
        <pt x="596" y="651" on="0"/>
        <pt x="649" y="659" on="1"/>
        <pt x="653" y="634" on="1"/>
        <pt x="608" y="620" on="0"/>
        <pt x="557" y="613" on="1"/>
        <pt x="544" y="517" on="0"/>
        <pt x="544" y="355" on="1"/>
        <pt x="544" y="296" on="1"/>
        <pt x="544" y="111" on="0"/>
        <pt x="552" y="33" on="1"/>
        <pt x="496" y="-93" on="0"/>
        <pt x="346" y="-180" on="1"/>
        <pt x="329" y="-161" on="1"/>
        <pt x="405" y="-97" on="0"/>
        <pt x="467" y="50" on="0"/>
        <pt x="467" y="154" on="1"/>
        <pt x="467" y="355" on="1"/>
        <pt x="467" y="541" on="0"/>
        <pt x="456" y="616" on="1"/>
        <pt x="403" y="621" on="0"/>
        <pt x="346" y="635" on="1"/>
      </contour>
      <contour>
        <pt x="218" y="616" on="1"/>
        <pt x="207" y="541" on="0"/>
        <pt x="207" y="131" on="0"/>
        <pt x="220" y="35" on="1"/>
        <pt x="273" y="30" on="0"/>
        <pt x="330" y="16" on="1"/>
        <pt x="327" y="-8" on="1"/>
        <pt x="253" y="0" on="0"/>
        <pt x="80" y="0" on="0"/>
        <pt x="27" y="-8" on="1"/>
        <pt x="23" y="17" on="1"/>
        <pt x="68" y="31" on="0"/>
        <pt x="119" y="38" on="1"/>
        <pt x="130" y="120" on="0"/>
        <pt x="130" y="296" on="1"/>
        <pt x="130" y="355" on="1"/>
        <pt x="130" y="517" on="0"/>
        <pt x="117" y="613" on="1"/>
        <pt x="66" y="620" on="0"/>
        <pt x="21" y="634" on="1"/>
        <pt x="25" y="659" on="1"/>
        <pt x="78" y="651" on="0"/>
        <pt x="251" y="651" on="0"/>
        <pt x="325" y="659" on="1"/>
        <pt x="328" y="635" on="1"/>
        <pt x="271" y="621" on="0"/>
      </contour>
    </TTGlyph>
    <TTGlyph name="Iacute" xMin="21" yMin="-8" xMax="330" yMax="868">
      <contour>
        <pt x="315" y="797" on="1"/>
        <pt x="109" y="722" on="1"/>
        <pt x="101" y="742" on="1"/>
        <pt x="183" y="778" on="0"/>
        <pt x="258" y="868" on="1"/>
        <pt x="280" y="866" on="0"/>
        <pt x="300" y="859" on="1"/>
        <pt x="305" y="850" on="0"/>
        <pt x="316" y="807" on="0"/>
      </contour>
      <contour>
        <pt x="218" y="616" on="1"/>
        <pt x="207" y="541" on="0"/>
        <pt x="207" y="131" on="0"/>
        <pt x="220" y="35" on="1"/>
        <pt x="273" y="30" on="0"/>
        <pt x="330" y="16" on="1"/>
        <pt x="327" y="-8" on="1"/>
        <pt x="253" y="0" on="0"/>
        <pt x="80" y="0" on="0"/>
        <pt x="27" y="-8" on="1"/>
        <pt x="23" y="17" on="1"/>
        <pt x="68" y="31" on="0"/>
        <pt x="119" y="38" on="1"/>
        <pt x="130" y="120" on="0"/>
        <pt x="130" y="296" on="1"/>
        <pt x="130" y="355" on="1"/>
        <pt x="130" y="517" on="0"/>
        <pt x="117" y="613" on="1"/>
        <pt x="66" y="620" on="0"/>
        <pt x="21" y="634" on="1"/>
        <pt x="25" y="659" on="1"/>
        <pt x="78" y="651" on="0"/>
        <pt x="251" y="651" on="0"/>
        <pt x="325" y="659" on="1"/>
        <pt x="328" y="635" on="1"/>
        <pt x="271" y="621" on="0"/>
      </contour>
    </TTGlyph>
    <TTGlyph name="Icircumflex" xMin="3" yMin="-8" xMax="345" yMax="885">
      <contour>
        <pt x="335" y="715" on="1"/>
        <pt x="174" y="790" on="1"/>
        <pt x="13" y="715" on="1"/>
        <pt x="3" y="734" on="1"/>
        <pt x="95" y="792" on="0"/>
        <pt x="164" y="885" on="1"/>
        <pt x="184" y="885" on="1"/>
        <pt x="253" y="792" on="0"/>
        <pt x="345" y="734" on="1"/>
      </contour>
      <contour>
        <pt x="218" y="616" on="1"/>
        <pt x="207" y="541" on="0"/>
        <pt x="207" y="131" on="0"/>
        <pt x="220" y="35" on="1"/>
        <pt x="273" y="30" on="0"/>
        <pt x="330" y="16" on="1"/>
        <pt x="327" y="-8" on="1"/>
        <pt x="253" y="0" on="0"/>
        <pt x="80" y="0" on="0"/>
        <pt x="27" y="-8" on="1"/>
        <pt x="23" y="17" on="1"/>
        <pt x="68" y="31" on="0"/>
        <pt x="119" y="38" on="1"/>
        <pt x="130" y="120" on="0"/>
        <pt x="130" y="296" on="1"/>
        <pt x="130" y="355" on="1"/>
        <pt x="130" y="517" on="0"/>
        <pt x="117" y="613" on="1"/>
        <pt x="66" y="620" on="0"/>
        <pt x="21" y="634" on="1"/>
        <pt x="25" y="659" on="1"/>
        <pt x="78" y="651" on="0"/>
        <pt x="251" y="651" on="0"/>
        <pt x="325" y="659" on="1"/>
        <pt x="328" y="635" on="1"/>
        <pt x="271" y="621" on="0"/>
      </contour>
      <contour>
        <pt x="218" y="616" on="1"/>
        <pt x="271" y="621" on="0"/>
        <pt x="328" y="635" on="1"/>
        <pt x="325" y="659" on="1"/>
        <pt x="251" y="651" on="0"/>
        <pt x="78" y="651" on="0"/>
        <pt x="25" y="659" on="1"/>
        <pt x="21" y="634" on="1"/>
        <pt x="66" y="620" on="0"/>
        <pt x="117" y="613" on="1"/>
        <pt x="130" y="517" on="0"/>
        <pt x="130" y="355" on="1"/>
        <pt x="130" y="296" on="1"/>
        <pt x="130" y="120" on="0"/>
        <pt x="119" y="38" on="1"/>
        <pt x="68" y="31" on="0"/>
        <pt x="23" y="17" on="1"/>
        <pt x="27" y="-8" on="1"/>
        <pt x="80" y="0" on="0"/>
        <pt x="253" y="0" on="0"/>
        <pt x="327" y="-8" on="1"/>
        <pt x="330" y="16" on="1"/>
        <pt x="273" y="30" on="0"/>
        <pt x="220" y="35" on="1"/>
        <pt x="207" y="131" on="0"/>
        <pt x="207" y="541" on="0"/>
      </contour>
    </TTGlyph>
    <TTGlyph name="Idieresis" xMin="21" yMin="-8" xMax="330" yMax="853">
      <contour>
        <pt x="135" y="803" on="1"/>
        <pt x="128" y="790" on="0"/>
        <pt x="93" y="750" on="0"/>
        <pt x="81" y="742" on="1"/>
        <pt x="69" y="750" on="0"/>
        <pt x="34" y="790" on="0"/>
        <pt x="27" y="803" on="1"/>
        <pt x="33" y="815" on="0"/>
        <pt x="67" y="846" on="0"/>
        <pt x="81" y="853" on="1"/>
        <pt x="94" y="845" on="0"/>
        <pt x="128" y="814" on="0"/>
      </contour>
      <contour>
        <pt x="320" y="803" on="1"/>
        <pt x="313" y="790" on="0"/>
        <pt x="278" y="750" on="0"/>
        <pt x="266" y="742" on="1"/>
        <pt x="254" y="750" on="0"/>
        <pt x="219" y="790" on="0"/>
        <pt x="212" y="803" on="1"/>
        <pt x="218" y="815" on="0"/>
        <pt x="252" y="846" on="0"/>
        <pt x="266" y="853" on="1"/>
        <pt x="279" y="845" on="0"/>
        <pt x="313" y="814" on="0"/>
      </contour>
      <contour>
        <pt x="218" y="616" on="1"/>
        <pt x="207" y="541" on="0"/>
        <pt x="207" y="131" on="0"/>
        <pt x="220" y="35" on="1"/>
        <pt x="273" y="30" on="0"/>
        <pt x="330" y="16" on="1"/>
        <pt x="327" y="-8" on="1"/>
        <pt x="253" y="0" on="0"/>
        <pt x="80" y="0" on="0"/>
        <pt x="27" y="-8" on="1"/>
        <pt x="23" y="17" on="1"/>
        <pt x="68" y="31" on="0"/>
        <pt x="119" y="38" on="1"/>
        <pt x="130" y="120" on="0"/>
        <pt x="130" y="296" on="1"/>
        <pt x="130" y="355" on="1"/>
        <pt x="130" y="517" on="0"/>
        <pt x="117" y="613" on="1"/>
        <pt x="66" y="620" on="0"/>
        <pt x="21" y="634" on="1"/>
        <pt x="25" y="659" on="1"/>
        <pt x="78" y="651" on="0"/>
        <pt x="251" y="651" on="0"/>
        <pt x="325" y="659" on="1"/>
        <pt x="328" y="635" on="1"/>
        <pt x="271" y="621" on="0"/>
      </contour>
    </TTGlyph>
    <TTGlyph name="Igrave" xMin="21" yMin="-8" xMax="330" yMax="877">
      <contour>
        <pt x="229" y="731" on="1"/>
        <pt x="23" y="806" on="1"/>
        <pt x="22" y="816" on="0"/>
        <pt x="33" y="859" on="0"/>
        <pt x="38" y="868" on="1"/>
        <pt x="58" y="875" on="0"/>
        <pt x="80" y="877" on="1"/>
        <pt x="155" y="787" on="0"/>
        <pt x="237" y="751" on="1"/>
      </contour>
      <contour>
        <pt x="218" y="616" on="1"/>
        <pt x="207" y="541" on="0"/>
        <pt x="207" y="131" on="0"/>
        <pt x="220" y="35" on="1"/>
        <pt x="273" y="30" on="0"/>
        <pt x="330" y="16" on="1"/>
        <pt x="327" y="-8" on="1"/>
        <pt x="253" y="0" on="0"/>
        <pt x="80" y="0" on="0"/>
        <pt x="27" y="-8" on="1"/>
        <pt x="23" y="17" on="1"/>
        <pt x="68" y="31" on="0"/>
        <pt x="119" y="38" on="1"/>
        <pt x="130" y="120" on="0"/>
        <pt x="130" y="296" on="1"/>
        <pt x="130" y="355" on="1"/>
        <pt x="130" y="517" on="0"/>
        <pt x="117" y="613" on="1"/>
        <pt x="66" y="620" on="0"/>
        <pt x="21" y="634" on="1"/>
        <pt x="25" y="659" on="1"/>
        <pt x="78" y="651" on="0"/>
        <pt x="251" y="651" on="0"/>
        <pt x="325" y="659" on="1"/>
        <pt x="328" y="635" on="1"/>
        <pt x="271" y="621" on="0"/>
      </contour>
    </TTGlyph>
    <TTGlyph name="Itilde" xMin="4" yMin="-8" xMax="334" yMax="844">
      <contour>
        <pt x="218" y="616" on="1"/>
        <pt x="207" y="541" on="0"/>
        <pt x="207" y="131" on="0"/>
        <pt x="220" y="35" on="1"/>
        <pt x="273" y="30" on="0"/>
        <pt x="330" y="16" on="1"/>
        <pt x="327" y="-8" on="1"/>
        <pt x="253" y="0" on="0"/>
        <pt x="80" y="0" on="0"/>
        <pt x="27" y="-8" on="1"/>
        <pt x="23" y="17" on="1"/>
        <pt x="68" y="31" on="0"/>
        <pt x="119" y="38" on="1"/>
        <pt x="130" y="120" on="0"/>
        <pt x="130" y="296" on="1"/>
        <pt x="130" y="355" on="1"/>
        <pt x="130" y="517" on="0"/>
        <pt x="117" y="613" on="1"/>
        <pt x="66" y="620" on="0"/>
        <pt x="21" y="634" on="1"/>
        <pt x="25" y="659" on="1"/>
        <pt x="78" y="651" on="0"/>
        <pt x="251" y="651" on="0"/>
        <pt x="325" y="659" on="1"/>
        <pt x="328" y="635" on="1"/>
        <pt x="271" y="621" on="0"/>
      </contour>
      <contour>
        <pt x="132" y="844" on="1"/>
        <pt x="191" y="813" on="0"/>
        <pt x="296" y="813" on="0"/>
        <pt x="316" y="837" on="1"/>
        <pt x="334" y="826" on="1"/>
        <pt x="278" y="765" on="0"/>
        <pt x="230" y="744" on="1"/>
        <pt x="209" y="744" on="0"/>
        <pt x="106" y="775" on="0"/>
        <pt x="85" y="775" on="1"/>
        <pt x="42" y="775" on="0"/>
        <pt x="22" y="751" on="1"/>
        <pt x="4" y="762" on="1"/>
        <pt x="60" y="823" on="0"/>
      </contour>
    </TTGlyph>
    <TTGlyph name="J" xMin="-105" yMin="-181" xMax="308" yMax="664">
      <contour>
        <pt x="207" y="355" on="1"/>
        <pt x="207" y="296" on="1"/>
        <pt x="207" y="111" on="0"/>
        <pt x="215" y="33" on="1"/>
        <pt x="148" y="-102" on="0"/>
        <pt x="-32" y="-181" on="1"/>
        <pt x="-44" y="-160" on="1"/>
        <pt x="51" y="-95" on="0"/>
        <pt x="130" y="44" on="0"/>
        <pt x="130" y="154" on="1"/>
        <pt x="130" y="355" on="1"/>
        <pt x="130" y="506" on="0"/>
        <pt x="121" y="596" on="1"/>
        <pt x="3" y="596" on="0"/>
        <pt x="-30" y="564" on="1"/>
        <pt x="-37" y="550" on="0"/>
        <pt x="-37" y="490" on="0"/>
        <pt x="-27" y="479" on="1"/>
        <pt x="-28" y="472" on="1"/>
        <pt x="-53" y="457" on="0"/>
        <pt x="-78" y="430" on="1"/>
        <pt x="-90" y="431" on="0"/>
        <pt x="-105" y="449" on="0"/>
        <pt x="-105" y="461" on="1"/>
        <pt x="-105" y="510" on="0"/>
        <pt x="13" y="646" on="0"/>
        <pt x="64" y="664" on="1"/>
        <pt x="72" y="664" on="0"/>
        <pt x="200" y="651" on="0"/>
        <pt x="272" y="651" on="0"/>
        <pt x="304" y="657" on="1"/>
        <pt x="308" y="632" on="1"/>
        <pt x="269" y="617" on="0"/>
        <pt x="219" y="605" on="1"/>
        <pt x="207" y="497" on="0"/>
      </contour>
    </TTGlyph>
    <TTGlyph name="Jcircumflex" xMin="-105" yMin="-181" xMax="335" yMax="885">
      <contour>
        <pt x="325" y="715" on="1"/>
        <pt x="164" y="790" on="1"/>
        <pt x="3" y="715" on="1"/>
        <pt x="-7" y="734" on="1"/>
        <pt x="85" y="792" on="0"/>
        <pt x="154" y="885" on="1"/>
        <pt x="174" y="885" on="1"/>
        <pt x="243" y="792" on="0"/>
        <pt x="335" y="734" on="1"/>
      </contour>
      <contour>
        <pt x="207" y="355" on="1"/>
        <pt x="207" y="296" on="1"/>
        <pt x="207" y="111" on="0"/>
        <pt x="215" y="33" on="1"/>
        <pt x="148" y="-102" on="0"/>
        <pt x="-32" y="-181" on="1"/>
        <pt x="-44" y="-160" on="1"/>
        <pt x="51" y="-95" on="0"/>
        <pt x="130" y="44" on="0"/>
        <pt x="130" y="154" on="1"/>
        <pt x="130" y="355" on="1"/>
        <pt x="130" y="506" on="0"/>
        <pt x="121" y="596" on="1"/>
        <pt x="3" y="596" on="0"/>
        <pt x="-30" y="564" on="1"/>
        <pt x="-37" y="550" on="0"/>
        <pt x="-37" y="490" on="0"/>
        <pt x="-27" y="479" on="1"/>
        <pt x="-28" y="472" on="1"/>
        <pt x="-53" y="457" on="0"/>
        <pt x="-78" y="430" on="1"/>
        <pt x="-90" y="431" on="0"/>
        <pt x="-105" y="449" on="0"/>
        <pt x="-105" y="461" on="1"/>
        <pt x="-105" y="510" on="0"/>
        <pt x="13" y="646" on="0"/>
        <pt x="64" y="664" on="1"/>
        <pt x="72" y="664" on="0"/>
        <pt x="200" y="651" on="0"/>
        <pt x="272" y="651" on="0"/>
        <pt x="304" y="657" on="1"/>
        <pt x="308" y="632" on="1"/>
        <pt x="269" y="617" on="0"/>
        <pt x="219" y="605" on="1"/>
        <pt x="207" y="497" on="0"/>
      </contour>
    </TTGlyph>
    <TTGlyph name="K" xMin="-108" yMin="-115" xMax="768" yMax="664">
      <contour>
        <pt x="207" y="350" on="1"/>
        <pt x="207" y="295" on="1"/>
        <pt x="294" y="387" on="0"/>
        <pt x="389" y="515" on="0"/>
        <pt x="410" y="569" on="0"/>
        <pt x="410" y="624" on="0"/>
        <pt x="393" y="641" on="1"/>
        <pt x="397" y="655" on="1"/>
        <pt x="428" y="651" on="0"/>
        <pt x="543" y="651" on="0"/>
        <pt x="602" y="659" on="1"/>
        <pt x="606" y="634" on="1"/>
        <pt x="561" y="620" on="0"/>
        <pt x="510" y="613" on="1"/>
        <pt x="501" y="528" on="0"/>
        <pt x="364" y="397" on="1"/>
        <pt x="538" y="23" on="1"/>
        <pt x="577" y="-61" on="0"/>
        <pt x="623" y="-82" on="1"/>
        <pt x="641" y="-82" on="0"/>
        <pt x="693" y="-56" on="0"/>
        <pt x="699" y="-43" on="1"/>
        <pt x="705" y="-41" on="1"/>
        <pt x="732" y="-59" on="0"/>
        <pt x="765" y="-69" on="1"/>
        <pt x="768" y="-75" on="0"/>
        <pt x="768" y="-96" on="0"/>
        <pt x="735" y="-115" on="0"/>
        <pt x="705" y="-115" on="1"/>
        <pt x="642" y="-115" on="0"/>
        <pt x="471" y="-45" on="0"/>
        <pt x="438" y="-8" on="1"/>
        <pt x="416" y="89" on="0"/>
        <pt x="362" y="233" on="0"/>
        <pt x="307" y="344" on="1"/>
        <pt x="251" y="293" on="0"/>
        <pt x="207" y="257" on="1"/>
        <pt x="210" y="105" on="0"/>
        <pt x="220" y="35" on="1"/>
        <pt x="273" y="30" on="0"/>
        <pt x="330" y="16" on="1"/>
        <pt x="327" y="-8" on="1"/>
        <pt x="253" y="0" on="0"/>
        <pt x="80" y="0" on="0"/>
        <pt x="27" y="-8" on="1"/>
        <pt x="23" y="17" on="1"/>
        <pt x="68" y="31" on="0"/>
        <pt x="119" y="38" on="1"/>
        <pt x="130" y="120" on="0"/>
        <pt x="130" y="296" on="1"/>
        <pt x="130" y="355" on="1"/>
        <pt x="130" y="486" on="0"/>
        <pt x="119" y="596" on="1"/>
        <pt x="118" y="596" on="1"/>
        <pt x="0" y="596" on="0"/>
        <pt x="-33" y="564" on="1"/>
        <pt x="-40" y="550" on="0"/>
        <pt x="-40" y="490" on="0"/>
        <pt x="-30" y="479" on="1"/>
        <pt x="-31" y="472" on="1"/>
        <pt x="-56" y="457" on="0"/>
        <pt x="-81" y="430" on="1"/>
        <pt x="-93" y="431" on="0"/>
        <pt x="-108" y="449" on="0"/>
        <pt x="-108" y="461" on="1"/>
        <pt x="-108" y="510" on="0"/>
        <pt x="10" y="646" on="0"/>
        <pt x="61" y="664" on="1"/>
        <pt x="69" y="664" on="0"/>
        <pt x="197" y="651" on="0"/>
        <pt x="270" y="651" on="0"/>
        <pt x="301" y="657" on="1"/>
        <pt x="305" y="632" on="1"/>
        <pt x="266" y="617" on="0"/>
        <pt x="216" y="605" on="1"/>
        <pt x="207" y="513" on="0"/>
      </contour>
    </TTGlyph>
    <TTGlyph name="L" xMin="21" yMin="-32" xMax="503" yMax="659">
      <contour>
        <pt x="218" y="616" on="1"/>
        <pt x="205" y="528" on="0"/>
        <pt x="205" y="145" on="0"/>
        <pt x="213" y="55" on="1"/>
        <pt x="247" y="53" on="0"/>
        <pt x="277" y="53" on="1"/>
        <pt x="395" y="53" on="0"/>
        <pt x="428" y="85" on="1"/>
        <pt x="435" y="99" on="0"/>
        <pt x="435" y="159" on="0"/>
        <pt x="425" y="170" on="1"/>
        <pt x="426" y="177" on="1"/>
        <pt x="451" y="192" on="0"/>
        <pt x="476" y="219" on="1"/>
        <pt x="488" y="218" on="0"/>
        <pt x="503" y="200" on="0"/>
        <pt x="503" y="188" on="1"/>
        <pt x="503" y="139" on="0"/>
        <pt x="385" y="3" on="0"/>
        <pt x="334" y="-15" on="1"/>
        <pt x="248" y="-12" on="0"/>
        <pt x="148" y="14" on="1"/>
        <pt x="134" y="-4" on="0"/>
        <pt x="125" y="-32" on="1"/>
        <pt x="104" y="-26" on="1"/>
        <pt x="125" y="75" on="0"/>
        <pt x="128" y="305" on="1"/>
        <pt x="128" y="355" on="1"/>
        <pt x="128" y="530" on="0"/>
        <pt x="117" y="613" on="1"/>
        <pt x="66" y="620" on="0"/>
        <pt x="21" y="634" on="1"/>
        <pt x="25" y="659" on="1"/>
        <pt x="78" y="651" on="0"/>
        <pt x="251" y="651" on="0"/>
        <pt x="325" y="659" on="1"/>
        <pt x="328" y="635" on="1"/>
        <pt x="268" y="621" on="0"/>
      </contour>
    </TTGlyph>
    <TTGlyph name="Ldotaccent" xMin="21" yMin="-32" xMax="503" yMax="659">
      <contour>
        <pt x="218" y="616" on="1"/>
        <pt x="205" y="528" on="0"/>
        <pt x="205" y="145" on="0"/>
        <pt x="213" y="55" on="1"/>
        <pt x="247" y="53" on="0"/>
        <pt x="277" y="53" on="1"/>
        <pt x="395" y="53" on="0"/>
        <pt x="428" y="85" on="1"/>
        <pt x="435" y="99" on="0"/>
        <pt x="435" y="159" on="0"/>
        <pt x="425" y="170" on="1"/>
        <pt x="426" y="177" on="1"/>
        <pt x="451" y="192" on="0"/>
        <pt x="476" y="219" on="1"/>
        <pt x="488" y="218" on="0"/>
        <pt x="503" y="200" on="0"/>
        <pt x="503" y="188" on="1"/>
        <pt x="503" y="139" on="0"/>
        <pt x="385" y="3" on="0"/>
        <pt x="334" y="-15" on="1"/>
        <pt x="248" y="-12" on="0"/>
        <pt x="148" y="14" on="1"/>
        <pt x="134" y="-4" on="0"/>
        <pt x="125" y="-32" on="1"/>
        <pt x="104" y="-26" on="1"/>
        <pt x="125" y="75" on="0"/>
        <pt x="128" y="305" on="1"/>
        <pt x="128" y="355" on="1"/>
        <pt x="128" y="530" on="0"/>
        <pt x="117" y="613" on="1"/>
        <pt x="66" y="620" on="0"/>
        <pt x="21" y="634" on="1"/>
        <pt x="25" y="659" on="1"/>
        <pt x="78" y="651" on="0"/>
        <pt x="251" y="651" on="0"/>
        <pt x="325" y="659" on="1"/>
        <pt x="328" y="635" on="1"/>
        <pt x="268" y="621" on="0"/>
      </contour>
      <contour>
        <pt x="424" y="354" on="1"/>
        <pt x="417" y="341" on="0"/>
        <pt x="382" y="301" on="0"/>
        <pt x="370" y="293" on="1"/>
        <pt x="358" y="301" on="0"/>
        <pt x="323" y="341" on="0"/>
        <pt x="316" y="354" on="1"/>
        <pt x="322" y="366" on="0"/>
        <pt x="356" y="397" on="0"/>
        <pt x="370" y="404" on="1"/>
        <pt x="383" y="396" on="0"/>
        <pt x="417" y="365" on="0"/>
      </contour>
    </TTGlyph>
    <TTGlyph name="Lslash" xMin="21" yMin="-32" xMax="503" yMax="659">
      <contour>
        <pt x="366" y="426" on="1"/>
        <pt x="136" y="312" on="1"/>
        <pt x="72" y="281" on="0"/>
        <pt x="33" y="253" on="1"/>
        <pt x="29" y="256" on="1"/>
        <pt x="24" y="283" on="0"/>
        <pt x="22" y="288" on="1"/>
        <pt x="269" y="414" on="1"/>
        <pt x="326" y="444" on="0"/>
        <pt x="343" y="454" on="1"/>
        <pt x="351" y="442" on="0"/>
        <pt x="364" y="430" on="1"/>
      </contour>
      <contour>
        <pt x="218" y="616" on="1"/>
        <pt x="205" y="528" on="0"/>
        <pt x="205" y="145" on="0"/>
        <pt x="213" y="55" on="1"/>
        <pt x="247" y="53" on="0"/>
        <pt x="277" y="53" on="1"/>
        <pt x="395" y="53" on="0"/>
        <pt x="428" y="85" on="1"/>
        <pt x="435" y="99" on="0"/>
        <pt x="435" y="159" on="0"/>
        <pt x="425" y="170" on="1"/>
        <pt x="426" y="177" on="1"/>
        <pt x="451" y="192" on="0"/>
        <pt x="476" y="219" on="1"/>
        <pt x="488" y="218" on="0"/>
        <pt x="503" y="200" on="0"/>
        <pt x="503" y="188" on="1"/>
        <pt x="503" y="139" on="0"/>
        <pt x="385" y="3" on="0"/>
        <pt x="334" y="-15" on="1"/>
        <pt x="248" y="-12" on="0"/>
        <pt x="148" y="14" on="1"/>
        <pt x="134" y="-4" on="0"/>
        <pt x="125" y="-32" on="1"/>
        <pt x="104" y="-26" on="1"/>
        <pt x="125" y="75" on="0"/>
        <pt x="128" y="305" on="1"/>
        <pt x="128" y="355" on="1"/>
        <pt x="128" y="530" on="0"/>
        <pt x="117" y="613" on="1"/>
        <pt x="66" y="620" on="0"/>
        <pt x="21" y="634" on="1"/>
        <pt x="25" y="659" on="1"/>
        <pt x="78" y="651" on="0"/>
        <pt x="251" y="651" on="0"/>
        <pt x="325" y="659" on="1"/>
        <pt x="328" y="635" on="1"/>
        <pt x="268" y="621" on="0"/>
      </contour>
    </TTGlyph>
    <TTGlyph name="M" xMin="-46" yMin="-8" xMax="871" yMax="664">
      <contour>
        <pt x="325" y="601" on="1"/>
        <pt x="325" y="538" on="0"/>
        <pt x="403" y="295" on="1"/>
        <pt x="435" y="195" on="1"/>
        <pt x="442" y="197" on="1"/>
        <pt x="443" y="218" on="0"/>
        <pt x="566" y="609" on="1"/>
        <pt x="566" y="619" on="0"/>
        <pt x="544" y="638" on="0"/>
        <pt x="532" y="641" on="1"/>
        <pt x="535" y="655" on="1"/>
        <pt x="585" y="651" on="0"/>
        <pt x="759" y="651" on="0"/>
        <pt x="811" y="659" on="1"/>
        <pt x="816" y="634" on="1"/>
        <pt x="768" y="619" on="0"/>
        <pt x="719" y="613" on="1"/>
        <pt x="714" y="589" on="0"/>
        <pt x="714" y="466" on="0"/>
        <pt x="747" y="96" on="0"/>
        <pt x="761" y="35" on="1"/>
        <pt x="814" y="30" on="0"/>
        <pt x="871" y="16" on="1"/>
        <pt x="868" y="-8" on="1"/>
        <pt x="794" y="0" on="0"/>
        <pt x="622" y="0" on="0"/>
        <pt x="569" y="-8" on="1"/>
        <pt x="565" y="17" on="1"/>
        <pt x="610" y="31" on="0"/>
        <pt x="661" y="38" on="1"/>
        <pt x="661" y="133" on="0"/>
        <pt x="639" y="467" on="0"/>
        <pt x="622" y="586" on="1"/>
        <pt x="619" y="587" on="1"/>
        <pt x="476" y="191" on="0"/>
        <pt x="469" y="105" on="1"/>
        <pt x="404" y="66" on="0"/>
        <pt x="372" y="29" on="1"/>
        <pt x="360" y="37" on="1"/>
        <pt x="362" y="59" on="0"/>
        <pt x="362" y="70" on="1"/>
        <pt x="362" y="187" on="0"/>
        <pt x="231" y="587" on="1"/>
        <pt x="227" y="586" on="1"/>
        <pt x="196" y="367" on="1"/>
        <pt x="176" y="224" on="0"/>
        <pt x="176" y="109" on="1"/>
        <pt x="176" y="72" on="0"/>
        <pt x="193" y="24" on="0"/>
        <pt x="219" y="10" on="1"/>
        <pt x="215" y="-4" on="1"/>
        <pt x="184" y="0" on="0"/>
        <pt x="35" y="0" on="0"/>
        <pt x="-24" y="-8" on="1"/>
        <pt x="-28" y="17" on="1"/>
        <pt x="17" y="31" on="0"/>
        <pt x="68" y="38" on="1"/>
        <pt x="180" y="596" on="1"/>
        <pt x="62" y="596" on="0"/>
        <pt x="29" y="564" on="1"/>
        <pt x="22" y="550" on="0"/>
        <pt x="22" y="490" on="0"/>
        <pt x="32" y="479" on="1"/>
        <pt x="31" y="472" on="1"/>
        <pt x="6" y="457" on="0"/>
        <pt x="-19" y="430" on="1"/>
        <pt x="-31" y="431" on="0"/>
        <pt x="-46" y="449" on="0"/>
        <pt x="-46" y="461" on="1"/>
        <pt x="-46" y="510" on="0"/>
        <pt x="72" y="646" on="0"/>
        <pt x="123" y="664" on="1"/>
        <pt x="131" y="664" on="0"/>
        <pt x="259" y="651" on="0"/>
        <pt x="330" y="651" on="0"/>
        <pt x="362" y="657" on="1"/>
        <pt x="366" y="632" on="1"/>
        <pt x="325" y="616" on="0"/>
      </contour>
    </TTGlyph>
    <TTGlyph name="N" xMin="-108" yMin="-8" xMax="688" yMax="664">
      <contour>
        <pt x="523" y="296" on="1"/>
        <pt x="523" y="467" on="0"/>
        <pt x="493" y="626" on="0"/>
        <pt x="451" y="641" on="1"/>
        <pt x="455" y="655" on="1"/>
        <pt x="486" y="651" on="0"/>
        <pt x="626" y="651" on="0"/>
        <pt x="685" y="659" on="1"/>
        <pt x="688" y="636" on="1"/>
        <pt x="617" y="619" on="0"/>
        <pt x="589" y="616" on="1"/>
        <pt x="576" y="518" on="0"/>
        <pt x="576" y="355" on="1"/>
        <pt x="576" y="296" on="1"/>
        <pt x="576" y="109" on="0"/>
        <pt x="589" y="35" on="1"/>
        <pt x="640" y="29" on="0"/>
        <pt x="685" y="17" on="1"/>
        <pt x="681" y="-8" on="1"/>
        <pt x="628" y="0" on="0"/>
        <pt x="521" y="0" on="0"/>
        <pt x="488" y="-3" on="1"/>
        <pt x="488" y="30" on="0"/>
        <pt x="358" y="258" on="0"/>
        <pt x="187" y="525" on="1"/>
        <pt x="183" y="523" on="1"/>
        <pt x="183" y="355" on="1"/>
        <pt x="183" y="110" on="0"/>
        <pt x="220" y="35" on="1"/>
        <pt x="275" y="30" on="0"/>
        <pt x="329" y="16" on="1"/>
        <pt x="327" y="-8" on="1"/>
        <pt x="253" y="0" on="0"/>
        <pt x="80" y="0" on="0"/>
        <pt x="27" y="-8" on="1"/>
        <pt x="23" y="17" on="1"/>
        <pt x="68" y="31" on="0"/>
        <pt x="119" y="38" on="1"/>
        <pt x="130" y="120" on="0"/>
        <pt x="130" y="296" on="1"/>
        <pt x="130" y="355" on="1"/>
        <pt x="130" y="496" on="0"/>
        <pt x="118" y="596" on="1"/>
        <pt x="0" y="596" on="0"/>
        <pt x="-33" y="564" on="1"/>
        <pt x="-40" y="550" on="0"/>
        <pt x="-40" y="490" on="0"/>
        <pt x="-30" y="479" on="1"/>
        <pt x="-31" y="472" on="1"/>
        <pt x="-56" y="457" on="0"/>
        <pt x="-81" y="430" on="1"/>
        <pt x="-93" y="431" on="0"/>
        <pt x="-108" y="449" on="0"/>
        <pt x="-108" y="461" on="1"/>
        <pt x="-108" y="510" on="0"/>
        <pt x="10" y="646" on="0"/>
        <pt x="61" y="664" on="1"/>
        <pt x="73" y="663" on="0"/>
        <pt x="184" y="651" on="0"/>
        <pt x="256" y="651" on="0"/>
        <pt x="287" y="657" on="1"/>
        <pt x="291" y="632" on="1"/>
        <pt x="250" y="615" on="0"/>
        <pt x="250" y="599" on="1"/>
        <pt x="255" y="572" on="0"/>
        <pt x="359" y="399" on="0"/>
        <pt x="519" y="150" on="1"/>
        <pt x="523" y="152" on="1"/>
      </contour>
    </TTGlyph>
    <TTGlyph name="Nacute" xMin="-108" yMin="-8" xMax="688" yMax="868">
      <contour>
        <pt x="554" y="797" on="1"/>
        <pt x="348" y="722" on="1"/>
        <pt x="340" y="742" on="1"/>
        <pt x="422" y="778" on="0"/>
        <pt x="497" y="868" on="1"/>
        <pt x="519" y="866" on="0"/>
        <pt x="539" y="859" on="1"/>
        <pt x="544" y="850" on="0"/>
        <pt x="555" y="807" on="0"/>
      </contour>
      <contour>
        <pt x="523" y="296" on="1"/>
        <pt x="523" y="467" on="0"/>
        <pt x="493" y="626" on="0"/>
        <pt x="451" y="641" on="1"/>
        <pt x="455" y="655" on="1"/>
        <pt x="486" y="651" on="0"/>
        <pt x="626" y="651" on="0"/>
        <pt x="685" y="659" on="1"/>
        <pt x="688" y="636" on="1"/>
        <pt x="617" y="619" on="0"/>
        <pt x="589" y="616" on="1"/>
        <pt x="576" y="518" on="0"/>
        <pt x="576" y="355" on="1"/>
        <pt x="576" y="296" on="1"/>
        <pt x="576" y="109" on="0"/>
        <pt x="589" y="35" on="1"/>
        <pt x="640" y="29" on="0"/>
        <pt x="685" y="17" on="1"/>
        <pt x="681" y="-8" on="1"/>
        <pt x="628" y="0" on="0"/>
        <pt x="521" y="0" on="0"/>
        <pt x="488" y="-3" on="1"/>
        <pt x="488" y="30" on="0"/>
        <pt x="358" y="258" on="0"/>
        <pt x="187" y="525" on="1"/>
        <pt x="183" y="523" on="1"/>
        <pt x="183" y="355" on="1"/>
        <pt x="183" y="110" on="0"/>
        <pt x="220" y="35" on="1"/>
        <pt x="275" y="30" on="0"/>
        <pt x="329" y="16" on="1"/>
        <pt x="327" y="-8" on="1"/>
        <pt x="253" y="0" on="0"/>
        <pt x="80" y="0" on="0"/>
        <pt x="27" y="-8" on="1"/>
        <pt x="23" y="17" on="1"/>
        <pt x="68" y="31" on="0"/>
        <pt x="119" y="38" on="1"/>
        <pt x="130" y="120" on="0"/>
        <pt x="130" y="296" on="1"/>
        <pt x="130" y="355" on="1"/>
        <pt x="130" y="496" on="0"/>
        <pt x="118" y="596" on="1"/>
        <pt x="0" y="596" on="0"/>
        <pt x="-33" y="564" on="1"/>
        <pt x="-40" y="550" on="0"/>
        <pt x="-40" y="490" on="0"/>
        <pt x="-30" y="479" on="1"/>
        <pt x="-31" y="472" on="1"/>
        <pt x="-56" y="457" on="0"/>
        <pt x="-81" y="430" on="1"/>
        <pt x="-93" y="431" on="0"/>
        <pt x="-108" y="449" on="0"/>
        <pt x="-108" y="461" on="1"/>
        <pt x="-108" y="510" on="0"/>
        <pt x="10" y="646" on="0"/>
        <pt x="61" y="664" on="1"/>
        <pt x="73" y="663" on="0"/>
        <pt x="184" y="651" on="0"/>
        <pt x="256" y="651" on="0"/>
        <pt x="287" y="657" on="1"/>
        <pt x="291" y="632" on="1"/>
        <pt x="250" y="615" on="0"/>
        <pt x="250" y="599" on="1"/>
        <pt x="255" y="572" on="0"/>
        <pt x="359" y="399" on="0"/>
        <pt x="519" y="150" on="1"/>
        <pt x="523" y="152" on="1"/>
      </contour>
    </TTGlyph>
    <TTGlyph name="Ntilde" xMin="-108" yMin="-8" xMax="688" yMax="837">
      <contour>
        <pt x="329" y="837" on="1"/>
        <pt x="388" y="806" on="0"/>
        <pt x="493" y="806" on="0"/>
        <pt x="513" y="830" on="1"/>
        <pt x="531" y="819" on="1"/>
        <pt x="475" y="758" on="0"/>
        <pt x="427" y="737" on="1"/>
        <pt x="406" y="737" on="0"/>
        <pt x="303" y="768" on="0"/>
        <pt x="282" y="768" on="1"/>
        <pt x="239" y="768" on="0"/>
        <pt x="219" y="744" on="1"/>
        <pt x="201" y="755" on="1"/>
        <pt x="257" y="816" on="0"/>
      </contour>
      <contour>
        <pt x="523" y="296" on="1"/>
        <pt x="523" y="467" on="0"/>
        <pt x="493" y="626" on="0"/>
        <pt x="451" y="641" on="1"/>
        <pt x="455" y="655" on="1"/>
        <pt x="486" y="651" on="0"/>
        <pt x="626" y="651" on="0"/>
        <pt x="685" y="659" on="1"/>
        <pt x="688" y="636" on="1"/>
        <pt x="617" y="619" on="0"/>
        <pt x="589" y="616" on="1"/>
        <pt x="576" y="518" on="0"/>
        <pt x="576" y="355" on="1"/>
        <pt x="576" y="296" on="1"/>
        <pt x="576" y="109" on="0"/>
        <pt x="589" y="35" on="1"/>
        <pt x="640" y="29" on="0"/>
        <pt x="685" y="17" on="1"/>
        <pt x="681" y="-8" on="1"/>
        <pt x="628" y="0" on="0"/>
        <pt x="521" y="0" on="0"/>
        <pt x="488" y="-3" on="1"/>
        <pt x="488" y="30" on="0"/>
        <pt x="358" y="258" on="0"/>
        <pt x="187" y="525" on="1"/>
        <pt x="183" y="523" on="1"/>
        <pt x="183" y="355" on="1"/>
        <pt x="183" y="110" on="0"/>
        <pt x="220" y="35" on="1"/>
        <pt x="275" y="30" on="0"/>
        <pt x="329" y="16" on="1"/>
        <pt x="327" y="-8" on="1"/>
        <pt x="253" y="0" on="0"/>
        <pt x="80" y="0" on="0"/>
        <pt x="27" y="-8" on="1"/>
        <pt x="23" y="17" on="1"/>
        <pt x="68" y="31" on="0"/>
        <pt x="119" y="38" on="1"/>
        <pt x="130" y="120" on="0"/>
        <pt x="130" y="296" on="1"/>
        <pt x="130" y="355" on="1"/>
        <pt x="130" y="496" on="0"/>
        <pt x="118" y="596" on="1"/>
        <pt x="0" y="596" on="0"/>
        <pt x="-33" y="564" on="1"/>
        <pt x="-40" y="550" on="0"/>
        <pt x="-40" y="490" on="0"/>
        <pt x="-30" y="479" on="1"/>
        <pt x="-31" y="472" on="1"/>
        <pt x="-56" y="457" on="0"/>
        <pt x="-81" y="430" on="1"/>
        <pt x="-93" y="431" on="0"/>
        <pt x="-108" y="449" on="0"/>
        <pt x="-108" y="461" on="1"/>
        <pt x="-108" y="510" on="0"/>
        <pt x="10" y="646" on="0"/>
        <pt x="61" y="664" on="1"/>
        <pt x="73" y="663" on="0"/>
        <pt x="184" y="651" on="0"/>
        <pt x="256" y="651" on="0"/>
        <pt x="287" y="657" on="1"/>
        <pt x="291" y="632" on="1"/>
        <pt x="250" y="615" on="0"/>
        <pt x="250" y="599" on="1"/>
        <pt x="255" y="572" on="0"/>
        <pt x="359" y="399" on="0"/>
        <pt x="519" y="150" on="1"/>
        <pt x="523" y="152" on="1"/>
      </contour>
    </TTGlyph>
    <TTGlyph name="O" xMin="42" yMin="-15" xMax="560" yMax="666">
      <contour>
        <pt x="435" y="666" on="0"/>
        <pt x="560" y="520" on="0"/>
        <pt x="560" y="249" on="0"/>
        <pt x="423" y="32" on="0"/>
        <pt x="301" y="-15" on="1"/>
        <pt x="184" y="-15" on="0"/>
        <pt x="42" y="140" on="0"/>
        <pt x="42" y="265" on="1"/>
        <pt x="42" y="469" on="0"/>
        <pt x="190" y="603" on="1"/>
        <pt x="202" y="595" on="1"/>
        <pt x="131" y="492" on="0"/>
        <pt x="131" y="339" on="1"/>
        <pt x="131" y="230" on="0"/>
        <pt x="232" y="57" on="0"/>
        <pt x="322" y="57" on="1"/>
        <pt x="381" y="57" on="0"/>
        <pt x="421" y="92" on="1"/>
        <pt x="471" y="184" on="0"/>
        <pt x="471" y="310" on="1"/>
        <pt x="471" y="475" on="0"/>
        <pt x="408" y="552" on="1"/>
        <pt x="374" y="594" on="0"/>
        <pt x="323" y="594" on="1"/>
        <pt x="297" y="594" on="0"/>
        <pt x="253" y="564" on="0"/>
        <pt x="244" y="540" on="1"/>
        <pt x="244" y="520" on="0"/>
        <pt x="262" y="467" on="0"/>
        <pt x="276" y="460" on="1"/>
        <pt x="278" y="453" on="1"/>
        <pt x="256" y="426" on="0"/>
        <pt x="245" y="396" on="1"/>
        <pt x="243" y="395" on="0"/>
        <pt x="237" y="395" on="1"/>
        <pt x="201" y="395" on="0"/>
        <pt x="201" y="459" on="1"/>
        <pt x="201" y="567" on="0"/>
        <pt x="313" y="666" on="1"/>
      </contour>
    </TTGlyph>
    <TTGlyph name="OE" xMin="42" yMin="-15" xMax="804" yMax="662">
      <contour>
        <pt x="418" y="662" on="0"/>
        <pt x="508" y="651" on="0"/>
        <pt x="684" y="651" on="0"/>
        <pt x="800" y="662" on="1"/>
        <pt x="804" y="642" on="1"/>
        <pt x="752" y="589" on="0"/>
        <pt x="745" y="484" on="1"/>
        <pt x="720" y="484" on="1"/>
        <pt x="711" y="527" on="0"/>
        <pt x="711" y="593" on="1"/>
        <pt x="668" y="614" on="0"/>
        <pt x="554" y="614" on="0"/>
        <pt x="527" y="609" on="1"/>
        <pt x="510" y="557" on="0"/>
        <pt x="502" y="365" on="1"/>
        <pt x="534" y="358" on="0"/>
        <pt x="579" y="358" on="1"/>
        <pt x="668" y="358" on="0"/>
        <pt x="688" y="401" on="1"/>
        <pt x="708" y="397" on="1"/>
        <pt x="699" y="365" on="0"/>
        <pt x="699" y="276" on="0"/>
        <pt x="705" y="233" on="1"/>
        <pt x="682" y="229" on="1"/>
        <pt x="667" y="267" on="0"/>
        <pt x="662" y="318" on="1"/>
        <pt x="624" y="321" on="0"/>
        <pt x="535" y="321" on="0"/>
        <pt x="501" y="316" on="1"/>
        <pt x="501" y="273" on="1"/>
        <pt x="501" y="148" on="0"/>
        <pt x="538" y="102" on="1"/>
        <pt x="570" y="64" on="0"/>
        <pt x="707" y="64" on="0"/>
        <pt x="785" y="142" on="1"/>
        <pt x="799" y="129" on="1"/>
        <pt x="716" y="19" on="0"/>
        <pt x="616" y="-15" on="1"/>
        <pt x="492" y="-15" on="0"/>
        <pt x="446" y="81" on="1"/>
        <pt x="442" y="81" on="1"/>
        <pt x="369" y="7" on="0"/>
        <pt x="254" y="-15" on="1"/>
        <pt x="155" y="2" on="0"/>
        <pt x="42" y="145" on="0"/>
        <pt x="42" y="348" on="0"/>
        <pt x="132" y="530" on="0"/>
        <pt x="295" y="651" on="0"/>
        <pt x="394" y="662" on="1"/>
      </contour>
      <contour>
        <pt x="431" y="577" on="1"/>
        <pt x="378" y="600" on="0"/>
        <pt x="271" y="600" on="0"/>
        <pt x="241" y="578" on="1"/>
        <pt x="141" y="479" on="0"/>
        <pt x="141" y="281" on="1"/>
        <pt x="141" y="187" on="0"/>
        <pt x="232" y="50" on="0"/>
        <pt x="313" y="50" on="1"/>
        <pt x="361" y="50" on="0"/>
        <pt x="390" y="71" on="1"/>
        <pt x="408" y="95" on="0"/>
        <pt x="419" y="166" on="0"/>
        <pt x="419" y="337" on="0"/>
        <pt x="431" y="558" on="0"/>
      </contour>
    </TTGlyph>
    <TTGlyph name="Oacute" xMin="42" yMin="-15" xMax="560" yMax="868">
      <contour>
        <pt x="485" y="797" on="1"/>
        <pt x="279" y="722" on="1"/>
        <pt x="271" y="742" on="1"/>
        <pt x="353" y="778" on="0"/>
        <pt x="428" y="868" on="1"/>
        <pt x="450" y="866" on="0"/>
        <pt x="470" y="859" on="1"/>
        <pt x="475" y="850" on="0"/>
        <pt x="486" y="807" on="0"/>
      </contour>
      <contour>
        <pt x="435" y="666" on="0"/>
        <pt x="560" y="520" on="0"/>
        <pt x="560" y="249" on="0"/>
        <pt x="423" y="32" on="0"/>
        <pt x="301" y="-15" on="1"/>
        <pt x="184" y="-15" on="0"/>
        <pt x="42" y="140" on="0"/>
        <pt x="42" y="265" on="1"/>
        <pt x="42" y="469" on="0"/>
        <pt x="190" y="603" on="1"/>
        <pt x="202" y="595" on="1"/>
        <pt x="131" y="492" on="0"/>
        <pt x="131" y="339" on="1"/>
        <pt x="131" y="230" on="0"/>
        <pt x="232" y="57" on="0"/>
        <pt x="322" y="57" on="1"/>
        <pt x="381" y="57" on="0"/>
        <pt x="421" y="92" on="1"/>
        <pt x="471" y="184" on="0"/>
        <pt x="471" y="310" on="1"/>
        <pt x="471" y="475" on="0"/>
        <pt x="408" y="552" on="1"/>
        <pt x="374" y="594" on="0"/>
        <pt x="323" y="594" on="1"/>
        <pt x="297" y="594" on="0"/>
        <pt x="253" y="564" on="0"/>
        <pt x="244" y="540" on="1"/>
        <pt x="244" y="520" on="0"/>
        <pt x="262" y="467" on="0"/>
        <pt x="276" y="460" on="1"/>
        <pt x="278" y="453" on="1"/>
        <pt x="256" y="426" on="0"/>
        <pt x="245" y="396" on="1"/>
        <pt x="243" y="395" on="0"/>
        <pt x="237" y="395" on="1"/>
        <pt x="201" y="395" on="0"/>
        <pt x="201" y="459" on="1"/>
        <pt x="201" y="567" on="0"/>
        <pt x="313" y="666" on="1"/>
      </contour>
    </TTGlyph>
    <TTGlyph name="Ocircumflex" xMin="42" yMin="-15" xMax="560" yMax="885">
      <contour>
        <pt x="482" y="715" on="1"/>
        <pt x="321" y="790" on="1"/>
        <pt x="160" y="715" on="1"/>
        <pt x="150" y="734" on="1"/>
        <pt x="242" y="792" on="0"/>
        <pt x="311" y="885" on="1"/>
        <pt x="331" y="885" on="1"/>
        <pt x="400" y="792" on="0"/>
        <pt x="492" y="734" on="1"/>
      </contour>
      <contour>
        <pt x="435" y="666" on="0"/>
        <pt x="560" y="520" on="0"/>
        <pt x="560" y="249" on="0"/>
        <pt x="423" y="32" on="0"/>
        <pt x="301" y="-15" on="1"/>
        <pt x="184" y="-15" on="0"/>
        <pt x="42" y="140" on="0"/>
        <pt x="42" y="265" on="1"/>
        <pt x="42" y="469" on="0"/>
        <pt x="190" y="603" on="1"/>
        <pt x="202" y="595" on="1"/>
        <pt x="131" y="492" on="0"/>
        <pt x="131" y="339" on="1"/>
        <pt x="131" y="230" on="0"/>
        <pt x="232" y="57" on="0"/>
        <pt x="322" y="57" on="1"/>
        <pt x="381" y="57" on="0"/>
        <pt x="421" y="92" on="1"/>
        <pt x="471" y="184" on="0"/>
        <pt x="471" y="310" on="1"/>
        <pt x="471" y="475" on="0"/>
        <pt x="408" y="552" on="1"/>
        <pt x="374" y="594" on="0"/>
        <pt x="323" y="594" on="1"/>
        <pt x="297" y="594" on="0"/>
        <pt x="253" y="564" on="0"/>
        <pt x="244" y="540" on="1"/>
        <pt x="244" y="520" on="0"/>
        <pt x="262" y="467" on="0"/>
        <pt x="276" y="460" on="1"/>
        <pt x="278" y="453" on="1"/>
        <pt x="256" y="426" on="0"/>
        <pt x="245" y="396" on="1"/>
        <pt x="243" y="395" on="0"/>
        <pt x="237" y="395" on="1"/>
        <pt x="201" y="395" on="0"/>
        <pt x="201" y="459" on="1"/>
        <pt x="201" y="567" on="0"/>
        <pt x="313" y="666" on="1"/>
      </contour>
    </TTGlyph>
    <TTGlyph name="Odieresis" xMin="42" yMin="-15" xMax="560" yMax="853">
      <contour>
        <pt x="283" y="803" on="1"/>
        <pt x="276" y="790" on="0"/>
        <pt x="241" y="750" on="0"/>
        <pt x="229" y="742" on="1"/>
        <pt x="217" y="750" on="0"/>
        <pt x="182" y="790" on="0"/>
        <pt x="175" y="803" on="1"/>
        <pt x="181" y="815" on="0"/>
        <pt x="215" y="846" on="0"/>
        <pt x="229" y="853" on="1"/>
        <pt x="242" y="845" on="0"/>
        <pt x="276" y="814" on="0"/>
      </contour>
      <contour>
        <pt x="468" y="803" on="1"/>
        <pt x="461" y="790" on="0"/>
        <pt x="426" y="750" on="0"/>
        <pt x="414" y="742" on="1"/>
        <pt x="402" y="750" on="0"/>
        <pt x="367" y="790" on="0"/>
        <pt x="360" y="803" on="1"/>
        <pt x="366" y="815" on="0"/>
        <pt x="400" y="846" on="0"/>
        <pt x="414" y="853" on="1"/>
        <pt x="427" y="845" on="0"/>
        <pt x="461" y="814" on="0"/>
      </contour>
      <contour>
        <pt x="435" y="666" on="0"/>
        <pt x="560" y="520" on="0"/>
        <pt x="560" y="249" on="0"/>
        <pt x="423" y="32" on="0"/>
        <pt x="301" y="-15" on="1"/>
        <pt x="184" y="-15" on="0"/>
        <pt x="42" y="140" on="0"/>
        <pt x="42" y="265" on="1"/>
        <pt x="42" y="469" on="0"/>
        <pt x="190" y="603" on="1"/>
        <pt x="202" y="595" on="1"/>
        <pt x="131" y="492" on="0"/>
        <pt x="131" y="339" on="1"/>
        <pt x="131" y="230" on="0"/>
        <pt x="232" y="57" on="0"/>
        <pt x="322" y="57" on="1"/>
        <pt x="381" y="57" on="0"/>
        <pt x="421" y="92" on="1"/>
        <pt x="471" y="184" on="0"/>
        <pt x="471" y="310" on="1"/>
        <pt x="471" y="475" on="0"/>
        <pt x="408" y="552" on="1"/>
        <pt x="374" y="594" on="0"/>
        <pt x="323" y="594" on="1"/>
        <pt x="297" y="594" on="0"/>
        <pt x="253" y="564" on="0"/>
        <pt x="244" y="540" on="1"/>
        <pt x="244" y="520" on="0"/>
        <pt x="262" y="467" on="0"/>
        <pt x="276" y="460" on="1"/>
        <pt x="278" y="453" on="1"/>
        <pt x="256" y="426" on="0"/>
        <pt x="245" y="396" on="1"/>
        <pt x="243" y="395" on="0"/>
        <pt x="237" y="395" on="1"/>
        <pt x="201" y="395" on="0"/>
        <pt x="201" y="459" on="1"/>
        <pt x="201" y="567" on="0"/>
        <pt x="313" y="666" on="1"/>
      </contour>
    </TTGlyph>
    <TTGlyph name="Ograve" xMin="42" yMin="-15" xMax="560" yMax="877">
      <contour>
        <pt x="375" y="731" on="1"/>
        <pt x="169" y="806" on="1"/>
        <pt x="168" y="816" on="0"/>
        <pt x="179" y="859" on="0"/>
        <pt x="184" y="868" on="1"/>
        <pt x="204" y="875" on="0"/>
        <pt x="226" y="877" on="1"/>
        <pt x="301" y="787" on="0"/>
        <pt x="383" y="751" on="1"/>
      </contour>
      <contour>
        <pt x="435" y="666" on="0"/>
        <pt x="560" y="520" on="0"/>
        <pt x="560" y="249" on="0"/>
        <pt x="423" y="32" on="0"/>
        <pt x="301" y="-15" on="1"/>
        <pt x="184" y="-15" on="0"/>
        <pt x="42" y="140" on="0"/>
        <pt x="42" y="265" on="1"/>
        <pt x="42" y="469" on="0"/>
        <pt x="190" y="603" on="1"/>
        <pt x="202" y="595" on="1"/>
        <pt x="131" y="492" on="0"/>
        <pt x="131" y="339" on="1"/>
        <pt x="131" y="230" on="0"/>
        <pt x="232" y="57" on="0"/>
        <pt x="322" y="57" on="1"/>
        <pt x="381" y="57" on="0"/>
        <pt x="421" y="92" on="1"/>
        <pt x="471" y="184" on="0"/>
        <pt x="471" y="310" on="1"/>
        <pt x="471" y="475" on="0"/>
        <pt x="408" y="552" on="1"/>
        <pt x="374" y="594" on="0"/>
        <pt x="323" y="594" on="1"/>
        <pt x="297" y="594" on="0"/>
        <pt x="253" y="564" on="0"/>
        <pt x="244" y="540" on="1"/>
        <pt x="244" y="520" on="0"/>
        <pt x="262" y="467" on="0"/>
        <pt x="276" y="460" on="1"/>
        <pt x="278" y="453" on="1"/>
        <pt x="256" y="426" on="0"/>
        <pt x="245" y="396" on="1"/>
        <pt x="243" y="395" on="0"/>
        <pt x="237" y="395" on="1"/>
        <pt x="201" y="395" on="0"/>
        <pt x="201" y="459" on="1"/>
        <pt x="201" y="567" on="0"/>
        <pt x="313" y="666" on="1"/>
      </contour>
    </TTGlyph>
    <TTGlyph name="Oslash" xMin="42" yMin="-87" xMax="560" yMax="739">
      <contour>
        <pt x="158" y="-87" on="1"/>
        <pt x="153" y="-87" on="1"/>
        <pt x="137" y="-78" on="0"/>
        <pt x="127" y="-63" on="1"/>
        <pt x="175" y="44" on="0"/>
        <pt x="213" y="143" on="1"/>
        <pt x="353" y="511" on="1"/>
        <pt x="393" y="615" on="0"/>
        <pt x="431" y="732" on="1"/>
        <pt x="454" y="734" on="0"/>
        <pt x="469" y="739" on="1"/>
        <pt x="473" y="736" on="1"/>
        <pt x="460" y="706" on="0"/>
        <pt x="390" y="524" on="1"/>
      </contour>
      <contour>
        <pt x="435" y="666" on="0"/>
        <pt x="560" y="520" on="0"/>
        <pt x="560" y="249" on="0"/>
        <pt x="423" y="32" on="0"/>
        <pt x="301" y="-15" on="1"/>
        <pt x="184" y="-15" on="0"/>
        <pt x="42" y="140" on="0"/>
        <pt x="42" y="265" on="1"/>
        <pt x="42" y="469" on="0"/>
        <pt x="190" y="603" on="1"/>
        <pt x="202" y="595" on="1"/>
        <pt x="131" y="492" on="0"/>
        <pt x="131" y="339" on="1"/>
        <pt x="131" y="230" on="0"/>
        <pt x="232" y="57" on="0"/>
        <pt x="322" y="57" on="1"/>
        <pt x="381" y="57" on="0"/>
        <pt x="421" y="92" on="1"/>
        <pt x="471" y="184" on="0"/>
        <pt x="471" y="310" on="1"/>
        <pt x="471" y="475" on="0"/>
        <pt x="408" y="552" on="1"/>
        <pt x="374" y="594" on="0"/>
        <pt x="323" y="594" on="1"/>
        <pt x="297" y="594" on="0"/>
        <pt x="253" y="564" on="0"/>
        <pt x="244" y="540" on="1"/>
        <pt x="244" y="520" on="0"/>
        <pt x="262" y="467" on="0"/>
        <pt x="276" y="460" on="1"/>
        <pt x="278" y="453" on="1"/>
        <pt x="256" y="426" on="0"/>
        <pt x="245" y="396" on="1"/>
        <pt x="243" y="395" on="0"/>
        <pt x="237" y="395" on="1"/>
        <pt x="201" y="395" on="0"/>
        <pt x="201" y="459" on="1"/>
        <pt x="201" y="567" on="0"/>
        <pt x="313" y="666" on="1"/>
      </contour>
    </TTGlyph>
    <TTGlyph name="Otilde" xMin="42" yMin="-15" xMax="560" yMax="837">
      <contour>
        <pt x="285" y="837" on="1"/>
        <pt x="344" y="806" on="0"/>
        <pt x="449" y="806" on="0"/>
        <pt x="469" y="830" on="1"/>
        <pt x="487" y="819" on="1"/>
        <pt x="431" y="758" on="0"/>
        <pt x="383" y="737" on="1"/>
        <pt x="362" y="737" on="0"/>
        <pt x="259" y="768" on="0"/>
        <pt x="238" y="768" on="1"/>
        <pt x="195" y="768" on="0"/>
        <pt x="175" y="744" on="1"/>
        <pt x="157" y="755" on="1"/>
        <pt x="213" y="816" on="0"/>
      </contour>
      <contour>
        <pt x="435" y="666" on="0"/>
        <pt x="560" y="520" on="0"/>
        <pt x="560" y="249" on="0"/>
        <pt x="423" y="32" on="0"/>
        <pt x="301" y="-15" on="1"/>
        <pt x="184" y="-15" on="0"/>
        <pt x="42" y="140" on="0"/>
        <pt x="42" y="265" on="1"/>
        <pt x="42" y="469" on="0"/>
        <pt x="190" y="603" on="1"/>
        <pt x="202" y="595" on="1"/>
        <pt x="131" y="492" on="0"/>
        <pt x="131" y="339" on="1"/>
        <pt x="131" y="230" on="0"/>
        <pt x="232" y="57" on="0"/>
        <pt x="322" y="57" on="1"/>
        <pt x="381" y="57" on="0"/>
        <pt x="421" y="92" on="1"/>
        <pt x="471" y="184" on="0"/>
        <pt x="471" y="310" on="1"/>
        <pt x="471" y="475" on="0"/>
        <pt x="408" y="552" on="1"/>
        <pt x="374" y="594" on="0"/>
        <pt x="323" y="594" on="1"/>
        <pt x="297" y="594" on="0"/>
        <pt x="253" y="564" on="0"/>
        <pt x="244" y="540" on="1"/>
        <pt x="244" y="520" on="0"/>
        <pt x="262" y="467" on="0"/>
        <pt x="276" y="460" on="1"/>
        <pt x="278" y="453" on="1"/>
        <pt x="256" y="426" on="0"/>
        <pt x="245" y="396" on="1"/>
        <pt x="243" y="395" on="0"/>
        <pt x="237" y="395" on="1"/>
        <pt x="201" y="395" on="0"/>
        <pt x="201" y="459" on="1"/>
        <pt x="201" y="567" on="0"/>
        <pt x="313" y="666" on="1"/>
      </contour>
    </TTGlyph>
    <TTGlyph name="P" xMin="-95" yMin="-8" xMax="517" yMax="659">
      <contour>
        <pt x="118" y="38" on="1"/>
        <pt x="130" y="120" on="0"/>
        <pt x="130" y="490" on="0"/>
        <pt x="120" y="598" on="1"/>
        <pt x="11" y="596" on="0"/>
        <pt x="-20" y="566" on="1"/>
        <pt x="-27" y="552" on="0"/>
        <pt x="-27" y="492" on="0"/>
        <pt x="-17" y="481" on="1"/>
        <pt x="-18" y="474" on="1"/>
        <pt x="-43" y="459" on="0"/>
        <pt x="-68" y="432" on="1"/>
        <pt x="-80" y="433" on="0"/>
        <pt x="-95" y="451" on="0"/>
        <pt x="-95" y="463" on="1"/>
        <pt x="-95" y="509" on="0"/>
        <pt x="10" y="635" on="0"/>
        <pt x="58" y="659" on="1"/>
        <pt x="143" y="651" on="0"/>
        <pt x="324" y="651" on="1"/>
        <pt x="420" y="651" on="0"/>
        <pt x="517" y="581" on="0"/>
        <pt x="517" y="405" on="0"/>
        <pt x="371" y="295" on="0"/>
        <pt x="274" y="295" on="1"/>
        <pt x="259" y="295" on="0"/>
        <pt x="252" y="296" on="1"/>
        <pt x="256" y="328" on="1"/>
        <pt x="268" y="328" on="1"/>
        <pt x="343" y="328" on="0"/>
        <pt x="423" y="404" on="0"/>
        <pt x="423" y="547" on="0"/>
        <pt x="356" y="601" on="0"/>
        <pt x="283" y="601" on="1"/>
        <pt x="245" y="601" on="0"/>
        <pt x="215" y="598" on="1"/>
        <pt x="207" y="509" on="0"/>
        <pt x="207" y="124" on="0"/>
        <pt x="219" y="35" on="1"/>
        <pt x="272" y="30" on="0"/>
        <pt x="329" y="16" on="1"/>
        <pt x="326" y="-8" on="1"/>
        <pt x="252" y="0" on="0"/>
        <pt x="79" y="0" on="0"/>
        <pt x="26" y="-8" on="1"/>
        <pt x="22" y="17" on="1"/>
        <pt x="67" y="31" on="0"/>
      </contour>
    </TTGlyph>
    <TTGlyph name="Q" xMin="53" yMin="-200" xMax="777" yMax="666">
      <contour>
        <pt x="777" y="-78" on="1"/>
        <pt x="777" y="-109" on="0"/>
        <pt x="673" y="-169" on="0"/>
        <pt x="553" y="-200" on="0"/>
        <pt x="516" y="-200" on="1"/>
        <pt x="311" y="-56" on="0"/>
        <pt x="211" y="-56" on="1"/>
        <pt x="148" y="-56" on="0"/>
        <pt x="104" y="-90" on="1"/>
        <pt x="87" y="-74" on="1"/>
        <pt x="115" y="-49" on="0"/>
        <pt x="208" y="4" on="0"/>
        <pt x="245" y="16" on="1"/>
        <pt x="252" y="16" on="0"/>
        <pt x="279" y="11" on="1"/>
        <pt x="471" y="112" on="0"/>
        <pt x="471" y="310" on="1"/>
        <pt x="471" y="427" on="0"/>
        <pt x="430" y="507" on="1"/>
        <pt x="409" y="548" on="0"/>
        <pt x="332" y="594" on="0"/>
        <pt x="220" y="594" on="0"/>
        <pt x="182" y="560" on="1"/>
        <pt x="139" y="486" on="0"/>
        <pt x="139" y="375" on="1"/>
        <pt x="139" y="141" on="0"/>
        <pt x="258" y="141" on="1"/>
        <pt x="284" y="141" on="0"/>
        <pt x="328" y="171" on="0"/>
        <pt x="337" y="195" on="1"/>
        <pt x="337" y="215" on="0"/>
        <pt x="319" y="268" on="0"/>
        <pt x="305" y="275" on="1"/>
        <pt x="303" y="282" on="1"/>
        <pt x="325" y="309" on="0"/>
        <pt x="336" y="339" on="1"/>
        <pt x="338" y="340" on="0"/>
        <pt x="344" y="340" on="1"/>
        <pt x="380" y="340" on="0"/>
        <pt x="380" y="276" on="1"/>
        <pt x="380" y="168" on="0"/>
        <pt x="268" y="69" on="1"/>
        <pt x="164" y="69" on="0"/>
        <pt x="53" y="191" on="0"/>
        <pt x="53" y="425" on="0"/>
        <pt x="196" y="633" on="0"/>
        <pt x="313" y="666" on="1"/>
        <pt x="435" y="666" on="0"/>
        <pt x="560" y="520" on="0"/>
        <pt x="560" y="256" on="0"/>
        <pt x="437" y="52" on="0"/>
        <pt x="320" y="0" on="1"/>
        <pt x="377" y="-19" on="0"/>
        <pt x="610" y="-148" on="0"/>
        <pt x="646" y="-148" on="1"/>
        <pt x="667" y="-148" on="0"/>
        <pt x="696" y="-98" on="0"/>
        <pt x="696" y="-73" on="1"/>
        <pt x="700" y="-66" on="1"/>
        <pt x="733" y="-66" on="0"/>
        <pt x="765" y="-56" on="1"/>
        <pt x="777" y="-65" on="0"/>
      </contour>
    </TTGlyph>
    <TTGlyph name="R" xMin="-81" yMin="-8" xMax="637" yMax="659">
      <contour>
        <pt x="131" y="35" on="1"/>
        <pt x="144" y="131" on="0"/>
        <pt x="144" y="490" on="0"/>
        <pt x="134" y="598" on="1"/>
        <pt x="25" y="596" on="0"/>
        <pt x="-6" y="566" on="1"/>
        <pt x="-13" y="552" on="0"/>
        <pt x="-13" y="492" on="0"/>
        <pt x="-3" y="481" on="1"/>
        <pt x="-4" y="474" on="1"/>
        <pt x="-29" y="459" on="0"/>
        <pt x="-54" y="432" on="1"/>
        <pt x="-66" y="433" on="0"/>
        <pt x="-81" y="451" on="0"/>
        <pt x="-81" y="463" on="1"/>
        <pt x="-81" y="509" on="0"/>
        <pt x="24" y="635" on="0"/>
        <pt x="72" y="659" on="1"/>
        <pt x="157" y="651" on="0"/>
        <pt x="318" y="651" on="1"/>
        <pt x="420" y="651" on="0"/>
        <pt x="526" y="590" on="0"/>
        <pt x="526" y="504" on="1"/>
        <pt x="526" y="382" on="0"/>
        <pt x="401" y="334" on="1"/>
        <pt x="541" y="38" on="1"/>
        <pt x="592" y="31" on="0"/>
        <pt x="637" y="17" on="1"/>
        <pt x="633" y="-8" on="1"/>
        <pt x="574" y="0" on="0"/>
        <pt x="437" y="0" on="0"/>
        <pt x="406" y="-4" on="1"/>
        <pt x="402" y="10" on="1"/>
        <pt x="419" y="27" on="0"/>
        <pt x="419" y="67" on="1"/>
        <pt x="419" y="147" on="0"/>
        <pt x="325" y="322" on="1"/>
        <pt x="300" y="327" on="0"/>
        <pt x="267" y="327" on="1"/>
        <pt x="270" y="349" on="1"/>
        <pt x="282" y="349" on="1"/>
        <pt x="354" y="349" on="0"/>
        <pt x="432" y="420" on="0"/>
        <pt x="432" y="555" on="0"/>
        <pt x="362" y="601" on="0"/>
        <pt x="287" y="601" on="1"/>
        <pt x="252" y="601" on="0"/>
        <pt x="229" y="598" on="1"/>
        <pt x="221" y="509" on="0"/>
        <pt x="221" y="113" on="0"/>
        <pt x="232" y="38" on="1"/>
        <pt x="283" y="31" on="0"/>
        <pt x="328" y="17" on="1"/>
        <pt x="324" y="-8" on="1"/>
        <pt x="271" y="0" on="0"/>
        <pt x="98" y="0" on="0"/>
        <pt x="24" y="-8" on="1"/>
        <pt x="21" y="16" on="1"/>
        <pt x="78" y="30" on="0"/>
      </contour>
    </TTGlyph>
    <TTGlyph name="Racute" xMin="-81" yMin="-8" xMax="637" yMax="868">
      <contour>
        <pt x="487" y="797" on="1"/>
        <pt x="281" y="722" on="1"/>
        <pt x="273" y="742" on="1"/>
        <pt x="355" y="778" on="0"/>
        <pt x="430" y="868" on="1"/>
        <pt x="452" y="866" on="0"/>
        <pt x="472" y="859" on="1"/>
        <pt x="477" y="850" on="0"/>
        <pt x="488" y="807" on="0"/>
      </contour>
      <contour>
        <pt x="131" y="35" on="1"/>
        <pt x="144" y="131" on="0"/>
        <pt x="144" y="490" on="0"/>
        <pt x="134" y="598" on="1"/>
        <pt x="25" y="596" on="0"/>
        <pt x="-6" y="566" on="1"/>
        <pt x="-13" y="552" on="0"/>
        <pt x="-13" y="492" on="0"/>
        <pt x="-3" y="481" on="1"/>
        <pt x="-4" y="474" on="1"/>
        <pt x="-29" y="459" on="0"/>
        <pt x="-54" y="432" on="1"/>
        <pt x="-66" y="433" on="0"/>
        <pt x="-81" y="451" on="0"/>
        <pt x="-81" y="463" on="1"/>
        <pt x="-81" y="509" on="0"/>
        <pt x="24" y="635" on="0"/>
        <pt x="72" y="659" on="1"/>
        <pt x="157" y="651" on="0"/>
        <pt x="318" y="651" on="1"/>
        <pt x="420" y="651" on="0"/>
        <pt x="526" y="590" on="0"/>
        <pt x="526" y="504" on="1"/>
        <pt x="526" y="382" on="0"/>
        <pt x="401" y="334" on="1"/>
        <pt x="541" y="38" on="1"/>
        <pt x="592" y="31" on="0"/>
        <pt x="637" y="17" on="1"/>
        <pt x="633" y="-8" on="1"/>
        <pt x="574" y="0" on="0"/>
        <pt x="437" y="0" on="0"/>
        <pt x="406" y="-4" on="1"/>
        <pt x="402" y="10" on="1"/>
        <pt x="419" y="27" on="0"/>
        <pt x="419" y="67" on="1"/>
        <pt x="419" y="147" on="0"/>
        <pt x="325" y="322" on="1"/>
        <pt x="300" y="327" on="0"/>
        <pt x="267" y="327" on="1"/>
        <pt x="270" y="349" on="1"/>
        <pt x="282" y="349" on="1"/>
        <pt x="354" y="349" on="0"/>
        <pt x="432" y="420" on="0"/>
        <pt x="432" y="555" on="0"/>
        <pt x="362" y="601" on="0"/>
        <pt x="287" y="601" on="1"/>
        <pt x="252" y="601" on="0"/>
        <pt x="229" y="598" on="1"/>
        <pt x="221" y="509" on="0"/>
        <pt x="221" y="113" on="0"/>
        <pt x="232" y="38" on="1"/>
        <pt x="283" y="31" on="0"/>
        <pt x="328" y="17" on="1"/>
        <pt x="324" y="-8" on="1"/>
        <pt x="271" y="0" on="0"/>
        <pt x="98" y="0" on="0"/>
        <pt x="24" y="-8" on="1"/>
        <pt x="21" y="16" on="1"/>
        <pt x="78" y="30" on="0"/>
      </contour>
    </TTGlyph>
    <TTGlyph name="Rcaron" xMin="-81" yMin="-8" xMax="637" yMax="885">
      <contour>
        <pt x="131" y="35" on="1"/>
        <pt x="144" y="131" on="0"/>
        <pt x="144" y="490" on="0"/>
        <pt x="134" y="598" on="1"/>
        <pt x="25" y="596" on="0"/>
        <pt x="-6" y="566" on="1"/>
        <pt x="-13" y="552" on="0"/>
        <pt x="-13" y="492" on="0"/>
        <pt x="-3" y="481" on="1"/>
        <pt x="-4" y="474" on="1"/>
        <pt x="-29" y="459" on="0"/>
        <pt x="-54" y="432" on="1"/>
        <pt x="-66" y="433" on="0"/>
        <pt x="-81" y="451" on="0"/>
        <pt x="-81" y="463" on="1"/>
        <pt x="-81" y="509" on="0"/>
        <pt x="24" y="635" on="0"/>
        <pt x="72" y="659" on="1"/>
        <pt x="157" y="651" on="0"/>
        <pt x="318" y="651" on="1"/>
        <pt x="420" y="651" on="0"/>
        <pt x="526" y="590" on="0"/>
        <pt x="526" y="504" on="1"/>
        <pt x="526" y="382" on="0"/>
        <pt x="401" y="334" on="1"/>
        <pt x="541" y="38" on="1"/>
        <pt x="592" y="31" on="0"/>
        <pt x="637" y="17" on="1"/>
        <pt x="633" y="-8" on="1"/>
        <pt x="574" y="0" on="0"/>
        <pt x="437" y="0" on="0"/>
        <pt x="406" y="-4" on="1"/>
        <pt x="402" y="10" on="1"/>
        <pt x="419" y="27" on="0"/>
        <pt x="419" y="67" on="1"/>
        <pt x="419" y="147" on="0"/>
        <pt x="325" y="322" on="1"/>
        <pt x="300" y="327" on="0"/>
        <pt x="267" y="327" on="1"/>
        <pt x="270" y="349" on="1"/>
        <pt x="282" y="349" on="1"/>
        <pt x="354" y="349" on="0"/>
        <pt x="432" y="420" on="0"/>
        <pt x="432" y="555" on="0"/>
        <pt x="362" y="601" on="0"/>
        <pt x="287" y="601" on="1"/>
        <pt x="252" y="601" on="0"/>
        <pt x="229" y="598" on="1"/>
        <pt x="221" y="509" on="0"/>
        <pt x="221" y="113" on="0"/>
        <pt x="232" y="38" on="1"/>
        <pt x="283" y="31" on="0"/>
        <pt x="328" y="17" on="1"/>
        <pt x="324" y="-8" on="1"/>
        <pt x="271" y="0" on="0"/>
        <pt x="98" y="0" on="0"/>
        <pt x="24" y="-8" on="1"/>
        <pt x="21" y="16" on="1"/>
        <pt x="78" y="30" on="0"/>
      </contour>
      <contour>
        <pt x="218" y="810" on="1"/>
        <pt x="379" y="885" on="1"/>
        <pt x="389" y="866" on="1"/>
        <pt x="297" y="808" on="0"/>
        <pt x="228" y="715" on="1"/>
        <pt x="208" y="715" on="1"/>
        <pt x="139" y="808" on="0"/>
        <pt x="47" y="866" on="1"/>
        <pt x="57" y="885" on="1"/>
      </contour>
    </TTGlyph>
    <TTGlyph name="Rcommaaccent" xMin="-81" yMin="-215" xMax="637" yMax="659">
      <contour>
        <pt x="131" y="35" on="1"/>
        <pt x="144" y="131" on="0"/>
        <pt x="144" y="490" on="0"/>
        <pt x="134" y="598" on="1"/>
        <pt x="25" y="596" on="0"/>
        <pt x="-6" y="566" on="1"/>
        <pt x="-13" y="552" on="0"/>
        <pt x="-13" y="492" on="0"/>
        <pt x="-3" y="481" on="1"/>
        <pt x="-4" y="474" on="1"/>
        <pt x="-29" y="459" on="0"/>
        <pt x="-54" y="432" on="1"/>
        <pt x="-66" y="433" on="0"/>
        <pt x="-81" y="451" on="0"/>
        <pt x="-81" y="463" on="1"/>
        <pt x="-81" y="509" on="0"/>
        <pt x="24" y="635" on="0"/>
        <pt x="72" y="659" on="1"/>
        <pt x="157" y="651" on="0"/>
        <pt x="318" y="651" on="1"/>
        <pt x="420" y="651" on="0"/>
        <pt x="526" y="590" on="0"/>
        <pt x="526" y="504" on="1"/>
        <pt x="526" y="382" on="0"/>
        <pt x="401" y="334" on="1"/>
        <pt x="541" y="38" on="1"/>
        <pt x="592" y="31" on="0"/>
        <pt x="637" y="17" on="1"/>
        <pt x="633" y="-8" on="1"/>
        <pt x="574" y="0" on="0"/>
        <pt x="437" y="0" on="0"/>
        <pt x="406" y="-4" on="1"/>
        <pt x="402" y="10" on="1"/>
        <pt x="419" y="27" on="0"/>
        <pt x="419" y="67" on="1"/>
        <pt x="419" y="147" on="0"/>
        <pt x="325" y="322" on="1"/>
        <pt x="300" y="327" on="0"/>
        <pt x="267" y="327" on="1"/>
        <pt x="270" y="349" on="1"/>
        <pt x="282" y="349" on="1"/>
        <pt x="354" y="349" on="0"/>
        <pt x="432" y="420" on="0"/>
        <pt x="432" y="555" on="0"/>
        <pt x="362" y="601" on="0"/>
        <pt x="287" y="601" on="1"/>
        <pt x="252" y="601" on="0"/>
        <pt x="229" y="598" on="1"/>
        <pt x="221" y="509" on="0"/>
        <pt x="221" y="113" on="0"/>
        <pt x="232" y="38" on="1"/>
        <pt x="283" y="31" on="0"/>
        <pt x="328" y="17" on="1"/>
        <pt x="324" y="-8" on="1"/>
        <pt x="271" y="0" on="0"/>
        <pt x="98" y="0" on="0"/>
        <pt x="24" y="-8" on="1"/>
        <pt x="21" y="16" on="1"/>
        <pt x="78" y="30" on="0"/>
      </contour>
      <contour>
        <pt x="382" y="-84" on="1"/>
        <pt x="377" y="-163" on="0"/>
        <pt x="276" y="-215" on="1"/>
        <pt x="266" y="-202" on="1"/>
        <pt x="308" y="-171" on="0"/>
        <pt x="314" y="-134" on="1"/>
        <pt x="288" y="-110" on="0"/>
        <pt x="274" y="-84" on="1"/>
        <pt x="280" y="-72" on="0"/>
        <pt x="314" y="-41" on="0"/>
        <pt x="328" y="-34" on="1"/>
        <pt x="341" y="-42" on="0"/>
        <pt x="375" y="-73" on="0"/>
      </contour>
    </TTGlyph>
    <TTGlyph name="S" xMin="11" yMin="-115" xMax="437" yMax="666">
      <contour>
        <pt x="11" y="12" on="1"/>
        <pt x="11" y="100" on="0"/>
        <pt x="88" y="228" on="0"/>
        <pt x="130" y="228" on="1"/>
        <pt x="141" y="228" on="0"/>
        <pt x="152" y="221" on="1"/>
        <pt x="155" y="214" on="1"/>
        <pt x="142" y="189" on="0"/>
        <pt x="139" y="151" on="1"/>
        <pt x="133" y="147" on="1"/>
        <pt x="129" y="149" on="0"/>
        <pt x="107" y="149" on="0"/>
        <pt x="64" y="125" on="0"/>
        <pt x="52" y="113" on="1"/>
        <pt x="45" y="99" on="0"/>
        <pt x="45" y="81" on="1"/>
        <pt x="45" y="34" on="0"/>
        <pt x="172" y="-33" on="0"/>
        <pt x="231" y="-33" on="1"/>
        <pt x="354" y="-33" on="0"/>
        <pt x="354" y="107" on="1"/>
        <pt x="354" y="160" on="0"/>
        <pt x="253" y="240" on="1"/>
        <pt x="211" y="274" on="0"/>
        <pt x="169" y="308" on="1"/>
        <pt x="68" y="388" on="0"/>
        <pt x="68" y="447" on="1"/>
        <pt x="68" y="517" on="0"/>
        <pt x="194" y="638" on="0"/>
        <pt x="274" y="666" on="1"/>
        <pt x="360" y="666" on="0"/>
        <pt x="437" y="649" on="1"/>
        <pt x="437" y="629" on="1"/>
        <pt x="385" y="581" on="0"/>
        <pt x="379" y="481" on="1"/>
        <pt x="354" y="481" on="1"/>
        <pt x="354" y="534" on="0"/>
        <pt x="349" y="574" on="1"/>
        <pt x="306" y="594" on="0"/>
        <pt x="205" y="594" on="0"/>
        <pt x="135" y="551" on="0"/>
        <pt x="135" y="485" on="0"/>
        <pt x="194" y="418" on="0"/>
        <pt x="278" y="355" on="0"/>
        <pt x="361" y="290" on="0"/>
        <pt x="420" y="215" on="0"/>
        <pt x="420" y="180" on="1"/>
        <pt x="420" y="80" on="0"/>
        <pt x="310" y="-76" on="0"/>
        <pt x="215" y="-115" on="1"/>
        <pt x="90" y="-102" on="0"/>
        <pt x="15" y="-45" on="1"/>
        <pt x="11" y="-17" on="0"/>
      </contour>
    </TTGlyph>
    <TTGlyph name="Scaron" xMin="11" yMin="-115" xMax="444" yMax="885">
      <contour>
        <pt x="11" y="12" on="1"/>
        <pt x="11" y="100" on="0"/>
        <pt x="88" y="228" on="0"/>
        <pt x="130" y="228" on="1"/>
        <pt x="141" y="228" on="0"/>
        <pt x="152" y="221" on="1"/>
        <pt x="155" y="214" on="1"/>
        <pt x="142" y="189" on="0"/>
        <pt x="139" y="151" on="1"/>
        <pt x="133" y="147" on="1"/>
        <pt x="129" y="149" on="0"/>
        <pt x="107" y="149" on="0"/>
        <pt x="64" y="125" on="0"/>
        <pt x="52" y="113" on="1"/>
        <pt x="45" y="99" on="0"/>
        <pt x="45" y="81" on="1"/>
        <pt x="45" y="34" on="0"/>
        <pt x="172" y="-33" on="0"/>
        <pt x="231" y="-33" on="1"/>
        <pt x="354" y="-33" on="0"/>
        <pt x="354" y="107" on="1"/>
        <pt x="354" y="160" on="0"/>
        <pt x="253" y="240" on="1"/>
        <pt x="211" y="274" on="0"/>
        <pt x="169" y="308" on="1"/>
        <pt x="68" y="388" on="0"/>
        <pt x="68" y="447" on="1"/>
        <pt x="68" y="517" on="0"/>
        <pt x="194" y="638" on="0"/>
        <pt x="274" y="666" on="1"/>
        <pt x="360" y="666" on="0"/>
        <pt x="437" y="649" on="1"/>
        <pt x="437" y="629" on="1"/>
        <pt x="385" y="581" on="0"/>
        <pt x="379" y="481" on="1"/>
        <pt x="354" y="481" on="1"/>
        <pt x="354" y="534" on="0"/>
        <pt x="349" y="574" on="1"/>
        <pt x="306" y="594" on="0"/>
        <pt x="205" y="594" on="0"/>
        <pt x="135" y="551" on="0"/>
        <pt x="135" y="485" on="0"/>
        <pt x="194" y="418" on="0"/>
        <pt x="278" y="355" on="0"/>
        <pt x="361" y="290" on="0"/>
        <pt x="420" y="215" on="0"/>
        <pt x="420" y="180" on="1"/>
        <pt x="420" y="80" on="0"/>
        <pt x="310" y="-76" on="0"/>
        <pt x="215" y="-115" on="1"/>
        <pt x="90" y="-102" on="0"/>
        <pt x="15" y="-45" on="1"/>
        <pt x="11" y="-17" on="0"/>
      </contour>
      <contour>
        <pt x="273" y="810" on="1"/>
        <pt x="434" y="885" on="1"/>
        <pt x="444" y="866" on="1"/>
        <pt x="352" y="808" on="0"/>
        <pt x="283" y="715" on="1"/>
        <pt x="263" y="715" on="1"/>
        <pt x="194" y="808" on="0"/>
        <pt x="102" y="866" on="1"/>
        <pt x="112" y="885" on="1"/>
      </contour>
    </TTGlyph>
    <TTGlyph name="T" xMin="-43" yMin="-8" xMax="550" yMax="718">
      <contour>
        <pt x="195" y="663" on="0"/>
        <pt x="374" y="645" on="0"/>
        <pt x="450" y="645" on="0"/>
        <pt x="469" y="651" on="1"/>
        <pt x="515" y="695" on="0"/>
        <pt x="534" y="718" on="1"/>
        <pt x="550" y="706" on="1"/>
        <pt x="497" y="637" on="0"/>
        <pt x="486" y="562" on="1"/>
        <pt x="453" y="571" on="1"/>
        <pt x="387" y="589" on="0"/>
        <pt x="305" y="595" on="1"/>
        <pt x="298" y="486" on="0"/>
        <pt x="298" y="131" on="0"/>
        <pt x="311" y="35" on="1"/>
        <pt x="361" y="30" on="0"/>
        <pt x="421" y="16" on="1"/>
        <pt x="418" y="-8" on="1"/>
        <pt x="344" y="0" on="0"/>
        <pt x="171" y="0" on="0"/>
        <pt x="118" y="-8" on="1"/>
        <pt x="114" y="17" on="1"/>
        <pt x="159" y="31" on="0"/>
        <pt x="210" y="38" on="1"/>
        <pt x="221" y="120" on="0"/>
        <pt x="221" y="296" on="1"/>
        <pt x="221" y="355" on="1"/>
        <pt x="221" y="454" on="0"/>
        <pt x="209" y="598" on="1"/>
        <pt x="183" y="598" on="1"/>
        <pt x="65" y="598" on="0"/>
        <pt x="32" y="566" on="1"/>
        <pt x="25" y="552" on="0"/>
        <pt x="25" y="492" on="0"/>
        <pt x="35" y="481" on="1"/>
        <pt x="34" y="474" on="1"/>
        <pt x="9" y="459" on="0"/>
        <pt x="-16" y="432" on="1"/>
        <pt x="-28" y="433" on="0"/>
        <pt x="-43" y="451" on="0"/>
        <pt x="-43" y="463" on="1"/>
        <pt x="-43" y="512" on="0"/>
        <pt x="75" y="648" on="0"/>
        <pt x="126" y="666" on="1"/>
      </contour>
    </TTGlyph>
    <TTGlyph name="Thorn" xMin="21" yMin="-8" xMax="511" yMax="659">
      <contour>
        <pt x="211" y="525" on="1"/>
        <pt x="305" y="528" on="1"/>
        <pt x="511" y="528" on="0"/>
        <pt x="511" y="364" on="1"/>
        <pt x="511" y="275" on="0"/>
        <pt x="365" y="165" on="0"/>
        <pt x="268" y="165" on="1"/>
        <pt x="253" y="165" on="0"/>
        <pt x="246" y="166" on="1"/>
        <pt x="250" y="198" on="1"/>
        <pt x="262" y="198" on="1"/>
        <pt x="337" y="198" on="0"/>
        <pt x="417" y="274" on="0"/>
        <pt x="417" y="420" on="0"/>
        <pt x="355" y="491" on="0"/>
        <pt x="288" y="491" on="1"/>
        <pt x="248" y="491" on="0"/>
        <pt x="210" y="478" on="1"/>
        <pt x="209" y="478" on="1"/>
        <pt x="207" y="438" on="0"/>
        <pt x="207" y="131" on="0"/>
        <pt x="220" y="35" on="1"/>
        <pt x="273" y="30" on="0"/>
        <pt x="330" y="16" on="1"/>
        <pt x="327" y="-8" on="1"/>
        <pt x="253" y="0" on="0"/>
        <pt x="80" y="0" on="0"/>
        <pt x="27" y="-8" on="1"/>
        <pt x="23" y="17" on="1"/>
        <pt x="68" y="31" on="0"/>
        <pt x="119" y="38" on="1"/>
        <pt x="130" y="120" on="0"/>
        <pt x="130" y="296" on="1"/>
        <pt x="130" y="355" on="1"/>
        <pt x="130" y="517" on="0"/>
        <pt x="117" y="613" on="1"/>
        <pt x="66" y="620" on="0"/>
        <pt x="21" y="634" on="1"/>
        <pt x="25" y="659" on="1"/>
        <pt x="78" y="651" on="0"/>
        <pt x="251" y="651" on="0"/>
        <pt x="325" y="659" on="1"/>
        <pt x="328" y="635" on="1"/>
        <pt x="271" y="621" on="0"/>
        <pt x="218" y="616" on="1"/>
        <pt x="214" y="597" on="0"/>
      </contour>
    </TTGlyph>
    <TTGlyph name="U" xMin="-112" yMin="-15" xMax="658" yMax="664">
      <contour>
        <pt x="197" y="549" on="1"/>
        <pt x="183" y="423" on="0"/>
        <pt x="183" y="227" on="0"/>
        <pt x="193" y="158" on="0"/>
        <pt x="208" y="128" on="1"/>
        <pt x="237" y="66" on="0"/>
        <pt x="403" y="66" on="0"/>
        <pt x="453" y="112" on="1"/>
        <pt x="458" y="242" on="0"/>
        <pt x="458" y="502" on="0"/>
        <pt x="447" y="616" on="1"/>
        <pt x="396" y="623" on="0"/>
        <pt x="351" y="637" on="1"/>
        <pt x="355" y="659" on="1"/>
        <pt x="416" y="651" on="0"/>
        <pt x="591" y="651" on="0"/>
        <pt x="655" y="659" on="1"/>
        <pt x="658" y="638" on="1"/>
        <pt x="601" y="624" on="0"/>
        <pt x="548" y="619" on="1"/>
        <pt x="535" y="545" on="0"/>
        <pt x="535" y="355" on="1"/>
        <pt x="535" y="296" on="1"/>
        <pt x="535" y="109" on="0"/>
        <pt x="548" y="35" on="1"/>
        <pt x="601" y="30" on="0"/>
        <pt x="658" y="16" on="1"/>
        <pt x="655" y="-8" on="1"/>
        <pt x="591" y="0" on="0"/>
        <pt x="459" y="0" on="0"/>
        <pt x="441" y="-1" on="1"/>
        <pt x="438" y="13" on="1"/>
        <pt x="447" y="24" on="0"/>
        <pt x="451" y="84" on="1"/>
        <pt x="393" y="19" on="0"/>
        <pt x="305" y="-15" on="1"/>
        <pt x="192" y="-15" on="0"/>
        <pt x="103" y="116" on="0"/>
        <pt x="103" y="241" on="1"/>
        <pt x="103" y="298" on="0"/>
        <pt x="117" y="546" on="0"/>
        <pt x="117" y="576" on="0"/>
        <pt x="114" y="596" on="1"/>
        <pt x="-4" y="596" on="0"/>
        <pt x="-37" y="564" on="1"/>
        <pt x="-44" y="550" on="0"/>
        <pt x="-44" y="490" on="0"/>
        <pt x="-34" y="479" on="1"/>
        <pt x="-35" y="472" on="1"/>
        <pt x="-60" y="457" on="0"/>
        <pt x="-85" y="430" on="1"/>
        <pt x="-97" y="431" on="0"/>
        <pt x="-112" y="449" on="0"/>
        <pt x="-112" y="461" on="1"/>
        <pt x="-112" y="510" on="0"/>
        <pt x="6" y="646" on="0"/>
        <pt x="57" y="664" on="1"/>
        <pt x="80" y="663" on="0"/>
        <pt x="155" y="651" on="0"/>
        <pt x="217" y="651" on="0"/>
        <pt x="245" y="655" on="1"/>
        <pt x="249" y="641" on="1"/>
        <pt x="204" y="616" on="0"/>
      </contour>
    </TTGlyph>
    <TTGlyph name="Uacute" xMin="-112" yMin="-15" xMax="658" yMax="868">
      <contour>
        <pt x="538" y="797" on="1"/>
        <pt x="332" y="722" on="1"/>
        <pt x="324" y="742" on="1"/>
        <pt x="406" y="778" on="0"/>
        <pt x="481" y="868" on="1"/>
        <pt x="503" y="866" on="0"/>
        <pt x="523" y="859" on="1"/>
        <pt x="528" y="850" on="0"/>
        <pt x="539" y="807" on="0"/>
      </contour>
      <contour>
        <pt x="197" y="549" on="1"/>
        <pt x="183" y="423" on="0"/>
        <pt x="183" y="227" on="0"/>
        <pt x="193" y="158" on="0"/>
        <pt x="208" y="128" on="1"/>
        <pt x="237" y="66" on="0"/>
        <pt x="403" y="66" on="0"/>
        <pt x="453" y="112" on="1"/>
        <pt x="458" y="242" on="0"/>
        <pt x="458" y="502" on="0"/>
        <pt x="447" y="616" on="1"/>
        <pt x="396" y="623" on="0"/>
        <pt x="351" y="637" on="1"/>
        <pt x="355" y="659" on="1"/>
        <pt x="416" y="651" on="0"/>
        <pt x="591" y="651" on="0"/>
        <pt x="655" y="659" on="1"/>
        <pt x="658" y="638" on="1"/>
        <pt x="601" y="624" on="0"/>
        <pt x="548" y="619" on="1"/>
        <pt x="535" y="545" on="0"/>
        <pt x="535" y="355" on="1"/>
        <pt x="535" y="296" on="1"/>
        <pt x="535" y="109" on="0"/>
        <pt x="548" y="35" on="1"/>
        <pt x="601" y="30" on="0"/>
        <pt x="658" y="16" on="1"/>
        <pt x="655" y="-8" on="1"/>
        <pt x="591" y="0" on="0"/>
        <pt x="459" y="0" on="0"/>
        <pt x="441" y="-1" on="1"/>
        <pt x="438" y="13" on="1"/>
        <pt x="447" y="24" on="0"/>
        <pt x="451" y="84" on="1"/>
        <pt x="393" y="19" on="0"/>
        <pt x="305" y="-15" on="1"/>
        <pt x="192" y="-15" on="0"/>
        <pt x="103" y="116" on="0"/>
        <pt x="103" y="241" on="1"/>
        <pt x="103" y="298" on="0"/>
        <pt x="117" y="546" on="0"/>
        <pt x="117" y="576" on="0"/>
        <pt x="114" y="596" on="1"/>
        <pt x="-4" y="596" on="0"/>
        <pt x="-37" y="564" on="1"/>
        <pt x="-44" y="550" on="0"/>
        <pt x="-44" y="490" on="0"/>
        <pt x="-34" y="479" on="1"/>
        <pt x="-35" y="472" on="1"/>
        <pt x="-60" y="457" on="0"/>
        <pt x="-85" y="430" on="1"/>
        <pt x="-97" y="431" on="0"/>
        <pt x="-112" y="449" on="0"/>
        <pt x="-112" y="461" on="1"/>
        <pt x="-112" y="510" on="0"/>
        <pt x="6" y="646" on="0"/>
        <pt x="57" y="664" on="1"/>
        <pt x="80" y="663" on="0"/>
        <pt x="155" y="651" on="0"/>
        <pt x="217" y="651" on="0"/>
        <pt x="245" y="655" on="1"/>
        <pt x="249" y="641" on="1"/>
        <pt x="204" y="616" on="0"/>
      </contour>
    </TTGlyph>
    <TTGlyph name="Ucircumflex" xMin="-112" yMin="-15" xMax="658" yMax="885">
      <contour>
        <pt x="516" y="715" on="1"/>
        <pt x="355" y="790" on="1"/>
        <pt x="194" y="715" on="1"/>
        <pt x="184" y="734" on="1"/>
        <pt x="276" y="792" on="0"/>
        <pt x="345" y="885" on="1"/>
        <pt x="365" y="885" on="1"/>
        <pt x="434" y="792" on="0"/>
        <pt x="526" y="734" on="1"/>
      </contour>
      <contour>
        <pt x="197" y="549" on="1"/>
        <pt x="183" y="423" on="0"/>
        <pt x="183" y="227" on="0"/>
        <pt x="193" y="158" on="0"/>
        <pt x="208" y="128" on="1"/>
        <pt x="237" y="66" on="0"/>
        <pt x="403" y="66" on="0"/>
        <pt x="453" y="112" on="1"/>
        <pt x="458" y="242" on="0"/>
        <pt x="458" y="502" on="0"/>
        <pt x="447" y="616" on="1"/>
        <pt x="396" y="623" on="0"/>
        <pt x="351" y="637" on="1"/>
        <pt x="355" y="659" on="1"/>
        <pt x="416" y="651" on="0"/>
        <pt x="591" y="651" on="0"/>
        <pt x="655" y="659" on="1"/>
        <pt x="658" y="638" on="1"/>
        <pt x="601" y="624" on="0"/>
        <pt x="548" y="619" on="1"/>
        <pt x="535" y="545" on="0"/>
        <pt x="535" y="355" on="1"/>
        <pt x="535" y="296" on="1"/>
        <pt x="535" y="109" on="0"/>
        <pt x="548" y="35" on="1"/>
        <pt x="601" y="30" on="0"/>
        <pt x="658" y="16" on="1"/>
        <pt x="655" y="-8" on="1"/>
        <pt x="591" y="0" on="0"/>
        <pt x="459" y="0" on="0"/>
        <pt x="441" y="-1" on="1"/>
        <pt x="438" y="13" on="1"/>
        <pt x="447" y="24" on="0"/>
        <pt x="451" y="84" on="1"/>
        <pt x="393" y="19" on="0"/>
        <pt x="305" y="-15" on="1"/>
        <pt x="192" y="-15" on="0"/>
        <pt x="103" y="116" on="0"/>
        <pt x="103" y="241" on="1"/>
        <pt x="103" y="298" on="0"/>
        <pt x="117" y="546" on="0"/>
        <pt x="117" y="576" on="0"/>
        <pt x="114" y="596" on="1"/>
        <pt x="-4" y="596" on="0"/>
        <pt x="-37" y="564" on="1"/>
        <pt x="-44" y="550" on="0"/>
        <pt x="-44" y="490" on="0"/>
        <pt x="-34" y="479" on="1"/>
        <pt x="-35" y="472" on="1"/>
        <pt x="-60" y="457" on="0"/>
        <pt x="-85" y="430" on="1"/>
        <pt x="-97" y="431" on="0"/>
        <pt x="-112" y="449" on="0"/>
        <pt x="-112" y="461" on="1"/>
        <pt x="-112" y="510" on="0"/>
        <pt x="6" y="646" on="0"/>
        <pt x="57" y="664" on="1"/>
        <pt x="80" y="663" on="0"/>
        <pt x="155" y="651" on="0"/>
        <pt x="217" y="651" on="0"/>
        <pt x="245" y="655" on="1"/>
        <pt x="249" y="641" on="1"/>
        <pt x="204" y="616" on="0"/>
      </contour>
    </TTGlyph>
    <TTGlyph name="Udieresis" xMin="-112" yMin="-15" xMax="658" yMax="853">
      <contour>
        <pt x="317" y="803" on="1"/>
        <pt x="310" y="790" on="0"/>
        <pt x="275" y="750" on="0"/>
        <pt x="263" y="742" on="1"/>
        <pt x="251" y="750" on="0"/>
        <pt x="216" y="790" on="0"/>
        <pt x="209" y="803" on="1"/>
        <pt x="215" y="815" on="0"/>
        <pt x="249" y="846" on="0"/>
        <pt x="263" y="853" on="1"/>
        <pt x="276" y="845" on="0"/>
        <pt x="310" y="814" on="0"/>
      </contour>
      <contour>
        <pt x="502" y="803" on="1"/>
        <pt x="495" y="790" on="0"/>
        <pt x="460" y="750" on="0"/>
        <pt x="448" y="742" on="1"/>
        <pt x="436" y="750" on="0"/>
        <pt x="401" y="790" on="0"/>
        <pt x="394" y="803" on="1"/>
        <pt x="400" y="815" on="0"/>
        <pt x="434" y="846" on="0"/>
        <pt x="448" y="853" on="1"/>
        <pt x="461" y="845" on="0"/>
        <pt x="495" y="814" on="0"/>
      </contour>
      <contour>
        <pt x="197" y="549" on="1"/>
        <pt x="183" y="423" on="0"/>
        <pt x="183" y="227" on="0"/>
        <pt x="193" y="158" on="0"/>
        <pt x="208" y="128" on="1"/>
        <pt x="237" y="66" on="0"/>
        <pt x="403" y="66" on="0"/>
        <pt x="453" y="112" on="1"/>
        <pt x="458" y="242" on="0"/>
        <pt x="458" y="502" on="0"/>
        <pt x="447" y="616" on="1"/>
        <pt x="396" y="623" on="0"/>
        <pt x="351" y="637" on="1"/>
        <pt x="355" y="659" on="1"/>
        <pt x="416" y="651" on="0"/>
        <pt x="591" y="651" on="0"/>
        <pt x="655" y="659" on="1"/>
        <pt x="658" y="638" on="1"/>
        <pt x="601" y="624" on="0"/>
        <pt x="548" y="619" on="1"/>
        <pt x="535" y="545" on="0"/>
        <pt x="535" y="355" on="1"/>
        <pt x="535" y="296" on="1"/>
        <pt x="535" y="109" on="0"/>
        <pt x="548" y="35" on="1"/>
        <pt x="601" y="30" on="0"/>
        <pt x="658" y="16" on="1"/>
        <pt x="655" y="-8" on="1"/>
        <pt x="591" y="0" on="0"/>
        <pt x="459" y="0" on="0"/>
        <pt x="441" y="-1" on="1"/>
        <pt x="438" y="13" on="1"/>
        <pt x="447" y="24" on="0"/>
        <pt x="451" y="84" on="1"/>
        <pt x="393" y="19" on="0"/>
        <pt x="305" y="-15" on="1"/>
        <pt x="192" y="-15" on="0"/>
        <pt x="103" y="116" on="0"/>
        <pt x="103" y="241" on="1"/>
        <pt x="103" y="298" on="0"/>
        <pt x="117" y="546" on="0"/>
        <pt x="117" y="576" on="0"/>
        <pt x="114" y="596" on="1"/>
        <pt x="-4" y="596" on="0"/>
        <pt x="-37" y="564" on="1"/>
        <pt x="-44" y="550" on="0"/>
        <pt x="-44" y="490" on="0"/>
        <pt x="-34" y="479" on="1"/>
        <pt x="-35" y="472" on="1"/>
        <pt x="-60" y="457" on="0"/>
        <pt x="-85" y="430" on="1"/>
        <pt x="-97" y="431" on="0"/>
        <pt x="-112" y="449" on="0"/>
        <pt x="-112" y="461" on="1"/>
        <pt x="-112" y="510" on="0"/>
        <pt x="6" y="646" on="0"/>
        <pt x="57" y="664" on="1"/>
        <pt x="80" y="663" on="0"/>
        <pt x="155" y="651" on="0"/>
        <pt x="217" y="651" on="0"/>
        <pt x="245" y="655" on="1"/>
        <pt x="249" y="641" on="1"/>
        <pt x="204" y="616" on="0"/>
      </contour>
    </TTGlyph>
    <TTGlyph name="Ugrave" xMin="-112" yMin="-15" xMax="658" yMax="877">
      <contour>
        <pt x="392" y="731" on="1"/>
        <pt x="186" y="806" on="1"/>
        <pt x="185" y="816" on="0"/>
        <pt x="196" y="859" on="0"/>
        <pt x="201" y="868" on="1"/>
        <pt x="221" y="875" on="0"/>
        <pt x="243" y="877" on="1"/>
        <pt x="318" y="787" on="0"/>
        <pt x="400" y="751" on="1"/>
      </contour>
      <contour>
        <pt x="197" y="549" on="1"/>
        <pt x="183" y="423" on="0"/>
        <pt x="183" y="227" on="0"/>
        <pt x="193" y="158" on="0"/>
        <pt x="208" y="128" on="1"/>
        <pt x="237" y="66" on="0"/>
        <pt x="403" y="66" on="0"/>
        <pt x="453" y="112" on="1"/>
        <pt x="458" y="242" on="0"/>
        <pt x="458" y="502" on="0"/>
        <pt x="447" y="616" on="1"/>
        <pt x="396" y="623" on="0"/>
        <pt x="351" y="637" on="1"/>
        <pt x="355" y="659" on="1"/>
        <pt x="416" y="651" on="0"/>
        <pt x="591" y="651" on="0"/>
        <pt x="655" y="659" on="1"/>
        <pt x="658" y="638" on="1"/>
        <pt x="601" y="624" on="0"/>
        <pt x="548" y="619" on="1"/>
        <pt x="535" y="545" on="0"/>
        <pt x="535" y="355" on="1"/>
        <pt x="535" y="296" on="1"/>
        <pt x="535" y="109" on="0"/>
        <pt x="548" y="35" on="1"/>
        <pt x="601" y="30" on="0"/>
        <pt x="658" y="16" on="1"/>
        <pt x="655" y="-8" on="1"/>
        <pt x="591" y="0" on="0"/>
        <pt x="459" y="0" on="0"/>
        <pt x="441" y="-1" on="1"/>
        <pt x="438" y="13" on="1"/>
        <pt x="447" y="24" on="0"/>
        <pt x="451" y="84" on="1"/>
        <pt x="393" y="19" on="0"/>
        <pt x="305" y="-15" on="1"/>
        <pt x="192" y="-15" on="0"/>
        <pt x="103" y="116" on="0"/>
        <pt x="103" y="241" on="1"/>
        <pt x="103" y="298" on="0"/>
        <pt x="117" y="546" on="0"/>
        <pt x="117" y="576" on="0"/>
        <pt x="114" y="596" on="1"/>
        <pt x="-4" y="596" on="0"/>
        <pt x="-37" y="564" on="1"/>
        <pt x="-44" y="550" on="0"/>
        <pt x="-44" y="490" on="0"/>
        <pt x="-34" y="479" on="1"/>
        <pt x="-35" y="472" on="1"/>
        <pt x="-60" y="457" on="0"/>
        <pt x="-85" y="430" on="1"/>
        <pt x="-97" y="431" on="0"/>
        <pt x="-112" y="449" on="0"/>
        <pt x="-112" y="461" on="1"/>
        <pt x="-112" y="510" on="0"/>
        <pt x="6" y="646" on="0"/>
        <pt x="57" y="664" on="1"/>
        <pt x="80" y="663" on="0"/>
        <pt x="155" y="651" on="0"/>
        <pt x="217" y="651" on="0"/>
        <pt x="245" y="655" on="1"/>
        <pt x="249" y="641" on="1"/>
        <pt x="204" y="616" on="0"/>
      </contour>
    </TTGlyph>
    <TTGlyph name="V" xMin="-164" yMin="-8" xMax="633" yMax="664">
      <contour>
        <pt x="423" y="-8" on="1"/>
        <pt x="364" y="0" on="0"/>
        <pt x="219" y="0" on="0"/>
        <pt x="188" y="-4" on="1"/>
        <pt x="184" y="10" on="1"/>
        <pt x="196" y="14" on="0"/>
        <pt x="218" y="31" on="0"/>
        <pt x="218" y="41" on="1"/>
        <pt x="218" y="114" on="0"/>
        <pt x="85" y="529" on="1"/>
        <pt x="73" y="567" on="0"/>
        <pt x="61" y="596" on="1"/>
        <pt x="-56" y="596" on="0"/>
        <pt x="-89" y="564" on="1"/>
        <pt x="-96" y="550" on="0"/>
        <pt x="-96" y="490" on="0"/>
        <pt x="-86" y="479" on="1"/>
        <pt x="-87" y="472" on="1"/>
        <pt x="-112" y="457" on="0"/>
        <pt x="-137" y="430" on="1"/>
        <pt x="-149" y="431" on="0"/>
        <pt x="-164" y="449" on="0"/>
        <pt x="-164" y="461" on="1"/>
        <pt x="-164" y="510" on="0"/>
        <pt x="-46" y="646" on="0"/>
        <pt x="5" y="664" on="1"/>
        <pt x="13" y="664" on="0"/>
        <pt x="141" y="651" on="0"/>
        <pt x="214" y="651" on="0"/>
        <pt x="245" y="657" on="1"/>
        <pt x="249" y="632" on="1"/>
        <pt x="217" y="620" on="0"/>
        <pt x="164" y="606" on="1"/>
        <pt x="174" y="521" on="0"/>
        <pt x="259" y="204" on="0"/>
        <pt x="307" y="69" on="1"/>
        <pt x="391" y="255" on="0"/>
        <pt x="448" y="448" on="0"/>
        <pt x="448" y="518" on="1"/>
        <pt x="448" y="612" on="0"/>
        <pt x="398" y="641" on="1"/>
        <pt x="402" y="655" on="1"/>
        <pt x="433" y="651" on="0"/>
        <pt x="570" y="651" on="0"/>
        <pt x="629" y="659" on="1"/>
        <pt x="633" y="634" on="1"/>
        <pt x="588" y="620" on="0"/>
        <pt x="537" y="613" on="1"/>
        <pt x="542" y="578" on="0"/>
        <pt x="542" y="555" on="1"/>
        <pt x="542" y="467" on="0"/>
        <pt x="455" y="265" on="0"/>
        <pt x="331" y="35" on="1"/>
        <pt x="382" y="28" on="0"/>
        <pt x="427" y="14" on="1"/>
      </contour>
    </TTGlyph>
    <TTGlyph name="W" xMin="-164" yMin="-4" xMax="940" yMax="664">
      <contour>
        <pt x="373" y="-4" on="1"/>
        <pt x="325" y="0" on="0"/>
        <pt x="219" y="0" on="0"/>
        <pt x="188" y="-4" on="1"/>
        <pt x="184" y="10" on="1"/>
        <pt x="196" y="14" on="0"/>
        <pt x="218" y="31" on="0"/>
        <pt x="218" y="41" on="1"/>
        <pt x="218" y="114" on="0"/>
        <pt x="85" y="529" on="1"/>
        <pt x="73" y="567" on="0"/>
        <pt x="61" y="596" on="1"/>
        <pt x="-56" y="596" on="0"/>
        <pt x="-89" y="564" on="1"/>
        <pt x="-96" y="550" on="0"/>
        <pt x="-96" y="490" on="0"/>
        <pt x="-86" y="479" on="1"/>
        <pt x="-87" y="472" on="1"/>
        <pt x="-112" y="457" on="0"/>
        <pt x="-137" y="430" on="1"/>
        <pt x="-149" y="431" on="0"/>
        <pt x="-164" y="449" on="0"/>
        <pt x="-164" y="461" on="1"/>
        <pt x="-164" y="510" on="0"/>
        <pt x="-46" y="646" on="0"/>
        <pt x="5" y="664" on="1"/>
        <pt x="13" y="664" on="0"/>
        <pt x="141" y="651" on="0"/>
        <pt x="179" y="651" on="1"/>
        <pt x="296" y="651" on="1"/>
        <pt x="512" y="651" on="0"/>
        <pt x="609" y="661" on="1"/>
        <pt x="613" y="636" on="1"/>
        <pt x="569" y="622" on="0"/>
        <pt x="517" y="613" on="1"/>
        <pt x="522" y="578" on="0"/>
        <pt x="522" y="521" on="0"/>
        <pt x="514" y="478" on="1"/>
        <pt x="552" y="308" on="0"/>
        <pt x="634" y="69" on="1"/>
        <pt x="708" y="256" on="0"/>
        <pt x="755" y="449" on="0"/>
        <pt x="755" y="518" on="1"/>
        <pt x="755" y="612" on="0"/>
        <pt x="705" y="641" on="1"/>
        <pt x="709" y="655" on="1"/>
        <pt x="740" y="651" on="0"/>
        <pt x="877" y="651" on="0"/>
        <pt x="936" y="659" on="1"/>
        <pt x="940" y="634" on="1"/>
        <pt x="895" y="620" on="0"/>
        <pt x="844" y="613" on="1"/>
        <pt x="849" y="578" on="0"/>
        <pt x="849" y="555" on="1"/>
        <pt x="849" y="471" on="0"/>
        <pt x="766" y="253" on="0"/>
        <pt x="657" y="34" on="1"/>
        <pt x="674" y="25" on="0"/>
        <pt x="703" y="17" on="1"/>
        <pt x="700" y="-4" on="1"/>
        <pt x="652" y="0" on="0"/>
        <pt x="546" y="0" on="0"/>
        <pt x="515" y="-4" on="1"/>
        <pt x="511" y="10" on="1"/>
        <pt x="523" y="14" on="0"/>
        <pt x="545" y="31" on="0"/>
        <pt x="545" y="41" on="1"/>
        <pt x="545" y="100" on="0"/>
        <pt x="474" y="340" on="1"/>
        <pt x="470" y="340" on="1"/>
        <pt x="423" y="219" on="0"/>
        <pt x="330" y="34" on="1"/>
        <pt x="347" y="25" on="0"/>
        <pt x="376" y="17" on="1"/>
      </contour>
      <contour>
        <pt x="381" y="256" on="0"/>
        <pt x="428" y="449" on="0"/>
        <pt x="428" y="586" on="0"/>
        <pt x="378" y="627" on="0"/>
        <pt x="223" y="627" on="0"/>
        <pt x="164" y="609" on="1"/>
        <pt x="173" y="527" on="0"/>
        <pt x="258" y="205" on="0"/>
        <pt x="307" y="69" on="1"/>
      </contour>
    </TTGlyph>
    <TTGlyph name="X" xMin="-82" yMin="-8" xMax="659" yMax="664">
      <contour>
        <pt x="452" y="609" on="1"/>
        <pt x="452" y="631" on="0"/>
        <pt x="432" y="641" on="1"/>
        <pt x="436" y="655" on="1"/>
        <pt x="486" y="651" on="0"/>
        <pt x="597" y="651" on="0"/>
        <pt x="649" y="659" on="1"/>
        <pt x="654" y="634" on="1"/>
        <pt x="606" y="619" on="0"/>
        <pt x="557" y="613" on="1"/>
        <pt x="504" y="529" on="0"/>
        <pt x="367" y="348" on="1"/>
        <pt x="563" y="38" on="1"/>
        <pt x="614" y="31" on="0"/>
        <pt x="659" y="17" on="1"/>
        <pt x="655" y="-8" on="1"/>
        <pt x="596" y="0" on="0"/>
        <pt x="459" y="0" on="0"/>
        <pt x="428" y="-4" on="1"/>
        <pt x="424" y="10" on="1"/>
        <pt x="428" y="18" on="0"/>
        <pt x="428" y="32" on="1"/>
        <pt x="428" y="97" on="0"/>
        <pt x="313" y="286" on="1"/>
        <pt x="184" y="71" on="0"/>
        <pt x="184" y="35" on="1"/>
        <pt x="237" y="30" on="0"/>
        <pt x="294" y="16" on="1"/>
        <pt x="291" y="-8" on="1"/>
        <pt x="211" y="0" on="0"/>
        <pt x="48" y="0" on="0"/>
        <pt x="-9" y="-8" on="1"/>
        <pt x="-14" y="17" on="1"/>
        <pt x="34" y="32" on="0"/>
        <pt x="83" y="38" on="1"/>
        <pt x="143" y="133" on="0"/>
        <pt x="287" y="327" on="1"/>
        <pt x="126" y="596" on="1"/>
        <pt x="26" y="596" on="0"/>
        <pt x="-7" y="564" on="1"/>
        <pt x="-14" y="550" on="0"/>
        <pt x="-14" y="490" on="0"/>
        <pt x="-4" y="479" on="1"/>
        <pt x="-5" y="472" on="1"/>
        <pt x="-30" y="457" on="0"/>
        <pt x="-55" y="430" on="1"/>
        <pt x="-67" y="431" on="0"/>
        <pt x="-82" y="449" on="0"/>
        <pt x="-82" y="461" on="1"/>
        <pt x="-82" y="510" on="0"/>
        <pt x="36" y="646" on="0"/>
        <pt x="87" y="664" on="1"/>
        <pt x="95" y="664" on="0"/>
        <pt x="223" y="651" on="0"/>
        <pt x="296" y="651" on="0"/>
        <pt x="327" y="657" on="1"/>
        <pt x="331" y="632" on="1"/>
        <pt x="292" y="617" on="0"/>
        <pt x="242" y="605" on="1"/>
        <pt x="250" y="540" on="0"/>
        <pt x="342" y="387" on="1"/>
        <pt x="452" y="567" on="0"/>
      </contour>
    </TTGlyph>
    <TTGlyph name="Y" xMin="-166" yMin="-8" xMax="604" yMax="773">
      <contour>
        <pt x="234" y="245" on="1"/>
        <pt x="234" y="271" on="1"/>
        <pt x="64" y="635" on="1"/>
        <pt x="25" y="719" on="0"/>
        <pt x="-21" y="740" on="1"/>
        <pt x="-39" y="740" on="0"/>
        <pt x="-91" y="714" on="0"/>
        <pt x="-97" y="701" on="1"/>
        <pt x="-103" y="699" on="1"/>
        <pt x="-130" y="717" on="0"/>
        <pt x="-163" y="727" on="1"/>
        <pt x="-166" y="733" on="0"/>
        <pt x="-166" y="754" on="0"/>
        <pt x="-133" y="773" on="0"/>
        <pt x="-103" y="773" on="1"/>
        <pt x="-40" y="773" on="0"/>
        <pt x="131" y="703" on="0"/>
        <pt x="164" y="666" on="1"/>
        <pt x="185" y="576" on="0"/>
        <pt x="236" y="447" on="0"/>
        <pt x="291" y="337" on="1"/>
        <pt x="402" y="554" on="0"/>
        <pt x="402" y="609" on="1"/>
        <pt x="402" y="631" on="0"/>
        <pt x="382" y="641" on="1"/>
        <pt x="386" y="655" on="1"/>
        <pt x="436" y="651" on="0"/>
        <pt x="547" y="651" on="0"/>
        <pt x="599" y="659" on="1"/>
        <pt x="604" y="634" on="1"/>
        <pt x="556" y="619" on="0"/>
        <pt x="507" y="613" on="1"/>
        <pt x="311" y="298" on="1"/>
        <pt x="311" y="131" on="0"/>
        <pt x="324" y="35" on="1"/>
        <pt x="377" y="30" on="0"/>
        <pt x="434" y="16" on="1"/>
        <pt x="431" y="-8" on="1"/>
        <pt x="357" y="0" on="0"/>
        <pt x="184" y="0" on="0"/>
        <pt x="131" y="-8" on="1"/>
        <pt x="127" y="17" on="1"/>
        <pt x="172" y="31" on="0"/>
        <pt x="223" y="38" on="1"/>
        <pt x="234" y="120" on="0"/>
      </contour>
    </TTGlyph>
    <TTGlyph name="Yacute" xMin="-166" yMin="-8" xMax="604" yMax="868">
      <contour>
        <pt x="493" y="797" on="1"/>
        <pt x="287" y="722" on="1"/>
        <pt x="279" y="742" on="1"/>
        <pt x="361" y="778" on="0"/>
        <pt x="436" y="868" on="1"/>
        <pt x="458" y="866" on="0"/>
        <pt x="478" y="859" on="1"/>
        <pt x="483" y="850" on="0"/>
        <pt x="494" y="807" on="0"/>
      </contour>
      <contour>
        <pt x="234" y="245" on="1"/>
        <pt x="234" y="271" on="1"/>
        <pt x="64" y="635" on="1"/>
        <pt x="25" y="719" on="0"/>
        <pt x="-21" y="740" on="1"/>
        <pt x="-39" y="740" on="0"/>
        <pt x="-91" y="714" on="0"/>
        <pt x="-97" y="701" on="1"/>
        <pt x="-103" y="699" on="1"/>
        <pt x="-130" y="717" on="0"/>
        <pt x="-163" y="727" on="1"/>
        <pt x="-166" y="733" on="0"/>
        <pt x="-166" y="754" on="0"/>
        <pt x="-133" y="773" on="0"/>
        <pt x="-103" y="773" on="1"/>
        <pt x="-40" y="773" on="0"/>
        <pt x="131" y="703" on="0"/>
        <pt x="164" y="666" on="1"/>
        <pt x="185" y="576" on="0"/>
        <pt x="236" y="447" on="0"/>
        <pt x="291" y="337" on="1"/>
        <pt x="402" y="554" on="0"/>
        <pt x="402" y="609" on="1"/>
        <pt x="402" y="631" on="0"/>
        <pt x="382" y="641" on="1"/>
        <pt x="386" y="655" on="1"/>
        <pt x="436" y="651" on="0"/>
        <pt x="547" y="651" on="0"/>
        <pt x="599" y="659" on="1"/>
        <pt x="604" y="634" on="1"/>
        <pt x="556" y="619" on="0"/>
        <pt x="507" y="613" on="1"/>
        <pt x="311" y="298" on="1"/>
        <pt x="311" y="131" on="0"/>
        <pt x="324" y="35" on="1"/>
        <pt x="377" y="30" on="0"/>
        <pt x="434" y="16" on="1"/>
        <pt x="431" y="-8" on="1"/>
        <pt x="357" y="0" on="0"/>
        <pt x="184" y="0" on="0"/>
        <pt x="131" y="-8" on="1"/>
        <pt x="127" y="17" on="1"/>
        <pt x="172" y="31" on="0"/>
        <pt x="223" y="38" on="1"/>
        <pt x="234" y="120" on="0"/>
      </contour>
    </TTGlyph>
    <TTGlyph name="Ydieresis" xMin="-166" yMin="-8" xMax="604" yMax="853">
      <contour>
        <pt x="234" y="245" on="1"/>
        <pt x="234" y="271" on="1"/>
        <pt x="64" y="635" on="1"/>
        <pt x="25" y="719" on="0"/>
        <pt x="-21" y="740" on="1"/>
        <pt x="-39" y="740" on="0"/>
        <pt x="-91" y="714" on="0"/>
        <pt x="-97" y="701" on="1"/>
        <pt x="-103" y="699" on="1"/>
        <pt x="-130" y="717" on="0"/>
        <pt x="-163" y="727" on="1"/>
        <pt x="-166" y="733" on="0"/>
        <pt x="-166" y="754" on="0"/>
        <pt x="-133" y="773" on="0"/>
        <pt x="-103" y="773" on="1"/>
        <pt x="-40" y="773" on="0"/>
        <pt x="131" y="703" on="0"/>
        <pt x="164" y="666" on="1"/>
        <pt x="185" y="576" on="0"/>
        <pt x="236" y="447" on="0"/>
        <pt x="291" y="337" on="1"/>
        <pt x="402" y="554" on="0"/>
        <pt x="402" y="609" on="1"/>
        <pt x="402" y="631" on="0"/>
        <pt x="382" y="641" on="1"/>
        <pt x="386" y="655" on="1"/>
        <pt x="436" y="651" on="0"/>
        <pt x="547" y="651" on="0"/>
        <pt x="599" y="659" on="1"/>
        <pt x="604" y="634" on="1"/>
        <pt x="556" y="619" on="0"/>
        <pt x="507" y="613" on="1"/>
        <pt x="311" y="298" on="1"/>
        <pt x="311" y="131" on="0"/>
        <pt x="324" y="35" on="1"/>
        <pt x="377" y="30" on="0"/>
        <pt x="434" y="16" on="1"/>
        <pt x="431" y="-8" on="1"/>
        <pt x="357" y="0" on="0"/>
        <pt x="184" y="0" on="0"/>
        <pt x="131" y="-8" on="1"/>
        <pt x="127" y="17" on="1"/>
        <pt x="172" y="31" on="0"/>
        <pt x="223" y="38" on="1"/>
        <pt x="234" y="120" on="0"/>
      </contour>
      <contour>
        <pt x="264" y="803" on="1"/>
        <pt x="257" y="790" on="0"/>
        <pt x="222" y="750" on="0"/>
        <pt x="210" y="742" on="1"/>
        <pt x="198" y="750" on="0"/>
        <pt x="163" y="790" on="0"/>
        <pt x="156" y="803" on="1"/>
        <pt x="162" y="815" on="0"/>
        <pt x="196" y="846" on="0"/>
        <pt x="210" y="853" on="1"/>
        <pt x="223" y="845" on="0"/>
        <pt x="257" y="814" on="0"/>
      </contour>
      <contour>
        <pt x="449" y="803" on="1"/>
        <pt x="442" y="790" on="0"/>
        <pt x="407" y="750" on="0"/>
        <pt x="395" y="742" on="1"/>
        <pt x="383" y="750" on="0"/>
        <pt x="348" y="790" on="0"/>
        <pt x="341" y="803" on="1"/>
        <pt x="347" y="815" on="0"/>
        <pt x="381" y="846" on="0"/>
        <pt x="395" y="853" on="1"/>
        <pt x="408" y="845" on="0"/>
        <pt x="442" y="814" on="0"/>
      </contour>
    </TTGlyph>
    <TTGlyph name="Z" xMin="-37" yMin="-193" xMax="616" yMax="684">
      <contour>
        <pt x="123" y="611" on="1"/>
        <pt x="59" y="611" on="0"/>
        <pt x="59" y="545" on="1"/>
        <pt x="59" y="532" on="0"/>
        <pt x="62" y="522" on="1"/>
        <pt x="60" y="514" on="1"/>
        <pt x="27" y="505" on="0"/>
        <pt x="0" y="487" on="1"/>
        <pt x="-18" y="494" on="0"/>
        <pt x="-18" y="515" on="1"/>
        <pt x="-18" y="565" on="0"/>
        <pt x="133" y="665" on="0"/>
        <pt x="203" y="684" on="1"/>
        <pt x="300" y="648" on="0"/>
        <pt x="365" y="641" on="0"/>
        <pt x="383" y="641" on="1"/>
        <pt x="457" y="641" on="0"/>
        <pt x="489" y="679" on="1"/>
        <pt x="511" y="661" on="1"/>
        <pt x="461" y="615" on="0"/>
        <pt x="420" y="543" on="1"/>
        <pt x="154" y="84" on="1"/>
        <pt x="205" y="61" on="0"/>
        <pt x="314" y="-21" on="0"/>
        <pt x="350" y="-55" on="1"/>
        <pt x="441" y="-141" on="0"/>
        <pt x="485" y="-141" on="1"/>
        <pt x="506" y="-141" on="0"/>
        <pt x="535" y="-91" on="0"/>
        <pt x="535" y="-66" on="1"/>
        <pt x="539" y="-59" on="1"/>
        <pt x="572" y="-59" on="0"/>
        <pt x="604" y="-49" on="1"/>
        <pt x="616" y="-58" on="0"/>
        <pt x="616" y="-71" on="1"/>
        <pt x="616" y="-102" on="0"/>
        <pt x="512" y="-162" on="0"/>
        <pt x="392" y="-193" on="0"/>
        <pt x="355" y="-193" on="1"/>
        <pt x="262" y="-89" on="0"/>
        <pt x="141" y="6" on="0"/>
        <pt x="28" y="6" on="0"/>
        <pt x="-15" y="-35" on="1"/>
        <pt x="-37" y="-17" on="1"/>
        <pt x="21" y="37" on="0"/>
        <pt x="86" y="143" on="1"/>
        <pt x="359" y="593" on="1"/>
        <pt x="343" y="585" on="0"/>
        <pt x="325" y="580" on="1"/>
        <pt x="182" y="611" on="0"/>
      </contour>
    </TTGlyph>
    <TTGlyph name="Zcaron" xMin="-37" yMin="-193" xMax="616" yMax="885">
      <contour>
        <pt x="123" y="611" on="1"/>
        <pt x="59" y="611" on="0"/>
        <pt x="59" y="545" on="1"/>
        <pt x="59" y="532" on="0"/>
        <pt x="62" y="522" on="1"/>
        <pt x="60" y="514" on="1"/>
        <pt x="27" y="505" on="0"/>
        <pt x="0" y="487" on="1"/>
        <pt x="-18" y="494" on="0"/>
        <pt x="-18" y="515" on="1"/>
        <pt x="-18" y="565" on="0"/>
        <pt x="133" y="665" on="0"/>
        <pt x="203" y="684" on="1"/>
        <pt x="300" y="648" on="0"/>
        <pt x="365" y="641" on="0"/>
        <pt x="383" y="641" on="1"/>
        <pt x="457" y="641" on="0"/>
        <pt x="489" y="679" on="1"/>
        <pt x="511" y="661" on="1"/>
        <pt x="461" y="615" on="0"/>
        <pt x="420" y="543" on="1"/>
        <pt x="154" y="84" on="1"/>
        <pt x="205" y="61" on="0"/>
        <pt x="314" y="-21" on="0"/>
        <pt x="350" y="-55" on="1"/>
        <pt x="441" y="-141" on="0"/>
        <pt x="485" y="-141" on="1"/>
        <pt x="506" y="-141" on="0"/>
        <pt x="535" y="-91" on="0"/>
        <pt x="535" y="-66" on="1"/>
        <pt x="539" y="-59" on="1"/>
        <pt x="572" y="-59" on="0"/>
        <pt x="604" y="-49" on="1"/>
        <pt x="616" y="-58" on="0"/>
        <pt x="616" y="-71" on="1"/>
        <pt x="616" y="-102" on="0"/>
        <pt x="512" y="-162" on="0"/>
        <pt x="392" y="-193" on="0"/>
        <pt x="355" y="-193" on="1"/>
        <pt x="262" y="-89" on="0"/>
        <pt x="141" y="6" on="0"/>
        <pt x="28" y="6" on="0"/>
        <pt x="-15" y="-35" on="1"/>
        <pt x="-37" y="-17" on="1"/>
        <pt x="21" y="37" on="0"/>
        <pt x="86" y="143" on="1"/>
        <pt x="359" y="593" on="1"/>
        <pt x="343" y="585" on="0"/>
        <pt x="325" y="580" on="1"/>
        <pt x="182" y="611" on="0"/>
      </contour>
      <contour>
        <pt x="282" y="810" on="1"/>
        <pt x="443" y="885" on="1"/>
        <pt x="453" y="866" on="1"/>
        <pt x="361" y="808" on="0"/>
        <pt x="292" y="715" on="1"/>
        <pt x="272" y="715" on="1"/>
        <pt x="203" y="808" on="0"/>
        <pt x="111" y="866" on="1"/>
        <pt x="121" y="885" on="1"/>
      </contour>
    </TTGlyph>
    <TTGlyph name="a" xMin="-14" yMin="-8" xMax="503" yMax="532">
      <contour>
        <pt x="108" y="532" on="1"/>
        <pt x="202" y="521" on="0"/>
        <pt x="394" y="521" on="0"/>
        <pt x="487" y="532" on="1"/>
        <pt x="491" y="506" on="1"/>
        <pt x="461" y="494" on="0"/>
        <pt x="429" y="488" on="1"/>
        <pt x="418" y="406" on="0"/>
        <pt x="418" y="114" on="0"/>
        <pt x="429" y="32" on="1"/>
        <pt x="449" y="29" on="0"/>
        <pt x="503" y="17" on="1"/>
        <pt x="499" y="-8" on="1"/>
        <pt x="451" y="0" on="0"/>
        <pt x="301" y="0" on="0"/>
        <pt x="261" y="-8" on="1"/>
        <pt x="257" y="18" on="1"/>
        <pt x="291" y="29" on="0"/>
        <pt x="334" y="34" on="1"/>
        <pt x="340" y="92" on="0"/>
        <pt x="343" y="195" on="1"/>
        <pt x="296" y="200" on="0"/>
        <pt x="202" y="200" on="0"/>
        <pt x="167" y="195" on="1"/>
        <pt x="147" y="113" on="0"/>
        <pt x="147" y="81" on="1"/>
        <pt x="147" y="32" on="0"/>
        <pt x="182" y="12" on="1"/>
        <pt x="178" y="-5" on="1"/>
        <pt x="155" y="0" on="0"/>
        <pt x="27" y="0" on="0"/>
        <pt x="-10" y="-8" on="1"/>
        <pt x="-14" y="18" on="1"/>
        <pt x="10" y="27" on="0"/>
        <pt x="52" y="34" on="1"/>
        <pt x="182" y="490" on="1"/>
        <pt x="138" y="497" on="0"/>
        <pt x="105" y="506" on="1"/>
      </contour>
      <contour>
        <pt x="175" y="242" on="1"/>
        <pt x="214" y="236" on="0"/>
        <pt x="309" y="236" on="0"/>
        <pt x="343" y="242" on="1"/>
        <pt x="343" y="427" on="0"/>
        <pt x="335" y="481" on="1"/>
        <pt x="301" y="483" on="0"/>
        <pt x="268" y="483" on="0"/>
        <pt x="234" y="481" on="1"/>
      </contour>
    </TTGlyph>
    <TTGlyph name="aacute" xMin="-14" yMin="-8" xMax="503" yMax="728">
      <contour>
        <pt x="108" y="532" on="1"/>
        <pt x="202" y="521" on="0"/>
        <pt x="394" y="521" on="0"/>
        <pt x="487" y="532" on="1"/>
        <pt x="491" y="506" on="1"/>
        <pt x="461" y="494" on="0"/>
        <pt x="429" y="488" on="1"/>
        <pt x="418" y="406" on="0"/>
        <pt x="418" y="114" on="0"/>
        <pt x="429" y="32" on="1"/>
        <pt x="449" y="29" on="0"/>
        <pt x="503" y="17" on="1"/>
        <pt x="499" y="-8" on="1"/>
        <pt x="451" y="0" on="0"/>
        <pt x="301" y="0" on="0"/>
        <pt x="261" y="-8" on="1"/>
        <pt x="257" y="18" on="1"/>
        <pt x="291" y="29" on="0"/>
        <pt x="334" y="34" on="1"/>
        <pt x="340" y="92" on="0"/>
        <pt x="343" y="195" on="1"/>
        <pt x="296" y="200" on="0"/>
        <pt x="202" y="200" on="0"/>
        <pt x="167" y="195" on="1"/>
        <pt x="147" y="113" on="0"/>
        <pt x="147" y="81" on="1"/>
        <pt x="147" y="32" on="0"/>
        <pt x="182" y="12" on="1"/>
        <pt x="178" y="-5" on="1"/>
        <pt x="155" y="0" on="0"/>
        <pt x="27" y="0" on="0"/>
        <pt x="-10" y="-8" on="1"/>
        <pt x="-14" y="18" on="1"/>
        <pt x="10" y="27" on="0"/>
        <pt x="52" y="34" on="1"/>
        <pt x="182" y="490" on="1"/>
        <pt x="138" y="497" on="0"/>
        <pt x="105" y="506" on="1"/>
      </contour>
      <contour>
        <pt x="175" y="242" on="1"/>
        <pt x="214" y="236" on="0"/>
        <pt x="309" y="236" on="0"/>
        <pt x="343" y="242" on="1"/>
        <pt x="343" y="427" on="0"/>
        <pt x="335" y="481" on="1"/>
        <pt x="301" y="483" on="0"/>
        <pt x="268" y="483" on="0"/>
        <pt x="234" y="481" on="1"/>
      </contour>
      <contour>
        <pt x="403" y="727" on="1"/>
        <pt x="413" y="728" on="0"/>
        <pt x="436" y="728" on="0"/>
        <pt x="446" y="726" on="1"/>
        <pt x="453" y="718" on="0"/>
        <pt x="470" y="677" on="0"/>
        <pt x="471" y="667" on="1"/>
        <pt x="282" y="558" on="1"/>
        <pt x="271" y="576" on="1"/>
        <pt x="308" y="601" on="0"/>
        <pt x="379" y="685" on="0"/>
      </contour>
    </TTGlyph>
    <TTGlyph name="acircumflex" xMin="-14" yMin="-8" xMax="503" yMax="739">
      <contour>
        <pt x="108" y="532" on="1"/>
        <pt x="202" y="521" on="0"/>
        <pt x="394" y="521" on="0"/>
        <pt x="487" y="532" on="1"/>
        <pt x="491" y="506" on="1"/>
        <pt x="461" y="494" on="0"/>
        <pt x="429" y="488" on="1"/>
        <pt x="418" y="406" on="0"/>
        <pt x="418" y="114" on="0"/>
        <pt x="429" y="32" on="1"/>
        <pt x="449" y="29" on="0"/>
        <pt x="503" y="17" on="1"/>
        <pt x="499" y="-8" on="1"/>
        <pt x="451" y="0" on="0"/>
        <pt x="301" y="0" on="0"/>
        <pt x="261" y="-8" on="1"/>
        <pt x="257" y="18" on="1"/>
        <pt x="291" y="29" on="0"/>
        <pt x="334" y="34" on="1"/>
        <pt x="340" y="92" on="0"/>
        <pt x="343" y="195" on="1"/>
        <pt x="296" y="200" on="0"/>
        <pt x="202" y="200" on="0"/>
        <pt x="167" y="195" on="1"/>
        <pt x="147" y="113" on="0"/>
        <pt x="147" y="81" on="1"/>
        <pt x="147" y="32" on="0"/>
        <pt x="182" y="12" on="1"/>
        <pt x="178" y="-5" on="1"/>
        <pt x="155" y="0" on="0"/>
        <pt x="27" y="0" on="0"/>
        <pt x="-10" y="-8" on="1"/>
        <pt x="-14" y="18" on="1"/>
        <pt x="10" y="27" on="0"/>
        <pt x="52" y="34" on="1"/>
        <pt x="182" y="490" on="1"/>
        <pt x="138" y="497" on="0"/>
        <pt x="105" y="506" on="1"/>
      </contour>
      <contour>
        <pt x="175" y="242" on="1"/>
        <pt x="214" y="236" on="0"/>
        <pt x="309" y="236" on="0"/>
        <pt x="343" y="242" on="1"/>
        <pt x="343" y="427" on="0"/>
        <pt x="335" y="481" on="1"/>
        <pt x="301" y="483" on="0"/>
        <pt x="268" y="483" on="0"/>
        <pt x="234" y="481" on="1"/>
      </contour>
      <contour>
        <pt x="304" y="644" on="1"/>
        <pt x="170" y="554" on="1"/>
        <pt x="157" y="571" on="1"/>
        <pt x="241" y="642" on="0"/>
        <pt x="294" y="739" on="1"/>
        <pt x="314" y="739" on="1"/>
        <pt x="367" y="642" on="0"/>
        <pt x="451" y="571" on="1"/>
        <pt x="438" y="554" on="1"/>
      </contour>
    </TTGlyph>
    <TTGlyph name="acute" xMin="0" yMin="558" xMax="200" yMax="728">
      <contour>
        <pt x="132" y="727" on="1"/>
        <pt x="142" y="728" on="0"/>
        <pt x="165" y="728" on="0"/>
        <pt x="175" y="726" on="1"/>
        <pt x="182" y="718" on="0"/>
        <pt x="199" y="677" on="0"/>
        <pt x="200" y="667" on="1"/>
        <pt x="11" y="558" on="1"/>
        <pt x="0" y="576" on="1"/>
        <pt x="37" y="601" on="0"/>
        <pt x="108" y="685" on="0"/>
      </contour>
    </TTGlyph>
    <TTGlyph name="acute.cap" xMin="0" yMin="722" xMax="214" yMax="868">
      <contour>
        <pt x="214" y="797" on="1"/>
        <pt x="8" y="722" on="1"/>
        <pt x="0" y="742" on="1"/>
        <pt x="82" y="778" on="0"/>
        <pt x="157" y="868" on="1"/>
        <pt x="179" y="866" on="0"/>
        <pt x="199" y="859" on="1"/>
        <pt x="204" y="850" on="0"/>
        <pt x="215" y="807" on="0"/>
      </contour>
    </TTGlyph>
    <TTGlyph name="adieresis" xMin="-14" yMin="-8" xMax="503" yMax="711">
      <contour>
        <pt x="108" y="532" on="1"/>
        <pt x="202" y="521" on="0"/>
        <pt x="394" y="521" on="0"/>
        <pt x="487" y="532" on="1"/>
        <pt x="491" y="506" on="1"/>
        <pt x="461" y="494" on="0"/>
        <pt x="429" y="488" on="1"/>
        <pt x="418" y="406" on="0"/>
        <pt x="418" y="114" on="0"/>
        <pt x="429" y="32" on="1"/>
        <pt x="449" y="29" on="0"/>
        <pt x="503" y="17" on="1"/>
        <pt x="499" y="-8" on="1"/>
        <pt x="451" y="0" on="0"/>
        <pt x="301" y="0" on="0"/>
        <pt x="261" y="-8" on="1"/>
        <pt x="257" y="18" on="1"/>
        <pt x="291" y="29" on="0"/>
        <pt x="334" y="34" on="1"/>
        <pt x="340" y="92" on="0"/>
        <pt x="343" y="195" on="1"/>
        <pt x="296" y="200" on="0"/>
        <pt x="202" y="200" on="0"/>
        <pt x="167" y="195" on="1"/>
        <pt x="147" y="113" on="0"/>
        <pt x="147" y="81" on="1"/>
        <pt x="147" y="32" on="0"/>
        <pt x="182" y="12" on="1"/>
        <pt x="178" y="-5" on="1"/>
        <pt x="155" y="0" on="0"/>
        <pt x="27" y="0" on="0"/>
        <pt x="-10" y="-8" on="1"/>
        <pt x="-14" y="18" on="1"/>
        <pt x="10" y="27" on="0"/>
        <pt x="52" y="34" on="1"/>
        <pt x="182" y="490" on="1"/>
        <pt x="138" y="497" on="0"/>
        <pt x="105" y="506" on="1"/>
      </contour>
      <contour>
        <pt x="175" y="242" on="1"/>
        <pt x="214" y="236" on="0"/>
        <pt x="309" y="236" on="0"/>
        <pt x="343" y="242" on="1"/>
        <pt x="343" y="427" on="0"/>
        <pt x="335" y="481" on="1"/>
        <pt x="301" y="483" on="0"/>
        <pt x="268" y="483" on="0"/>
        <pt x="234" y="481" on="1"/>
      </contour>
      <contour>
        <pt x="259" y="661" on="1"/>
        <pt x="252" y="648" on="0"/>
        <pt x="217" y="608" on="0"/>
        <pt x="205" y="600" on="1"/>
        <pt x="193" y="608" on="0"/>
        <pt x="158" y="648" on="0"/>
        <pt x="151" y="661" on="1"/>
        <pt x="157" y="673" on="0"/>
        <pt x="191" y="704" on="0"/>
        <pt x="205" y="711" on="1"/>
        <pt x="218" y="703" on="0"/>
        <pt x="252" y="672" on="0"/>
      </contour>
      <contour>
        <pt x="444" y="661" on="1"/>
        <pt x="437" y="648" on="0"/>
        <pt x="402" y="608" on="0"/>
        <pt x="390" y="600" on="1"/>
        <pt x="378" y="608" on="0"/>
        <pt x="343" y="648" on="0"/>
        <pt x="336" y="661" on="1"/>
        <pt x="342" y="673" on="0"/>
        <pt x="376" y="704" on="0"/>
        <pt x="390" y="711" on="1"/>
        <pt x="403" y="703" on="0"/>
        <pt x="437" y="672" on="0"/>
      </contour>
    </TTGlyph>
    <TTGlyph name="ae" xMin="-16" yMin="-12" xMax="626" yMax="533">
      <contour>
        <pt x="137" y="532" on="1"/>
        <pt x="231" y="521" on="0"/>
        <pt x="499" y="521" on="0"/>
        <pt x="621" y="533" on="1"/>
        <pt x="626" y="513" on="1"/>
        <pt x="586" y="471" on="0"/>
        <pt x="581" y="391" on="1"/>
        <pt x="556" y="391" on="1"/>
        <pt x="549" y="424" on="0"/>
        <pt x="549" y="471" on="1"/>
        <pt x="514" y="488" on="0"/>
        <pt x="419" y="488" on="0"/>
        <pt x="401" y="484" on="1"/>
        <pt x="388" y="450" on="0"/>
        <pt x="380" y="298" on="1"/>
        <pt x="415" y="291" on="0"/>
        <pt x="449" y="291" on="1"/>
        <pt x="510" y="291" on="0"/>
        <pt x="527" y="326" on="1"/>
        <pt x="548" y="323" on="1"/>
        <pt x="539" y="293" on="0"/>
        <pt x="539" y="235" on="0"/>
        <pt x="546" y="193" on="1"/>
        <pt x="522" y="189" on="1"/>
        <pt x="511" y="219" on="0"/>
        <pt x="506" y="251" on="1"/>
        <pt x="466" y="255" on="0"/>
        <pt x="422" y="255" on="0"/>
        <pt x="380" y="250" on="1"/>
        <pt x="380" y="220" on="1"/>
        <pt x="380" y="141" on="0"/>
        <pt x="425" y="58" on="0"/>
        <pt x="553" y="58" on="0"/>
        <pt x="609" y="114" on="1"/>
        <pt x="620" y="104" on="1"/>
        <pt x="552" y="16" on="0"/>
        <pt x="472" y="-12" on="1"/>
        <pt x="303" y="-12" on="0"/>
        <pt x="303" y="188" on="1"/>
        <pt x="303" y="194" on="0"/>
        <pt x="303" y="200" on="1"/>
        <pt x="304" y="250" on="1"/>
        <pt x="276" y="255" on="0"/>
        <pt x="208" y="255" on="0"/>
        <pt x="187" y="250" on="1"/>
        <pt x="178" y="218" on="1"/>
        <pt x="148" y="110" on="0"/>
        <pt x="148" y="29" on="0"/>
        <pt x="178" y="12" on="1"/>
        <pt x="174" y="-5" on="1"/>
        <pt x="151" y="0" on="0"/>
        <pt x="25" y="0" on="0"/>
        <pt x="-12" y="-8" on="1"/>
        <pt x="-16" y="18" on="1"/>
        <pt x="8" y="27" on="0"/>
        <pt x="50" y="34" on="1"/>
        <pt x="208" y="490" on="1"/>
        <pt x="161" y="498" on="0"/>
        <pt x="134" y="506" on="1"/>
      </contour>
      <contour>
        <pt x="202" y="296" on="1"/>
        <pt x="221" y="291" on="0"/>
        <pt x="285" y="291" on="0"/>
        <pt x="305" y="297" on="1"/>
        <pt x="307" y="337" on="0"/>
        <pt x="314" y="431" on="0"/>
        <pt x="314" y="469" on="0"/>
        <pt x="312" y="482" on="1"/>
        <pt x="300" y="485" on="0"/>
        <pt x="272" y="485" on="0"/>
        <pt x="259" y="482" on="1"/>
      </contour>
    </TTGlyph>
    <TTGlyph name="agrave" xMin="-14" yMin="-8" xMax="503" yMax="728">
      <contour>
        <pt x="108" y="532" on="1"/>
        <pt x="202" y="521" on="0"/>
        <pt x="394" y="521" on="0"/>
        <pt x="487" y="532" on="1"/>
        <pt x="491" y="506" on="1"/>
        <pt x="461" y="494" on="0"/>
        <pt x="429" y="488" on="1"/>
        <pt x="418" y="406" on="0"/>
        <pt x="418" y="114" on="0"/>
        <pt x="429" y="32" on="1"/>
        <pt x="449" y="29" on="0"/>
        <pt x="503" y="17" on="1"/>
        <pt x="499" y="-8" on="1"/>
        <pt x="451" y="0" on="0"/>
        <pt x="301" y="0" on="0"/>
        <pt x="261" y="-8" on="1"/>
        <pt x="257" y="18" on="1"/>
        <pt x="291" y="29" on="0"/>
        <pt x="334" y="34" on="1"/>
        <pt x="340" y="92" on="0"/>
        <pt x="343" y="195" on="1"/>
        <pt x="296" y="200" on="0"/>
        <pt x="202" y="200" on="0"/>
        <pt x="167" y="195" on="1"/>
        <pt x="147" y="113" on="0"/>
        <pt x="147" y="81" on="1"/>
        <pt x="147" y="32" on="0"/>
        <pt x="182" y="12" on="1"/>
        <pt x="178" y="-5" on="1"/>
        <pt x="155" y="0" on="0"/>
        <pt x="27" y="0" on="0"/>
        <pt x="-10" y="-8" on="1"/>
        <pt x="-14" y="18" on="1"/>
        <pt x="10" y="27" on="0"/>
        <pt x="52" y="34" on="1"/>
        <pt x="182" y="490" on="1"/>
        <pt x="138" y="497" on="0"/>
        <pt x="105" y="506" on="1"/>
      </contour>
      <contour>
        <pt x="175" y="242" on="1"/>
        <pt x="214" y="236" on="0"/>
        <pt x="309" y="236" on="0"/>
        <pt x="343" y="242" on="1"/>
        <pt x="343" y="427" on="0"/>
        <pt x="335" y="481" on="1"/>
        <pt x="301" y="483" on="0"/>
        <pt x="268" y="483" on="0"/>
        <pt x="234" y="481" on="1"/>
      </contour>
      <contour>
        <pt x="158" y="726" on="1"/>
        <pt x="168" y="728" on="0"/>
        <pt x="191" y="728" on="0"/>
        <pt x="201" y="727" on="1"/>
        <pt x="225" y="685" on="0"/>
        <pt x="296" y="601" on="0"/>
        <pt x="333" y="576" on="1"/>
        <pt x="322" y="558" on="1"/>
        <pt x="133" y="667" on="1"/>
        <pt x="134" y="677" on="0"/>
        <pt x="151" y="718" on="0"/>
      </contour>
    </TTGlyph>
    <TTGlyph name="ampersand" xMin="50" yMin="-15" xMax="601" yMax="678">
      <contour>
        <pt x="394" y="566" on="1"/>
        <pt x="346" y="594" on="0"/>
        <pt x="214" y="594" on="0"/>
        <pt x="173" y="560" on="1"/>
        <pt x="172" y="546" on="0"/>
        <pt x="172" y="534" on="1"/>
        <pt x="172" y="460" on="0"/>
        <pt x="249" y="376" on="0"/>
        <pt x="343" y="376" on="1"/>
        <pt x="483" y="376" on="0"/>
        <pt x="596" y="408" on="1"/>
        <pt x="601" y="403" on="1"/>
        <pt x="591" y="371" on="0"/>
        <pt x="588" y="329" on="1"/>
        <pt x="585" y="325" on="1"/>
        <pt x="539" y="331" on="0"/>
        <pt x="482" y="333" on="1"/>
        <pt x="482" y="183" on="1"/>
        <pt x="482" y="122" on="0"/>
        <pt x="367" y="7" on="0"/>
        <pt x="299" y="-15" on="1"/>
        <pt x="192" y="-15" on="0"/>
        <pt x="50" y="89" on="0"/>
        <pt x="50" y="185" on="1"/>
        <pt x="50" y="254" on="0"/>
        <pt x="166" y="346" on="0"/>
        <pt x="240" y="346" on="1"/>
        <pt x="240" y="350" on="1"/>
        <pt x="172" y="354" on="0"/>
        <pt x="81" y="422" on="0"/>
        <pt x="81" y="482" on="1"/>
        <pt x="117" y="546" on="0"/>
        <pt x="236" y="648" on="0"/>
        <pt x="304" y="666" on="1"/>
        <pt x="375" y="666" on="0"/>
        <pt x="444" y="647" on="1"/>
        <pt x="460" y="655" on="0"/>
        <pt x="485" y="678" on="1"/>
        <pt x="506" y="664" on="1"/>
        <pt x="440" y="584" on="0"/>
        <pt x="425" y="473" on="1"/>
        <pt x="399" y="473" on="1"/>
        <pt x="399" y="528" on="0"/>
      </contour>
      <contour>
        <pt x="414" y="126" on="1"/>
        <pt x="414" y="233" on="0"/>
        <pt x="400" y="333" on="1"/>
        <pt x="326" y="333" on="1"/>
        <pt x="247" y="333" on="0"/>
        <pt x="144" y="272" on="0"/>
        <pt x="144" y="133" on="0"/>
        <pt x="240" y="56" on="0"/>
        <pt x="370" y="56" on="0"/>
        <pt x="407" y="80" on="1"/>
        <pt x="414" y="94" on="0"/>
      </contour>
    </TTGlyph>
    <TTGlyph name="aring" xMin="-14" yMin="-8" xMax="503" yMax="739">
      <contour>
        <pt x="108" y="532" on="1"/>
        <pt x="202" y="521" on="0"/>
        <pt x="394" y="521" on="0"/>
        <pt x="487" y="532" on="1"/>
        <pt x="491" y="506" on="1"/>
        <pt x="461" y="494" on="0"/>
        <pt x="429" y="488" on="1"/>
        <pt x="418" y="406" on="0"/>
        <pt x="418" y="114" on="0"/>
        <pt x="429" y="32" on="1"/>
        <pt x="449" y="29" on="0"/>
        <pt x="503" y="17" on="1"/>
        <pt x="499" y="-8" on="1"/>
        <pt x="451" y="0" on="0"/>
        <pt x="301" y="0" on="0"/>
        <pt x="261" y="-8" on="1"/>
        <pt x="257" y="18" on="1"/>
        <pt x="291" y="29" on="0"/>
        <pt x="334" y="34" on="1"/>
        <pt x="340" y="92" on="0"/>
        <pt x="343" y="195" on="1"/>
        <pt x="296" y="200" on="0"/>
        <pt x="202" y="200" on="0"/>
        <pt x="167" y="195" on="1"/>
        <pt x="147" y="113" on="0"/>
        <pt x="147" y="81" on="1"/>
        <pt x="147" y="32" on="0"/>
        <pt x="182" y="12" on="1"/>
        <pt x="178" y="-5" on="1"/>
        <pt x="155" y="0" on="0"/>
        <pt x="27" y="0" on="0"/>
        <pt x="-10" y="-8" on="1"/>
        <pt x="-14" y="18" on="1"/>
        <pt x="10" y="27" on="0"/>
        <pt x="52" y="34" on="1"/>
        <pt x="182" y="490" on="1"/>
        <pt x="138" y="497" on="0"/>
        <pt x="105" y="506" on="1"/>
      </contour>
      <contour>
        <pt x="175" y="242" on="1"/>
        <pt x="214" y="236" on="0"/>
        <pt x="309" y="236" on="0"/>
        <pt x="343" y="242" on="1"/>
        <pt x="343" y="427" on="0"/>
        <pt x="335" y="481" on="1"/>
        <pt x="301" y="483" on="0"/>
        <pt x="268" y="483" on="0"/>
        <pt x="234" y="481" on="1"/>
      </contour>
      <contour>
        <pt x="270" y="558" on="0"/>
        <pt x="214" y="596" on="0"/>
        <pt x="214" y="671" on="0"/>
        <pt x="273" y="730" on="0"/>
        <pt x="316" y="739" on="1"/>
        <pt x="407" y="739" on="0"/>
        <pt x="407" y="665" on="1"/>
        <pt x="407" y="626" on="0"/>
        <pt x="354" y="571" on="0"/>
        <pt x="311" y="558" on="1"/>
      </contour>
      <contour>
        <pt x="360" y="672" on="0"/>
        <pt x="329" y="704" on="0"/>
        <pt x="282" y="704" on="0"/>
        <pt x="272" y="695" on="1"/>
        <pt x="261" y="678" on="0"/>
        <pt x="261" y="626" on="0"/>
        <pt x="293" y="593" on="0"/>
        <pt x="338" y="593" on="0"/>
        <pt x="349" y="602" on="1"/>
        <pt x="360" y="618" on="0"/>
      </contour>
    </TTGlyph>
    <TTGlyph name="asciicircum" xMin="50" yMin="291" xMax="468" yMax="696">
      <contour>
        <pt x="259" y="580" on="1"/>
        <pt x="79" y="291" on="1"/>
        <pt x="50" y="306" on="1"/>
        <pt x="142" y="464" on="0"/>
        <pt x="231" y="686" on="1"/>
        <pt x="284" y="696" on="1"/>
        <pt x="379" y="458" on="0"/>
        <pt x="468" y="306" on="1"/>
        <pt x="439" y="291" on="1"/>
      </contour>
    </TTGlyph>
    <TTGlyph name="asciitilde" xMin="50" yMin="188" xMax="540" yMax="328">
      <contour>
        <pt x="404" y="258" on="1"/>
        <pt x="473" y="258" on="0"/>
        <pt x="522" y="316" on="1"/>
        <pt x="540" y="305" on="1"/>
        <pt x="520" y="267" on="0"/>
        <pt x="432" y="200" on="0"/>
        <pt x="389" y="188" on="1"/>
        <pt x="356" y="188" on="0"/>
        <pt x="202" y="254" on="0"/>
        <pt x="169" y="254" on="1"/>
        <pt x="103" y="254" on="0"/>
        <pt x="68" y="200" on="1"/>
        <pt x="50" y="211" on="1"/>
        <pt x="72" y="252" on="0"/>
        <pt x="167" y="323" on="0"/>
        <pt x="211" y="328" on="1"/>
        <pt x="254" y="299" on="0"/>
        <pt x="360" y="258" on="0"/>
      </contour>
    </TTGlyph>
    <TTGlyph name="asterisk" xMin="43" yMin="383" xMax="327" yMax="711">
      <contour>
        <pt x="203" y="672" on="1"/>
        <pt x="229" y="678" on="1"/>
        <pt x="231" y="676" on="1"/>
        <pt x="202" y="629" on="0"/>
        <pt x="195" y="564" on="1"/>
        <pt x="247" y="603" on="0"/>
        <pt x="273" y="651" on="1"/>
        <pt x="276" y="651" on="1"/>
        <pt x="278" y="647" on="0"/>
        <pt x="284" y="626" on="0"/>
        <pt x="284" y="625" on="1"/>
        <pt x="311" y="630" on="0"/>
        <pt x="326" y="630" on="0"/>
        <pt x="327" y="629" on="1"/>
        <pt x="327" y="626" on="0"/>
        <pt x="302" y="594" on="1"/>
        <pt x="310" y="586" on="1"/>
        <pt x="318" y="578" on="0"/>
        <pt x="320" y="574" on="1"/>
        <pt x="319" y="572" on="1"/>
        <pt x="315" y="572" on="0"/>
        <pt x="312" y="572" on="1"/>
        <pt x="263" y="572" on="0"/>
        <pt x="203" y="547" on="1"/>
        <pt x="259" y="522" on="0"/>
        <pt x="311" y="522" on="1"/>
        <pt x="315" y="522" on="0"/>
        <pt x="319" y="522" on="1"/>
        <pt x="320" y="520" on="1"/>
        <pt x="318" y="516" on="0"/>
        <pt x="310" y="508" on="1"/>
        <pt x="302" y="500" on="1"/>
        <pt x="303" y="498" on="0"/>
        <pt x="310" y="490" on="1"/>
        <pt x="327" y="471" on="0"/>
        <pt x="327" y="465" on="1"/>
        <pt x="326" y="464" on="0"/>
        <pt x="311" y="464" on="0"/>
        <pt x="284" y="469" on="1"/>
        <pt x="284" y="468" on="0"/>
        <pt x="278" y="447" on="0"/>
        <pt x="276" y="443" on="1"/>
        <pt x="273" y="443" on="1"/>
        <pt x="246" y="492" on="0"/>
        <pt x="195" y="530" on="1"/>
        <pt x="202" y="465" on="0"/>
        <pt x="231" y="418" on="1"/>
        <pt x="229" y="416" on="1"/>
        <pt x="203" y="422" on="1"/>
        <pt x="190" y="386" on="0"/>
        <pt x="185" y="383" on="1"/>
        <pt x="180" y="385" on="0"/>
        <pt x="167" y="422" on="1"/>
        <pt x="141" y="416" on="1"/>
        <pt x="139" y="418" on="1"/>
        <pt x="167" y="465" on="0"/>
        <pt x="175" y="530" on="1"/>
        <pt x="124" y="492" on="0"/>
        <pt x="97" y="443" on="1"/>
        <pt x="94" y="443" on="1"/>
        <pt x="92" y="447" on="0"/>
        <pt x="86" y="468" on="0"/>
        <pt x="86" y="469" on="1"/>
        <pt x="59" y="464" on="0"/>
        <pt x="44" y="464" on="0"/>
        <pt x="43" y="465" on="1"/>
        <pt x="43" y="468" on="0"/>
        <pt x="68" y="500" on="1"/>
        <pt x="60" y="508" on="1"/>
        <pt x="52" y="516" on="0"/>
        <pt x="50" y="520" on="1"/>
        <pt x="51" y="522" on="1"/>
        <pt x="55" y="522" on="0"/>
        <pt x="59" y="522" on="1"/>
        <pt x="110" y="522" on="0"/>
        <pt x="166" y="547" on="1"/>
        <pt x="106" y="572" on="0"/>
        <pt x="58" y="572" on="1"/>
        <pt x="55" y="572" on="0"/>
        <pt x="51" y="572" on="1"/>
        <pt x="50" y="574" on="1"/>
        <pt x="52" y="578" on="0"/>
        <pt x="60" y="586" on="1"/>
        <pt x="68" y="594" on="1"/>
        <pt x="67" y="596" on="0"/>
        <pt x="60" y="604" on="1"/>
        <pt x="43" y="623" on="0"/>
        <pt x="43" y="629" on="1"/>
        <pt x="44" y="630" on="0"/>
        <pt x="59" y="630" on="0"/>
        <pt x="86" y="625" on="1"/>
        <pt x="86" y="626" on="0"/>
        <pt x="92" y="647" on="0"/>
        <pt x="94" y="651" on="1"/>
        <pt x="97" y="651" on="1"/>
        <pt x="123" y="603" on="0"/>
        <pt x="175" y="564" on="1"/>
        <pt x="166" y="629" on="0"/>
        <pt x="139" y="676" on="1"/>
        <pt x="141" y="678" on="1"/>
        <pt x="167" y="672" on="1"/>
        <pt x="180" y="708" on="0"/>
        <pt x="185" y="711" on="1"/>
        <pt x="190" y="709" on="0"/>
      </contour>
    </TTGlyph>
    <TTGlyph name="at" xMin="55" yMin="-190" xMax="823" yMax="666">
      <contour>
        <pt x="300" y="499" on="1"/>
        <pt x="388" y="488" on="0"/>
        <pt x="579" y="488" on="0"/>
        <pt x="667" y="499" on="1"/>
        <pt x="671" y="473" on="1"/>
        <pt x="646" y="462" on="0"/>
        <pt x="609" y="455" on="1"/>
        <pt x="598" y="352" on="0"/>
        <pt x="598" y="263" on="1"/>
        <pt x="598" y="94" on="0"/>
        <pt x="620" y="36" on="1"/>
        <pt x="626" y="33" on="1"/>
        <pt x="692" y="69" on="0"/>
        <pt x="759" y="235" on="0"/>
        <pt x="759" y="329" on="1"/>
        <pt x="759" y="616" on="0"/>
        <pt x="458" y="616" on="1"/>
        <pt x="356" y="616" on="0"/>
        <pt x="281" y="570" on="1"/>
        <pt x="208" y="500" on="0"/>
        <pt x="121" y="278" on="0"/>
        <pt x="121" y="172" on="1"/>
        <pt x="121" y="22" on="0"/>
        <pt x="265" y="-140" on="0"/>
        <pt x="409" y="-140" on="1"/>
        <pt x="471" y="-140" on="0"/>
        <pt x="528" y="-118" on="1"/>
        <pt x="535" y="-131" on="1"/>
        <pt x="475" y="-173" on="0"/>
        <pt x="401" y="-190" on="1"/>
        <pt x="225" y="-190" on="0"/>
        <pt x="55" y="-21" on="0"/>
        <pt x="55" y="155" on="1"/>
        <pt x="55" y="356" on="0"/>
        <pt x="281" y="639" on="0"/>
        <pt x="474" y="666" on="1"/>
        <pt x="823" y="666" on="0"/>
        <pt x="823" y="363" on="1"/>
        <pt x="823" y="214" on="0"/>
        <pt x="678" y="2" on="0"/>
        <pt x="561" y="-15" on="1"/>
        <pt x="554" y="-12" on="1"/>
        <pt x="523" y="50" on="0"/>
        <pt x="523" y="157" on="1"/>
        <pt x="523" y="169" on="0"/>
        <pt x="523" y="182" on="1"/>
        <pt x="486" y="187" on="0"/>
        <pt x="392" y="187" on="0"/>
        <pt x="365" y="182" on="1"/>
        <pt x="348" y="112" on="0"/>
        <pt x="348" y="32" on="0"/>
        <pt x="383" y="12" on="1"/>
        <pt x="379" y="-5" on="1"/>
        <pt x="356" y="0" on="0"/>
        <pt x="225" y="0" on="0"/>
        <pt x="191" y="-8" on="1"/>
        <pt x="187" y="18" on="1"/>
        <pt x="217" y="28" on="0"/>
        <pt x="253" y="34" on="1"/>
        <pt x="374" y="457" on="1"/>
        <pt x="321" y="466" on="0"/>
        <pt x="297" y="473" on="1"/>
      </contour>
      <contour>
        <pt x="374" y="229" on="1"/>
        <pt x="404" y="223" on="0"/>
        <pt x="497" y="223" on="0"/>
        <pt x="523" y="229" on="1"/>
        <pt x="523" y="397" on="0"/>
        <pt x="515" y="447" on="1"/>
        <pt x="496" y="450" on="0"/>
        <pt x="452" y="450" on="0"/>
        <pt x="426" y="448" on="1"/>
      </contour>
    </TTGlyph>
    <TTGlyph name="atilde" xMin="-14" yMin="-8" xMax="503" yMax="696">
      <contour>
        <pt x="108" y="532" on="1"/>
        <pt x="202" y="521" on="0"/>
        <pt x="394" y="521" on="0"/>
        <pt x="487" y="532" on="1"/>
        <pt x="491" y="506" on="1"/>
        <pt x="461" y="494" on="0"/>
        <pt x="429" y="488" on="1"/>
        <pt x="418" y="406" on="0"/>
        <pt x="418" y="114" on="0"/>
        <pt x="429" y="32" on="1"/>
        <pt x="449" y="29" on="0"/>
        <pt x="503" y="17" on="1"/>
        <pt x="499" y="-8" on="1"/>
        <pt x="451" y="0" on="0"/>
        <pt x="301" y="0" on="0"/>
        <pt x="261" y="-8" on="1"/>
        <pt x="257" y="18" on="1"/>
        <pt x="291" y="29" on="0"/>
        <pt x="334" y="34" on="1"/>
        <pt x="340" y="92" on="0"/>
        <pt x="343" y="195" on="1"/>
        <pt x="296" y="200" on="0"/>
        <pt x="202" y="200" on="0"/>
        <pt x="167" y="195" on="1"/>
        <pt x="147" y="113" on="0"/>
        <pt x="147" y="81" on="1"/>
        <pt x="147" y="32" on="0"/>
        <pt x="182" y="12" on="1"/>
        <pt x="178" y="-5" on="1"/>
        <pt x="155" y="0" on="0"/>
        <pt x="27" y="0" on="0"/>
        <pt x="-10" y="-8" on="1"/>
        <pt x="-14" y="18" on="1"/>
        <pt x="10" y="27" on="0"/>
        <pt x="52" y="34" on="1"/>
        <pt x="182" y="490" on="1"/>
        <pt x="138" y="497" on="0"/>
        <pt x="105" y="506" on="1"/>
      </contour>
      <contour>
        <pt x="175" y="242" on="1"/>
        <pt x="214" y="236" on="0"/>
        <pt x="309" y="236" on="0"/>
        <pt x="343" y="242" on="1"/>
        <pt x="343" y="427" on="0"/>
        <pt x="335" y="481" on="1"/>
        <pt x="301" y="483" on="0"/>
        <pt x="268" y="483" on="0"/>
        <pt x="234" y="481" on="1"/>
      </contour>
      <contour>
        <pt x="276" y="696" on="1"/>
        <pt x="335" y="665" on="0"/>
        <pt x="440" y="665" on="0"/>
        <pt x="460" y="689" on="1"/>
        <pt x="478" y="678" on="1"/>
        <pt x="422" y="617" on="0"/>
        <pt x="374" y="596" on="1"/>
        <pt x="353" y="596" on="0"/>
        <pt x="250" y="627" on="0"/>
        <pt x="229" y="627" on="1"/>
        <pt x="186" y="627" on="0"/>
        <pt x="166" y="603" on="1"/>
        <pt x="148" y="614" on="1"/>
        <pt x="204" y="675" on="0"/>
      </contour>
    </TTGlyph>
    <TTGlyph name="b" xMin="38" yMin="-19" xMax="462" yMax="526">
      <contour>
        <pt x="38" y="519" on="1"/>
        <pt x="277" y="526" on="1"/>
        <pt x="375" y="526" on="0"/>
        <pt x="408" y="502" on="1"/>
        <pt x="440" y="480" on="0"/>
        <pt x="440" y="389" on="0"/>
        <pt x="375" y="316" on="0"/>
        <pt x="328" y="298" on="1"/>
        <pt x="328" y="294" on="1"/>
        <pt x="388" y="294" on="0"/>
        <pt x="462" y="243" on="0"/>
        <pt x="462" y="128" on="0"/>
        <pt x="334" y="7" on="0"/>
        <pt x="267" y="-12" on="1"/>
        <pt x="243" y="-12" on="0"/>
        <pt x="160" y="8" on="0"/>
        <pt x="134" y="18" on="1"/>
        <pt x="123" y="5" on="0"/>
        <pt x="114" y="-19" on="1"/>
        <pt x="93" y="-14" on="1"/>
        <pt x="112" y="75" on="0"/>
        <pt x="112" y="400" on="0"/>
        <pt x="103" y="481" on="1"/>
        <pt x="69" y="494" on="0"/>
        <pt x="38" y="494" on="1"/>
      </contour>
      <contour>
        <pt x="235" y="308" on="1"/>
        <pt x="297" y="308" on="0"/>
        <pt x="325" y="325" on="1"/>
        <pt x="350" y="356" on="0"/>
        <pt x="350" y="404" on="1"/>
        <pt x="350" y="491" on="0"/>
        <pt x="255" y="491" on="1"/>
        <pt x="222" y="491" on="0"/>
        <pt x="194" y="480" on="1"/>
        <pt x="187" y="412" on="0"/>
        <pt x="187" y="130" on="0"/>
        <pt x="191" y="74" on="1"/>
        <pt x="232" y="52" on="0"/>
        <pt x="331" y="52" on="0"/>
        <pt x="357" y="71" on="1"/>
        <pt x="374" y="105" on="0"/>
        <pt x="374" y="153" on="1"/>
        <pt x="374" y="219" on="0"/>
        <pt x="296" y="273" on="0"/>
        <pt x="222" y="273" on="1"/>
        <pt x="226" y="308" on="1"/>
      </contour>
    </TTGlyph>
    <TTGlyph name="backslash" xMin="21" yMin="-45" xMax="323" yMax="717">
      <contour>
        <pt x="282" y="-45" on="1"/>
        <pt x="277" y="-45" on="1"/>
        <pt x="99" y="478" on="1"/>
        <pt x="53" y="615" on="0"/>
        <pt x="21" y="696" on="1"/>
        <pt x="53" y="707" on="0"/>
        <pt x="69" y="717" on="1"/>
        <pt x="73" y="717" on="1"/>
        <pt x="99" y="622" on="0"/>
        <pt x="142" y="493" on="1"/>
        <pt x="251" y="175" on="1"/>
        <pt x="283" y="82" on="0"/>
        <pt x="323" y="-17" on="1"/>
        <pt x="309" y="-33" on="0"/>
      </contour>
    </TTGlyph>
    <TTGlyph name="bar" xMin="89" yMin="-216" xMax="146" yMax="750">
      <contour>
        <pt x="144" y="-199" on="1"/>
        <pt x="126" y="-209" on="0"/>
        <pt x="103" y="-216" on="1"/>
        <pt x="96" y="-213" on="1"/>
        <pt x="96" y="476" on="0"/>
        <pt x="89" y="723" on="1"/>
        <pt x="123" y="737" on="0"/>
        <pt x="141" y="750" on="1"/>
        <pt x="146" y="749" on="1"/>
        <pt x="144" y="607" on="0"/>
      </contour>
    </TTGlyph>
    <TTGlyph name="braceleft" xMin="44" yMin="-215" xMax="228" yMax="711">
      <contour>
        <pt x="176" y="-201" on="0"/>
        <pt x="89" y="-117" on="0"/>
        <pt x="89" y="-25" on="0"/>
        <pt x="116" y="140" on="0"/>
        <pt x="116" y="187" on="1"/>
        <pt x="116" y="223" on="0"/>
        <pt x="48" y="236" on="1"/>
        <pt x="44" y="255" on="1"/>
        <pt x="116" y="271" on="0"/>
        <pt x="116" y="309" on="1"/>
        <pt x="116" y="356" on="0"/>
        <pt x="89" y="522" on="0"/>
        <pt x="89" y="613" on="0"/>
        <pt x="176" y="697" on="0"/>
        <pt x="224" y="711" on="1"/>
        <pt x="228" y="697" on="1"/>
        <pt x="201" y="683" on="0"/>
        <pt x="153" y="631" on="0"/>
        <pt x="144" y="604" on="1"/>
        <pt x="144" y="557" on="0"/>
        <pt x="189" y="369" on="0"/>
        <pt x="189" y="329" on="1"/>
        <pt x="175" y="295" on="0"/>
        <pt x="98" y="250" on="1"/>
        <pt x="98" y="246" on="1"/>
        <pt x="175" y="201" on="0"/>
        <pt x="189" y="167" on="1"/>
        <pt x="189" y="127" on="0"/>
        <pt x="144" y="-61" on="0"/>
        <pt x="144" y="-108" on="1"/>
        <pt x="153" y="-135" on="0"/>
        <pt x="201" y="-187" on="0"/>
        <pt x="228" y="-201" on="1"/>
        <pt x="224" y="-215" on="1"/>
      </contour>
    </TTGlyph>
    <TTGlyph name="braceright" xMin="72" yMin="-215" xMax="256" yMax="711">
      <contour>
        <pt x="124" y="697" on="0"/>
        <pt x="211" y="613" on="0"/>
        <pt x="211" y="522" on="0"/>
        <pt x="184" y="356" on="0"/>
        <pt x="184" y="309" on="1"/>
        <pt x="184" y="271" on="0"/>
        <pt x="256" y="255" on="1"/>
        <pt x="252" y="236" on="1"/>
        <pt x="184" y="223" on="0"/>
        <pt x="184" y="187" on="1"/>
        <pt x="184" y="140" on="0"/>
        <pt x="211" y="-25" on="0"/>
        <pt x="211" y="-117" on="0"/>
        <pt x="124" y="-201" on="0"/>
        <pt x="76" y="-215" on="1"/>
        <pt x="72" y="-201" on="1"/>
        <pt x="99" y="-187" on="0"/>
        <pt x="147" y="-135" on="0"/>
        <pt x="156" y="-108" on="1"/>
        <pt x="156" y="-61" on="0"/>
        <pt x="111" y="127" on="0"/>
        <pt x="111" y="167" on="1"/>
        <pt x="125" y="201" on="0"/>
        <pt x="202" y="246" on="1"/>
        <pt x="202" y="250" on="1"/>
        <pt x="125" y="295" on="0"/>
        <pt x="111" y="329" on="1"/>
        <pt x="111" y="369" on="0"/>
        <pt x="156" y="557" on="0"/>
        <pt x="156" y="604" on="1"/>
        <pt x="147" y="631" on="0"/>
        <pt x="99" y="683" on="0"/>
        <pt x="72" y="697" on="1"/>
        <pt x="76" y="711" on="1"/>
      </contour>
    </TTGlyph>
    <TTGlyph name="bracketleft" xMin="94" yMin="-208" xMax="296" yMax="704">
      <contour>
        <pt x="270" y="-193" on="1"/>
        <pt x="162" y="-193" on="0"/>
        <pt x="101" y="-208" on="1"/>
        <pt x="94" y="-203" on="1"/>
        <pt x="104" y="-134" on="0"/>
        <pt x="104" y="630" on="0"/>
        <pt x="94" y="699" on="1"/>
        <pt x="101" y="704" on="1"/>
        <pt x="162" y="689" on="0"/>
        <pt x="270" y="689" on="1"/>
        <pt x="283" y="689" on="0"/>
        <pt x="296" y="689" on="1"/>
        <pt x="296" y="668" on="1"/>
        <pt x="218" y="666" on="0"/>
        <pt x="164" y="651" on="1"/>
        <pt x="164" y="-155" on="1"/>
        <pt x="218" y="-170" on="0"/>
        <pt x="296" y="-172" on="1"/>
        <pt x="296" y="-193" on="1"/>
        <pt x="283" y="-193" on="0"/>
      </contour>
    </TTGlyph>
    <TTGlyph name="bracketright" xMin="30" yMin="-208" xMax="232" yMax="704">
      <contour>
        <pt x="56" y="689" on="1"/>
        <pt x="164" y="689" on="0"/>
        <pt x="225" y="704" on="1"/>
        <pt x="232" y="699" on="1"/>
        <pt x="222" y="630" on="0"/>
        <pt x="222" y="-134" on="0"/>
        <pt x="232" y="-203" on="1"/>
        <pt x="225" y="-208" on="1"/>
        <pt x="164" y="-193" on="0"/>
        <pt x="56" y="-193" on="1"/>
        <pt x="43" y="-193" on="0"/>
        <pt x="30" y="-193" on="1"/>
        <pt x="30" y="-172" on="1"/>
        <pt x="108" y="-170" on="0"/>
        <pt x="162" y="-155" on="1"/>
        <pt x="162" y="651" on="1"/>
        <pt x="108" y="666" on="0"/>
        <pt x="30" y="668" on="1"/>
        <pt x="30" y="689" on="1"/>
        <pt x="43" y="689" on="0"/>
      </contour>
    </TTGlyph>
    <TTGlyph name="brokenbar" xMin="94" yMin="-215" xMax="151" yMax="752">
      <contour>
        <pt x="149" y="340" on="1"/>
        <pt x="131" y="330" on="0"/>
        <pt x="108" y="323" on="1"/>
        <pt x="101" y="326" on="1"/>
        <pt x="100" y="508" on="0"/>
        <pt x="94" y="725" on="1"/>
        <pt x="128" y="739" on="0"/>
        <pt x="146" y="752" on="1"/>
        <pt x="151" y="751" on="1"/>
        <pt x="149" y="609" on="0"/>
      </contour>
      <contour>
        <pt x="149" y="-198" on="1"/>
        <pt x="131" y="-208" on="0"/>
        <pt x="108" y="-215" on="1"/>
        <pt x="101" y="-212" on="1"/>
        <pt x="100" y="-30" on="0"/>
        <pt x="94" y="187" on="1"/>
        <pt x="128" y="201" on="0"/>
        <pt x="146" y="214" on="1"/>
        <pt x="151" y="213" on="1"/>
        <pt x="149" y="71" on="0"/>
      </contour>
    </TTGlyph>
</ttFont>
